{
.appVersion = "3133";
.formatVersion = 3;
DisplayStrings = (
a
);
classes = (
{
automatic = 1;
code = "A Aacute Abreve Acaron Acircumflex Adieresis Agrave Amacron Aogonek Aring Aringacute Atilde AE AEacute B C Cacute Ccaron Ccedilla Ccircumflex Cdotaccent D Eth Dcaron Dcroat E Eacute Ebreve Ecaron Ecircumflex Edieresis Edotaccent Egrave Emacron Eogonek F G Gbreve Gcircumflex Gcommaaccent Gdotaccent H Hbar Hcircumflex I IJ Iacute Ibreve Icircumflex Idieresis Idotaccent Igrave Imacron Iogonek Itilde J Jcircumflex K Kcommaaccent L Lacute Lcaron Lcommaaccent Ldot Lslash M N Nacute Ncaron Ncommaaccent Ntilde Eng O Oacute Obreve Ocircumflex Odieresis Ograve Ohungarumlaut Omacron Oslash Oslashacute Otilde OE P Thorn Q R Racute Rcaron Rcommaaccent S Sacute Scaron Scedilla Scircumflex Scommaaccent T Tbar Tcaron Tcedilla Tcommaaccent U Uacute Ubreve Ucircumflex Udieresis Ugrave Uhungarumlaut Umacron Uogonek Uring Utilde V W Wacute Wcircumflex Wdieresis Wgrave X Y Yacute Ycircumflex Ydieresis Ygrave Z Zacute Zcaron Zdotaccent uni0394 uni03A9";
name = Uppercase;
}
);
customParameters = (
{
name = codePageRanges;
value = (
"1252",
"1250",
"1254",
"1257",
"bit 29"
);
},
{
name = panose;
value = (
2,
0,
5,
3,
4,
0,
0,
2,
0,
3
);
}
);
date = "2022-08-04 15:40:25 +0000";
familyName = Average;
featurePrefixes = (
{
code = "languagesystem DFLT dflt;
languagesystem latn dflt; # Latin default
languagesystem latn MOL ; # Latin Moldavian
languagesystem latn ROM ; # Latin Romanian
";
name = Languagesystems;
}
);
features = (
{
automatic = 1;
code = "feature locl;
feature subs;
feature sinf;
feature sups;
feature frac;
feature ordn;
feature case;
";
tag = aalt;
},
{
automatic = 1;
code = "lookup ccmp_Other_1 {
	@CombiningTopAccents = [acutecomb brevecomb caroncomb circumflexcomb dieresiscomb dotaccentcomb gravecomb hungarumlautcomb macroncomb ringcomb tildecomb];
	@CombiningNonTopAccents = [cedillacomb commaaccent ogonekcomb];
	sub [j]' @CombiningTopAccents by [jdotless];

glyphs = (
{
glyphname = A;
lastChange = "2022-08-04 15:50:41 +0000";
layers = (
{
anchors = (
{
name = bottom;
pos = (347,0);
},
{
name = ogonek;
pos = (496,0);
},
{
name = top;
pos = (347,691);
}
);
background = {
shapes = (
{
closed = 1;
nodes = (
(55,-1,o),
(75,0,o),
(117,0,cs,{
name = hr01;
}),
(165,0,o),
(206,-1,o),
(250,-3,c,{
name = hr02;
}),
(253,26,l),
(189,39,o),
(167,48,o),
(167,64,c),
(221,242,l),
(447,242,l),
(502,64,l),
(502,48,o),
(483,39,o),
(414,26,c),
(417,-3,l),
(458,-1,o),
(507,0,o),
(558,0,cs,{
name = hr03;
}),
(606,0,o),
(647,-1,o),
(691,-3,c,{
name = hr04;
}),
(694,26,l),
(634,37,o),
(618,46,o),
(609,69,cs),
(376,694,l),
(292,684,l),
(93,75,ls),
(85,50,o),
(63,38,o),
(0,26,c),
(3,-3,l)
);
},
{
closed = 1;
nodes = (
(326,590,l),
(330,590,l),
(431,288,l),
(235,288,l)
);
}
);
};
layerId = master01;
shapes = (
{
closed = 1;
nodes = (
(55,-1,o),
(75,0,o),
(117,0,cs,{
name = hr01;
}),
(165,0,o),
(206,-1,o),
(250,-3,c,{
name = hr02;
}),
(253,26,l),
(189,39,o),
(167,48,o),
(167,64,c),
(221,242,l),
(447,242,l),
(502,64,l),
(502,48,o),
(483,39,o),
(414,26,c),
(417,-3,l),
(458,-1,o),
(507,0,o),
(558,0,cs,{
name = hr03;
}),
(606,0,o),
(647,-1,o),
(691,-3,c,{
name = hr04;
}),
(694,26,l),
(634,37,o),
(618,46,o),
(609,69,cs),
(376,694,l),
(292,684,l),
(93,75,ls),
(85,50,o),
(63,38,o),
(0,26,c),
(3,-3,l)
);
},
{
closed = 1;
nodes = (
(326,590,l),
(330,590,l),
(431,288,l),
(235,288,l)
);
}
);
width = 694;
}
);
unicode = 65;
},
{
glyphname = Aacute;
lastChange = "2022-08-04 15:51:48 +0000";
layers = (
{
background = {
anchors = (
{
name = bottom;
pos = (347,0);
},
{
name = ogonek;
pos = (496,0);
},
{
name = top;
pos = (377,951);
}
);
shapes = (
{
closed = 1;
nodes = (
(55,-1,o),
(75,0,o),
(117,0,cs,{
name = hr01;
}),
(165,0,o),
(206,-1,o),
(250,-3,c,{
name = hr02;
}),
(253,26,l),
(189,39,o),
(167,48,o),
(167,64,c),
(221,242,l),
(447,242,l),
(502,64,l),
(502,48,o),
(483,39,o),
(414,26,c),
(417,-3,l),
(458,-1,o),
(507,0,o),
(558,0,cs,{
name = hr03;
}),
(606,0,o),
(647,-1,o),
(691,-3,c,{
name = hr04;
}),
(694,26,l),
(634,37,o),
(618,46,o),
(609,69,cs),
(376,694,l),
(292,684,l),
(93,75,ls),
(85,50,o),
(63,38,o),
(0,26,c),
(3,-3,l)
);
},
{
closed = 1;
nodes = (
(326,590,l),
(330,590,l),
(431,288,l),
(235,288,l)
);
},
{
closed = 1;
nodes = (
(475,932,o),
(442,951,o),
(409,951,c),
(275,752,l),
(305,747,l),
(478,909,l,{
name = hr00;
})
);
}
);
};
layerId = master01;
shapes = (
{
ref = A;
},
{
pos = (347,0);
ref = acutecomb.case;
}
);
width = 694;
}
);
unicode = 193;
},
{
glyphname = Abreve;
lastChange = "2022-08-04 15:51:48 +0000";
layers = (
{
background = {
anchors = (
{
name = bottom;
pos = (347,0);
},
{
name = ogonek;
pos = (496,0);
},
{
name = top;
pos = (348,896);
}
);
shapes = (
{
closed = 1;
nodes = (
(55,-1,o),
(75,0,o),
(117,0,cs,{
name = hr01;
}),
(165,0,o),
(206,-1,o),
(250,-3,c,{
name = hr02;
}),
(253,26,l),
(189,39,o),
(167,48,o),
(167,64,c),
(221,242,l),
(447,242,l),
(502,64,l),
(502,48,o),
(483,39,o),
(414,26,c),
(417,-3,l),
(458,-1,o),
(507,0,o),
(558,0,cs,{
name = hr03;
}),
(606,0,o),
(647,-1,o),
(691,-3,c,{
name = hr04;
}),
(694,26,l),
(634,37,o),
(618,46,o),
(609,69,cs),
(376,694,l),
(292,684,l),
(93,75,ls),
(85,50,o),
(63,38,o),
(0,26,c),
(3,-3,l)
);
},
{
closed = 1;
nodes = (
(326,590,l),
(330,590,l),
(431,288,l),
(235,288,l)
);
},
{
closed = 1;
nodes = (
(228,819,o),
(288,783,o),
(347,783,cs),
(407,783,o),
(467,819,o),
(477,891,c),
(440,896,l),
(433,860,o),
(390,843,o),
(347,843,cs),
(305,843,o),
(262,860,o),
(255,896,c),
(218,891,l,{
name = hr00;
})
);
}
);
};
layerId = master01;
shapes = (
{
ref = A;
},
{
pos = (347,0);
ref = brevecomb.case;
}
);
width = 694;
}
);
unicode = 258;
},
{
color = 9;
glyphname = Acaron;
lastChange = "2022-08-04 15:53:44 +0000";
layers = (
{
background = {
anchors = (
{
name = bottom;
pos = (347,0);
},
{
name = ogonek;
pos = (496,0);
},
{
name = top;
pos = (857,952);
}
);
shapes = (
{
closed = 1;
nodes = (
(55,-1,o),
(75,0,o),
(117,0,cs,{
name = hr01;
}),
(165,0,o),
(206,-1,o),
(250,-3,c,{
name = hr02;
}),
(253,26,l),
(189,39,o),
(167,48,o),
(167,64,c),
(221,242,l),
(447,242,l),
(502,64,l),
(502,48,o),
(483,39,o),
(414,26,c),
(417,-3,l),
(458,-1,o),
(507,0,o),
(558,0,cs,{
name = hr03;
}),
(606,0,o),
(647,-1,o),
(691,-3,c,{
name = hr04;
}),
(694,26,l),
(634,37,o),
(618,46,o),
(609,69,cs),
(376,694,l),
(292,684,l),
(93,75,ls),
(85,50,o),
(63,38,o),
(0,26,c),
(3,-3,l)
);
},
{
closed = 1;
nodes = (
(326,590,l),
(330,590,l),
(431,288,l),
(235,288,l)
);
},
{
closed = 1;
nodes = (
(979,947,l),
(949,952,l),
(856,838,l),
(764,952,l),
(734,947,l),
(838,752,l),
(875,752,l,{
name = hr00;
})
);
}
);
};
layerId = master01;
shapes = (
{
ref = A;
},
{
pos = (347,0);
ref = caroncomb.case;
}
);
width = 694;
}
);
unicode = 461;
},
{
glyphname = Acircumflex;
lastChange = "2022-08-04 15:51:48 +0000";
layers = (
{
background = {
anchors = (
{
name = bottom;
pos = (347,0);
},
{
name = ogonek;
pos = (496,0);
},
{
name = top;
pos = (347,946);
}
);
shapes = (
{
closed = 1;
nodes = (
(55,-1,o),
(75,0,o),
(117,0,cs,{
name = hr01;
}),
(165,0,o),
(206,-1,o),
(250,-3,c,{
name = hr02;
}),
(253,26,l),
(189,39,o),
(167,48,o),
(167,64,c),
(221,242,l),
(447,242,l),
(502,64,l),
(502,48,o),
(483,39,o),
(414,26,c),
(417,-3,l),
(458,-1,o),
(507,0,o),
(558,0,cs,{
name = hr03;
}),
(606,0,o),
(647,-1,o),
(691,-3,c,{
name = hr04;
}),
(694,26,l),
(634,37,o),
(618,46,o),
(609,69,cs),
(376,694,l),
(292,684,l),
(93,75,ls),
(85,50,o),
(63,38,o),
(0,26,c),
(3,-3,l)
);
},
{
closed = 1;
nodes = (
(326,590,l),
(330,590,l),
(431,288,l),
(235,288,l)
);
},
{
closed = 1;
nodes = (
(234,752,l),
(264,747,l),
(346,851,l),
(429,747,l),
(459,752,l),
(365,946,l),
(328,946,l,{
name = hr00;
})
);
}
);
};
layerId = master01;
shapes = (
{
ref = A;
},
{
pos = (347,0);
ref = circumflexcomb.case;
}
);
width = 694;
}
);
unicode = 194;
},
{
glyphname = Adieresis;
lastChange = "2022-08-04 15:51:48 +0000";
layers = (
{
background = {
anchors = (
{
name = bottom;
pos = (347,0);
},
{
name = ogonek;
pos = (496,0);
},
{
name = top;
pos = (347,898);
}
);
shapes = (
{
closed = 1;
nodes = (
(55,-1,o),
(75,0,o),
(117,0,cs,{
name = hr01;
}),
(165,0,o),
(206,-1,o),
(250,-3,c,{
name = hr02;
}),
(253,26,l),
(189,39,o),
(167,48,o),
(167,64,c),
(221,242,l),
(447,242,l),
(502,64,l),
(502,48,o),
(483,39,o),
(414,26,c),
(417,-3,l),
(458,-1,o),
(507,0,o),
(558,0,cs,{
name = hr03;
}),
(606,0,o),
(647,-1,o),
(691,-3,c,{
name = hr04;
}),
(694,26,l),
(634,37,o),
(618,46,o),
(609,69,cs),
(376,694,l),
(292,684,l),
(93,75,ls),
(85,50,o),
(63,38,o),
(0,26,c),
(3,-3,l)
);
},
{
closed = 1;
nodes = (
(326,590,l),
(330,590,l),
(431,288,l),
(235,288,l)
);
},
{
closed = 1;
nodes = (
(466,792,o),
(489,815,o),
(489,846,cs),
(489,875,o),
(466,898,o),
(437,898,cs),
(408,898,o),
(385,875,o),
(385,846,cs),
(385,815,o),
(408,792,o),
(437,792,cs,{
name = hr00;
})
);
},
{
closed = 1;
nodes = (
(286,792,o),
(309,815,o),
(309,846,cs),
(309,875,o),
(286,898,o),
(257,898,cs),
(228,898,o),
(205,875,o),
(205,846,cs),
(205,815,o),
(228,792,o),
(257,792,cs)
);
}
);
};
layerId = master01;
shapes = (
{
ref = A;
},
{
pos = (347,0);
ref = dieresiscomb.case;
}
);
width = 694;
}
);
unicode = 196;
},
{
glyphname = Agrave;
lastChange = "2022-08-04 15:51:48 +0000";
layers = (
{
background = {
anchors = (
{
name = bottom;
pos = (347,0);
},
{
name = ogonek;
pos = (496,0);
},
{
name = top;
pos = (291,951);
}
);
shapes = (
{
closed = 1;
nodes = (
(55,-1,o),
(75,0,o),
(117,0,cs,{
name = hr01;
}),
(165,0,o),
(206,-1,o),
(250,-3,c,{
name = hr02;
}),
(253,26,l),
(189,39,o),
(167,48,o),
(167,64,c),
(221,242,l),
(447,242,l),
(502,64,l),
(502,48,o),
(483,39,o),
(414,26,c),
(417,-3,l),
(458,-1,o),
(507,0,o),
(558,0,cs,{
name = hr03;
}),
(606,0,o),
(647,-1,o),
(691,-3,c,{
name = hr04;
}),
(694,26,l),
(634,37,o),
(618,46,o),
(609,69,cs),
(376,694,l),
(292,684,l),
(93,75,ls),
(85,50,o),
(63,38,o),
(0,26,c),
(3,-3,l)
);
},
{
closed = 1;
nodes = (
(326,590,l),
(330,590,l),
(431,288,l),
(235,288,l)
);
},
{
closed = 1;
nodes = (
(392,752,l),
(258,951,l),
(225,951,o),
(192,932,o),
(189,909,c),
(362,747,l,{
name = hr00;
})
);
}
);
};
layerId = master01;
shapes = (
{
ref = A;
},
{
pos = (347,0);
ref = gravecomb.case;
}
);
width = 694;
}
);
unicode = 192;
},
{
glyphname = Amacron;
lastChange = "2022-08-04 15:51:48 +0000";
layers = (
{
background = {
anchors = (
{
name = bottom;
pos = (347,0);
},
{
name = ogonek;
pos = (496,0);
},
{
name = top;
pos = (344,866);
}
);
shapes = (
{
closed = 1;
nodes = (
(55,-1,o),
(75,0,o),
(117,0,cs,{
name = hr01;
}),
(165,0,o),
(206,-1,o),
(250,-3,c,{
name = hr02;
}),
(253,26,l),
(189,39,o),
(167,48,o),
(167,64,c),
(221,242,l),
(447,242,l),
(502,64,l),
(502,48,o),
(483,39,o),
(414,26,c),
(417,-3,l),
(458,-1,o),
(507,0,o),
(558,0,cs,{
name = hr03;
}),
(606,0,o),
(647,-1,o),
(691,-3,c,{
name = hr04;
}),
(694,26,l),
(634,37,o),
(618,46,o),
(609,69,cs),
(376,694,l),
(292,684,l),
(93,75,ls),
(85,50,o),
(63,38,o),
(0,26,c),
(3,-3,l)
);
},
{
closed = 1;
nodes = (
(326,590,l),
(330,590,l),
(431,288,l),
(235,288,l)
);
},
{
closed = 1;
nodes = (
(497,865,l),
(455,862,o),
(413,861,o),
(371,861,cs),
(321,861,o),
(272,863,o),
(222,866,c,{
name = hr01;
}),
(183,820,l),
(191,804,l),
(237,807,o),
(283,808,o),
(328,808,cs,{
name = hr02;
}),
(374,808,o),
(420,807,o),
(466,804,c,{
name = hr03;
}),
(505,850,l)
);
}
);
};
layerId = master01;
shapes = (
{
ref = A;
},
{
pos = (347,0);
ref = macroncomb.case;
}
);
width = 694;
}
);
unicode = 256;
},
{
glyphname = Aogonek;
lastChange = "2022-08-04 15:51:48 +0000";
layers = (
{
background = {
anchors = (
{
name = bottom;
pos = (347,0);
},
{
name = ogonek;
pos = (496,0);
},
{
name = top;
pos = (347,691);
}
);
shapes = (
{
closed = 1;
nodes = (
(55,-1,o),
(75,0,o),
(117,0,cs,{
name = hr01;
}),
(165,0,o),
(206,-1,o),
(250,-3,c,{
name = hr02;
}),
(253,26,l),
(189,39,o),
(167,48,o),
(167,64,c),
(221,242,l),
(447,242,l),
(502,64,l),
(502,48,o),
(483,39,o),
(414,26,c),
(417,-3,l),
(458,-1,o),
(507,0,o),
(558,0,cs,{
name = hr03;
}),
(606,0,o),
(647,-1,o),
(691,-3,c,{
name = hr04;
}),
(694,26,l),
(634,37,o),
(618,46,o),
(609,69,cs),
(376,694,l),
(292,684,l),
(93,75,ls),
(85,50,o),
(63,38,o),
(0,26,c),
(3,-3,l)
);
},
{
closed = 1;
nodes = (
(326,590,l),
(330,590,l),
(431,288,l),
(235,288,l)
);
},
{
closed = 1;
nodes = (
(503,-150,o),
(488,-153,o),
(475,-153,cs),
(443,-153,o),
(419,-136,o),
(419,-97,cs),
(419,-66,o),
(435,-21,o),
(496,0,c),
(496,26,l),
(400,2,o),
(354,-69,o),
(354,-126,cs),
(354,-169,o),
(381,-203,o),
(437,-203,cs),
(466,-203,o),
(498,-193,o),
(524,-176,c),
(518,-144,l,{
name = hr00;
})
);
}
);
};
layerId = master01;
shapes = (
{
ref = A;
},
{
pos = (304,0);
ref = ogonekcomb;
}
);
width = 694;
}
);
unicode = 260;
},
{
glyphname = Aring;
lastChange = "2022-08-04 15:51:48 +0000";
layers = (
{
background = {
anchors = (
{
name = bottom;
pos = (347,0);
},
{
name = ogonek;
pos = (496,0);
},
{
name = top;
pos = (347,953);
}
);
shapes = (
{
closed = 1;
nodes = (
(55,-1,o),
(75,0,o),
(117,0,cs,{
name = hr01;
}),
(165,0,o),
(206,-1,o),
(250,-3,c,{
name = hr02;
}),
(253,26,l),
(189,39,o),
(167,48,o),
(167,64,c),
(221,242,l),
(447,242,l),
(502,64,l),
(502,48,o),
(483,39,o),
(414,26,c),
(417,-3,l),
(458,-1,o),
(507,0,o),
(558,0,cs,{
name = hr03;
}),
(606,0,o),
(647,-1,o),
(691,-3,c,{
name = hr04;
}),
(694,26,l),
(634,37,o),
(618,46,o),
(609,69,cs),
(376,694,l),
(292,684,l),
(93,75,ls),
(85,50,o),
(63,38,o),
(0,26,c),
(3,-3,l)
);
},
{
closed = 1;
nodes = (
(326,590,l),
(330,590,l),
(431,288,l),
(235,288,l)
);
},
{
closed = 1;
nodes = (
(382,923,o),
(395,885,o),
(395,844,cs),
(395,790,o),
(373,774,o),
(346,774,cs),
(309,774,o),
(294,813,o),
(294,853,cs),
(294,907,o),
(317,923,o),
(344,923,cs,{
name = hr00;
})
);
},
{
closed = 1;
nodes = (
(242,790,o),
(289,744,o),
(347,744,cs),
(405,744,o),
(451,790,o),
(451,848,cs),
(451,906,o),
(405,953,o),
(347,953,cs),
(289,953,o),
(242,906,o),
(242,848,cs)
);
}
);
};
layerId = master01;
shapes = (
{
ref = A;
},
{
pos = (347,0);
ref = ringcomb.case;
}
);
width = 694;
}
);
unicode = 197;
},
{
glyphname = Aringacute;
lastChange = "2022-08-04 15:51:48 +0000";
layers = (
{
background = {
anchors = (
{
name = bottom;
pos = (347,0);
},
{
name = ogonek;
pos = (496,0);
},
{
name = top;
pos = (335,880);
}
);
shapes = (
{
closed = 1;
nodes = (
(448,1058,o),
(415,1077,o),
(382,1077,c),
(261,897,l),
(291,892,l),
(451,1035,l,{
name = hr00;
})
);
},
{
closed = 1;
nodes = (
(55,-1,o),
(75,0,o),
(117,0,cs,{
name = hr01;
}),
(165,0,o),
(206,-1,o),
(250,-3,c,{
name = hr02;
}),
(253,26,l),
(189,39,o),
(167,48,o),
(167,64,c),
(221,242,l),
(447,242,l),
(502,64,l),
(502,48,o),
(483,39,o),
(414,26,c),
(417,-3,l),
(458,-1,o),
(507,0,o),
(558,0,cs,{
name = hr03;
}),
(606,0,o),
(647,-1,o),
(691,-3,c,{
name = hr04;
}),
(694,26,l),
(634,37,o),
(618,46,o),
(609,69,cs),
(376,694,l),
(292,684,l),
(93,75,ls),
(85,50,o),
(63,38,o),
(0,26,c),
(3,-3,l)
);
},
{
closed = 1;
nodes = (
(326,590,l),
(330,590,l),
(431,288,l),
(235,288,l)
);
},
{
closed = 1;
nodes = (
(370,850,o),
(383,812,o),
(383,771,cs),
(383,717,o),
(361,701,o),
(334,701,cs),
(297,701,o),
(282,740,o),
(282,780,cs),
(282,834,o),
(305,850,o),
(332,850,cs,{
name = hr00;
})
);
},
{
closed = 1;
nodes = (
(230,717,o),
(277,671,o),
(335,671,cs),
(393,671,o),
(439,717,o),
(439,775,cs),
(439,833,o),
(393,880,o),
(335,880,cs),
(277,880,o),
(230,833,o),
(230,775,cs)
);
}
);
};
layerId = master01;
shapes = (
{
ref = A;
},
{
alignment = -1;
pos = (335,-73);
ref = ringcomb.case;
},
{
closed = 1;
nodes = (
(448,1058,o),
(415,1077,o),
(382,1077,c),
(261,897,l),
(291,892,l),
(451,1035,l,{
name = hr00;
})
);
}
);
width = 694;
}
);
unicode = 506;
},
{
glyphname = Atilde;
lastChange = "2022-08-04 15:52:11 +0000";
layers = (
{
background = {
anchors = (
{
name = bottom;
pos = (347,0);
},
{
name = ogonek;
pos = (496,0);
},
{
name = top;
pos = (347,894);
}
);
shapes = (
{
closed = 1;
nodes = (
(55,-1,o),
(75,0,o),
(117,0,cs,{
name = hr01;
}),
(165,0,o),
(206,-1,o),
(250,-3,c,{
name = hr02;
}),
(253,26,l),
(189,39,o),
(167,48,o),
(167,64,c),
(221,242,l),
(447,242,l),
(502,64,l),
(502,48,o),
(483,39,o),
(414,26,c),
(417,-3,l),
(458,-1,o),
(507,0,o),
(558,0,cs,{
name = hr03;
}),
(606,0,o),
(647,-1,o),
(691,-3,c,{
name = hr04;
}),
(694,26,l),
(634,37,o),
(618,46,o),
(609,69,cs),
(376,694,l),
(292,684,l),
(93,75,ls),
(85,50,o),
(63,38,o),
(0,26,c),
(3,-3,l)
);
},
{
closed = 1;
nodes = (
(326,590,l),
(330,590,l),
(431,288,l),
(235,288,l)
);
},
{
closed = 1;
nodes = (
(392,764,o),
(253,1026,o),
(183,793,c),
(209,785,l),
(302,914,o),
(441,652,o),
(511,885,c),
(485,893,l)
);
}
);
};
layerId = master01;
shapes = (
{
ref = A;
},
{
pos = (347,0);
ref = tildecomb.case;
}
);
width = 694;
}
);
unicode = 195;
},
{
glyphname = AE;
lastChange = "2022-08-04 15:53:06 +0000";
layers = (
{
anchors = (
{
name = bottom;
pos = (484,0);
},
{
name = top;
pos = (613,691);
}
);
background = {
shapes = (
{
closed = 1;
nodes = (
(472,44,o),
(446,38,o),
(386,26,c),
(389,-3,l),
(431,-1,o),
(459,0,o),
(509,0,cs,{
name = hr01;
}),
(909,0,l),
(911,36,o),
(921,123,o),
(933,159,c),
(906,171,l),
(865,43,o),
(789,36,o),
(686,36,cs),
(643,36,o),
(592,44,o),
(585,68,c),
(585,68,o),
(574,121,o),
(574,327,c),
(637,327,o),
(709,325,o),
(734,319,cs),
(759,313,o),
(764,298,o),
(777,231,c),
(812,236,l),
(807,273,o),
(804,310,o),
(804,348,cs),
(804,385,o),
(807,423,o),
(812,459,c),
(777,463,l),
(764,396,o),
(759,381,o),
(734,375,cs),
(709,369,o),
(637,367,o),
(574,367,c),
(575,556,o),
(585,621,o),
(585,621,c),
(588,641,o),
(608,644,o),
(637,644,cs),
(800,644,o),
(837,642,o),
(875,517,c),
(902,529,l),
(896,565,o),
(890,634,o),
(890,680,cs),
(890,691,l,{
name = hr02;
}),
(818,688,o),
(702,685,o),
(588,685,cs,{
name = hr03;
}),
(371,685,l),
(90,75,ls),
(79,50,o),
(60,38,o),
(0,26,c),
(3,-3,l),
(45,-1,o),
(68,0,o),
(118,0,cs,{
name = hr04;
}),
(168,0,o),
(209,-1,o),
(251,-3,c,{
name = hr05;
}),
(254,26,l),
(198,37,o),
(170,46,o),
(163,63,c),
(163,78,o),
(219,193,o),
(277,327,c),
(484,327,l),
(483,125,o),
(475,69,o),
(475,69,c)
);
},
{
closed = 1;
nodes = (
(459,646,o),
(476,641,o),
(479,616,c),
(479,616,o),
(483,560,o),
(484,367,c),
(295,367,l),
(420,646,l)
);
}
);
};
layerId = master01;
shapes = (
{
closed = 1;
nodes = (
(472,44,o),
(446,38,o),
(386,26,c),
(389,-3,l),
(431,-1,o),
(459,0,o),
(509,0,cs,{
name = hr01;
}),
(909,0,l),
(911,36,o),
(921,123,o),
(933,159,c),
(906,171,l),
(865,43,o),
(789,36,o),
(686,36,cs),
(643,36,o),
(592,44,o),
(585,68,c),
(585,68,o),
(574,121,o),
(574,327,c),
(637,327,o),
(709,325,o),
(734,319,cs),
(759,313,o),
(764,298,o),
(777,231,c),
(812,236,l),
(807,273,o),
(804,310,o),
(804,348,cs),
(804,385,o),
(807,423,o),
(812,459,c),
(777,463,l),
(764,396,o),
(759,381,o),
(734,375,cs),
(709,369,o),
(637,367,o),
(574,367,c),
(575,556,o),
(585,621,o),
(585,621,c),
(588,641,o),
(608,644,o),
(637,644,cs),
(800,644,o),
(837,642,o),
(875,517,c),
(902,529,l),
(896,565,o),
(890,634,o),
(890,680,cs),
(890,691,l,{
name = hr02;
}),
(818,688,o),
(702,685,o),
(588,685,cs,{
name = hr03;
}),
(371,685,l),
(90,75,ls),
(79,50,o),
(60,38,o),
(0,26,c),
(3,-3,l),
(45,-1,o),
(68,0,o),
(118,0,cs,{
name = hr04;
}),
(168,0,o),
(209,-1,o),
(251,-3,c,{
name = hr05;
}),
(254,26,l),
(198,37,o),
(170,46,o),
(163,63,c),
(163,78,o),
(219,193,o),
(277,327,c),
(484,327,l),
(483,125,o),
(475,69,o),
(475,69,c)
);
},
{
closed = 1;
nodes = (
(459,646,o),
(476,641,o),
(479,616,c),
(479,616,o),
(483,560,o),
(484,367,c),
(295,367,l),
(420,646,l)
);
}
);
width = 967;
}
);
unicode = 198;
},
{
glyphname = AEacute;
lastChange = "2022-08-04 15:53:06 +0000";
layers = (
{
background = {
anchors = (
{
name = bottom;
pos = (484,0);
},
{
name = top;
pos = (644,954);
}
);
shapes = (
{
closed = 1;
nodes = (
(472,44,o),
(446,38,o),
(386,26,c),
(389,-3,l),
(431,-1,o),
(459,0,o),
(509,0,cs,{
name = hr01;
}),
(909,0,l),
(911,36,o),
(921,123,o),
(933,159,c),
(906,171,l),
(865,43,o),
(789,36,o),
(686,36,cs),
(643,36,o),
(592,44,o),
(585,68,c),
(585,68,o),
(574,121,o),
(574,327,c),
(637,327,o),
(709,325,o),
(734,319,cs),
(759,313,o),
(764,298,o),
(777,231,c),
(812,236,l),
(807,273,o),
(804,310,o),
(804,348,cs),
(804,385,o),
(807,423,o),
(812,459,c),
(777,463,l),
(764,396,o),
(759,381,o),
(734,375,cs),
(709,369,o),
(637,367,o),
(574,367,c),
(575,556,o),
(585,621,o),
(585,621,c),
(588,641,o),
(608,644,o),
(637,644,cs),
(800,644,o),
(837,642,o),
(875,517,c),
(902,529,l),
(896,565,o),
(890,634,o),
(890,680,cs),
(890,691,l,{
name = hr02;
}),
(818,688,o),
(702,685,o),
(588,685,cs,{
name = hr03;
}),
(371,685,l),
(90,75,ls),
(79,50,o),
(60,38,o),
(0,26,c),
(3,-3,l),
(45,-1,o),
(68,0,o),
(118,0,cs,{
name = hr04;
}),
(168,0,o),
(209,-1,o),
(251,-3,c,{
name = hr05;
}),
(254,26,l),
(198,37,o),
(170,46,o),
(163,63,c),
(163,78,o),
(219,193,o),
(277,327,c),
(484,327,l),
(483,125,o),
(475,69,o),
(475,69,c)
);
},
{
closed = 1;
nodes = (
(459,646,o),
(476,641,o),
(479,616,c),
(479,616,o),
(483,560,o),
(484,367,c),
(295,367,l),
(420,646,l)
);
},
{
closed = 1;
nodes = (
(742,935,o),
(709,954,o),
(676,954,c),
(542,755,l),
(572,750,l),
(745,912,l,{
name = hr00;
})
);
}
);
};
guides = (
{
pos = (572,750);
}
);
layerId = master01;
shapes = (
{
ref = AE;
},
{
pos = (613,0);
ref = acutecomb.case;
}
);
width = 967;
}
);
unicode = 508;
},
{
glyphname = B;
lastChange = "2022-08-04 15:46:42 +0000";
layers = (
{
anchors = (
{
name = bottom;
pos = (313,0);
},
{
name = center;
pos = (313,346);
},
{
name = top;
pos = (313,691);
}
);
background = {
shapes = (
{
closed = 1;
nodes = (
(73,-1,o),
(122,0,o),
(173,0,cs,{
name = hr01;
}),
(357,0,ls),
(479,0,o),
(577,87,o),
(577,194,cs),
(577,292,o),
(530,348,o),
(428,372,c),
(492,404,o),
(533,463,o),
(533,525,cs),
(533,622,o),
(457,685,o),
(341,685,cs),
(173,685,ls),
(124,685,o),
(82,686,o),
(39,688,c,{
name = hr02;
}),
(36,659,l),
(102,645,o),
(115,639,o),
(118,616,c),
(118,616,o),
(126,557,o),
(126,342,cs),
(126,221,o),
(122,100,o),
(118,69,cs),
(115,47,o),
(100,40,o),
(29,26,c),
(32,-3,l)
);
},
{
closed = 1;
nodes = (
(271,36,o),
(232,48,o),
(226,68,cs),
(221,86,o),
(215,206,o),
(215,335,c),
(237,337,o),
(258,338,o),
(278,338,cs),
(412,338,o),
(482,288,o),
(482,193,cs),
(482,102,o),
(417,36,o),
(327,36,c,{
name = hr03;
})
);
},
{
closed = 1;
nodes = (
(215,488,o),
(221,599,o),
(226,621,cs),
(231,640,o),
(239,643,o),
(287,643,cs),
(386,643,o),
(439,602,o),
(439,525,cs),
(439,460,o),
(414,412,o),
(364,380,c),
(335,380,o),
(240,372,o),
(215,368,c)
);
}
);
};
layerId = master01;
shapes = (
{
closed = 1;
nodes = (
(73,-1,o),
(122,0,o),
(173,0,cs,{
name = hr01;
}),
(357,0,ls),
(479,0,o),
(577,87,o),
(577,194,cs),
(577,292,o),
(530,348,o),
(428,372,c),
(492,404,o),
(533,463,o),
(533,525,cs),
(533,622,o),
(457,685,o),
(341,685,cs),
(173,685,ls),
(124,685,o),
(82,686,o),
(39,688,c,{
name = hr02;
}),
(36,659,l),
(102,645,o),
(115,639,o),
(118,616,c),
(118,616,o),
(126,557,o),
(126,342,cs),
(126,221,o),
(122,100,o),
(118,69,cs),
(115,47,o),
(100,40,o),
(29,26,c),
(32,-3,l)
);
},
{
closed = 1;
nodes = (
(271,36,o),
(232,48,o),
(226,68,cs),
(221,86,o),
(215,206,o),
(215,335,c),
(237,337,o),
(258,338,o),
(278,338,cs),
(412,338,o),
(482,288,o),
(482,193,cs),
(482,102,o),
(417,36,o),
(327,36,cs,{
name = hr03;
})
);
},
{
closed = 1;
nodes = (
(215,488,o),
(221,599,o),
(226,621,cs),
(231,640,o),
(239,643,o),
(287,643,cs),
(386,643,o),
(439,602,o),
(439,525,cs),
(439,460,o),
(414,412,o),
(364,380,c),
(335,380,o),
(240,372,o),
(215,368,c)
);
}
);
width = 626;
}
);
unicode = 66;
},
{
glyphname = C;
lastChange = "2022-08-04 15:53:56 +0000";
layers = (
{
anchors = (
{
name = bottom;
pos = (348,0);
},
{
name = top;
pos = (419,691);
}
);
background = {
shapes = (
{
closed = 1;
nodes = (
(480,-12,o),
(563,4,o),
(645,34,c),
(647,74,o),
(656,125,o),
(668,168,c),
(641,180,l),
(612,89,o),
(527,37,o),
(407,37,cs),
(255,37,o),
(153,163,o),
(153,351,cs),
(153,530,o),
(252,648,o),
(402,648,cs),
(513,648,o),
(587,602,o),
(614,517,c),
(641,529,l),
(634,570,o),
(629,637,o),
(629,685,c),
(612,681,o),
(596,679,o),
(577,679,cs),
(535,679,o),
(486,694,o),
(403,694,cs,{
name = hr01;
}),
(194,694,o),
(48,546,o),
(48,334,cs),
(48,117,o),
(180,-12,o),
(404,-12,c)
);
}
);
};
layerId = master01;
shapes = (
{
closed = 1;
nodes = (
(480,-12,o),
(563,4,o),
(645,34,c),
(647,74,o),
(656,125,o),
(668,168,c),
(641,180,l),
(612,89,o),
(527,37,o),
(407,37,cs),
(255,37,o),
(153,163,o),
(153,351,cs),
(153,530,o),
(252,648,o),
(402,648,cs),
(513,648,o),
(587,602,o),
(614,517,c),
(641,529,l),
(634,570,o),
(629,637,o),
(629,685,c),
(612,681,o),
(596,679,o),
(577,679,cs),
(535,679,o),
(486,694,o),
(403,694,cs,{
name = hr01;
}),
(194,694,o),
(48,546,o),
(48,334,cs),
(48,117,o),
(180,-12,o),
(404,-12,cs)
);
}
);
width = 700;
}
);
unicode = 67;
},
{
glyphname = Cacute;
lastChange = "2022-08-04 15:53:20 +0000";
layers = (
{
background = {
anchors = (
{
name = bottom;
pos = (350,0);
},
{
name = top;
pos = (451,954);
}
);
shapes = (
{
closed = 1;
nodes = (
(480,-12,o),
(563,4,o),
(645,34,c),
(647,74,o),
(656,125,o),
(668,168,c),
(641,180,l),
(612,89,o),
(527,37,o),
(407,37,cs),
(255,37,o),
(153,163,o),
(153,351,cs),
(153,530,o),
(252,648,o),
(402,648,cs),
(513,648,o),
(587,602,o),
(614,517,c),
(641,529,l),
(634,570,o),
(629,637,o),
(629,685,c),
(612,681,o),
(596,679,o),
(577,679,cs),
(535,679,o),
(486,694,o),
(403,694,cs,{
name = hr01;
}),
(194,694,o),
(48,546,o),
(48,334,cs),
(48,117,o),
(180,-12,o),
(404,-12,cs)
);
},
{
closed = 1;
nodes = (
(549,935,o),
(516,954,o),
(483,954,c),
(349,755,l),
(379,750,l),
(552,912,l,{
name = hr00;
})
);
}
);
};
layerId = master01;
shapes = (
{
ref = C;
},
{
pos = (419,0);
ref = acutecomb.case;
}
);
width = 700;
}
);
unicode = 262;
},
{
glyphname = Ccaron;
lastChange = "2022-08-04 15:53:44 +0000";
layers = (
{
background = {
anchors = (
{
name = bottom;
pos = (350,0);
},
{
name = top;
pos = (409,954);
}
);
shapes = (
{
closed = 1;
nodes = (
(480,-12,o),
(563,4,o),
(645,34,c),
(647,74,o),
(656,125,o),
(668,168,c),
(641,180,l),
(612,89,o),
(527,37,o),
(407,37,cs),
(255,37,o),
(153,163,o),
(153,351,cs),
(153,530,o),
(252,648,o),
(402,648,cs),
(513,648,o),
(587,602,o),
(614,517,c),
(641,529,l),
(634,570,o),
(629,637,o),
(629,685,c),
(612,681,o),
(596,679,o),
(577,679,cs),
(535,679,o),
(486,694,o),
(403,694,cs,{
name = hr01;
}),
(194,694,o),
(48,546,o),
(48,334,cs),
(48,117,o),
(180,-12,o),
(404,-12,cs)
);
},
{
closed = 1;
nodes = (
(531,949,l),
(501,954,l),
(408,840,l),
(316,954,l),
(286,949,l),
(390,754,l),
(427,754,l,{
name = hr00;
})
);
}
);
};
layerId = master01;
shapes = (
{
ref = C;
},
{
pos = (419,0);
ref = caroncomb.case;
}
);
width = 700;
}
);
unicode = 268;
},
{
glyphname = Ccedilla;
lastChange = "2022-08-04 15:53:56 +0000";
layers = (
{
background = {
anchors = (
{
name = bottom;
pos = (348,-259);
},
{
name = top;
pos = (350,691);
}
);
shapes = (
{
closed = 1;
nodes = (
(480,-12,o),
(563,4,o),
(645,34,c),
(647,74,o),
(656,125,o),
(668,168,c),
(641,180,l),
(612,89,o),
(527,37,o),
(407,37,cs),
(255,37,o),
(153,163,o),
(153,351,cs),
(153,530,o),
(252,648,o),
(402,648,cs),
(513,648,o),
(587,602,o),
(614,517,c),
(641,529,l),
(634,570,o),
(629,637,o),
(629,685,c),
(612,681,o),
(596,679,o),
(577,679,cs),
(535,679,o),
(486,694,o),
(403,694,cs,{
name = hr01;
}),
(194,694,o),
(48,546,o),
(48,334,cs),
(48,117,o),
(180,-12,o),
(404,-12,cs)
);
},
{
closed = 1;
nodes = (
(322,-16,o),
(314,-37,o),
(314,-53,cs),
(314,-100,o),
(381,-112,o),
(381,-145,cs),
(381,-164,o),
(345,-177,o),
(284,-180,c),
(271,-191,o),
(261,-209,o),
(261,-226,cs),
(261,-238,o),
(266,-250,o),
(277,-259,c),
(384,-219,o),
(435,-170,o),
(435,-125,cs),
(435,-78,o),
(357,-57,o),
(357,-24,cs),
(357,-16,o),
(358,-8,o),
(370,11,c),
(344,11,l,{
name = hr00;
})
);
}
);
};
layerId = master01;
shapes = (
{
ref = C;
},
{
pos = (123,0);
ref = cedillacomb;
}
);
width = 700;
}
);
unicode = 199;
},
{
glyphname = Ccircumflex;
lastChange = "2022-08-04 15:53:20 +0000";
layers = (
{
background = {
anchors = (
{
name = bottom;
pos = (350,0);
},
{
name = top;
pos = (413,949);
}
);
shapes = (
{
closed = 1;
nodes = (
(480,-12,o),
(563,4,o),
(645,34,c),
(647,74,o),
(656,125,o),
(668,168,c),
(641,180,l),
(612,89,o),
(527,37,o),
(407,37,cs),
(255,37,o),
(153,163,o),
(153,351,cs),
(153,530,o),
(252,648,o),
(402,648,cs),
(513,648,o),
(587,602,o),
(614,517,c),
(641,529,l),
(634,570,o),
(629,637,o),
(629,685,c),
(612,681,o),
(596,679,o),
(577,679,cs),
(535,679,o),
(486,694,o),
(403,694,cs,{
name = hr01;
}),
(194,694,o),
(48,546,o),
(48,334,cs),
(48,117,o),
(180,-12,o),
(404,-12,cs)
);
},
{
closed = 1;
nodes = (
(300,755,l),
(330,750,l),
(412,854,l),
(495,750,l),
(525,755,l),
(431,949,l),
(394,949,l,{
name = hr00;
})
);
}
);
};
layerId = master01;
shapes = (
{
ref = C;
},
{
pos = (419,0);
ref = circumflexcomb.case;
}
);
width = 700;
}
);
unicode = 264;
},
{
glyphname = Cdotaccent;
lastChange = "2022-08-04 15:53:20 +0000";
layers = (
{
background = {
anchors = (
{
name = bottom;
pos = (350,0);
},
{
name = top;
pos = (414,901);
}
);
shapes = (
{
closed = 1;
nodes = (
(480,-12,o),
(563,4,o),
(645,34,c),
(647,74,o),
(656,125,o),
(668,168,c),
(641,180,l),
(612,89,o),
(527,37,o),
(407,37,cs),
(255,37,o),
(153,163,o),
(153,351,cs),
(153,530,o),
(252,648,o),
(402,648,cs),
(513,648,o),
(587,602,o),
(614,517,c),
(641,529,l),
(634,570,o),
(629,637,o),
(629,685,c),
(612,681,o),
(596,679,o),
(577,679,cs),
(535,679,o),
(486,694,o),
(403,694,cs,{
name = hr01;
}),
(194,694,o),
(48,546,o),
(48,334,cs),
(48,117,o),
(180,-12,o),
(404,-12,cs)
);
},
{
closed = 1;
nodes = (
(443,795,o),
(466,818,o),
(466,849,cs),
(466,878,o),
(443,901,o),
(414,901,cs),
(385,901,o),
(362,878,o),
(362,849,cs),
(362,818,o),
(385,795,o),
(414,795,cs,{
name = hr00;
})
);
}
);
};
layerId = master01;
shapes = (
{
ref = C;
},
{
pos = (284,0);
ref = dotaccentcomb.case;
}
);
width = 700;
}
);
unicode = 266;
},
{
glyphname = D;
lastChange = "2022-08-04 15:54:19 +0000";
layers = (
{
anchors = (
{
name = bottom;
pos = (385,0);
},
{
name = center;
pos = (385,346);
},
{
name = top;
pos = (356,691);
}
);
background = {
shapes = (
{
closed = 1;
nodes = (
(123,685,o),
(81,686,o),
(39,688,c,{
name = hr01;
}),
(36,659,l),
(96,647,o),
(115,641,o),
(118,616,c),
(118,616,o),
(126,557,o),
(126,342,cs),
(126,128,o),
(118,69,o),
(118,69,c),
(115,44,o),
(89,38,o),
(29,26,c),
(32,-3,l),
(74,-1,o),
(123,0,o),
(173,0,c,{
name = hr02;
}),
(334,0,ls),
(596,0,o),
(720,161,o),
(720,365,cs),
(720,599,o),
(528,685,o),
(351,685,c),
(173,685,l)
);
},
{
closed = 1;
nodes = (
(227,60,o),
(216,128,o),
(216,343,cs),
(216,557,o),
(227,622,o),
(227,622,c),
(231,639,o),
(240,643,o),
(289,643,c),
(565,643,o),
(615,483,o),
(615,350,cs),
(615,270,o),
(588,48,o),
(330,48,cs),
(293,48,o),
(263,52,o),
(227,60,c)
);
}
);
};
layerId = master01;
shapes = (
{
closed = 1;
nodes = (
(123,685,o),
(81,686,o),
(39,688,c,{
name = hr01;
}),
(36,659,l),
(96,647,o),
(115,641,o),
(118,616,c),
(118,616,o),
(126,557,o),
(126,342,cs),
(126,128,o),
(118,69,o),
(118,69,c),
(115,44,o),
(89,38,o),
(29,26,c),
(32,-3,l),
(74,-1,o),
(123,0,o),
(173,0,cs,{
name = hr02;
}),
(334,0,ls),
(596,0,o),
(720,161,o),
(720,365,cs),
(720,599,o),
(528,685,o),
(351,685,cs),
(173,685,ls)
);
},
{
closed = 1;
nodes = (
(227,60,o),
(216,128,o),
(216,343,cs),
(216,557,o),
(227,622,o),
(227,622,c),
(231,639,o),
(240,643,o),
(289,643,cs),
(565,643,o),
(615,483,o),
(615,350,cs),
(615,270,o),
(588,48,o),
(330,48,cs),
(293,48,o),
(263,52,o),
(227,60,c)
);
}
);
width = 769;
}
);
unicode = 68;
},
{
glyphname = Eth;
lastChange = "2022-08-04 15:51:48 +0000";
layers = (
{
background = {
anchors = (
{
name = bottom;
pos = (385,0);
},
{
name = center;
pos = (385,346);
},
{
name = top;
pos = (385,691);
}
);
shapes = (
{
closed = 1;
nodes = (
(420,369,l),
(38,369,l),
(38,316,l),
(420,315,l,{
name = hr00;
})
);
},
{
closed = 1;
nodes = (
(123,685,o),
(81,686,o),
(39,688,c,{
name = hr01;
}),
(36,659,l),
(96,647,o),
(115,641,o),
(118,616,c),
(118,616,o),
(126,557,o),
(126,342,cs),
(126,128,o),
(118,69,o),
(118,69,c),
(115,44,o),
(89,38,o),
(29,26,c),
(32,-3,l),
(74,-1,o),
(123,0,o),
(173,0,cs,{
name = hr02;
}),
(334,0,ls),
(596,0,o),
(720,161,o),
(720,365,cs),
(720,599,o),
(528,685,o),
(351,685,cs),
(173,685,ls)
);
},
{
closed = 1;
nodes = (
(227,60,o),
(216,128,o),
(216,343,cs),
(216,557,o),
(227,622,o),
(227,622,c),
(231,639,o),
(240,643,o),
(289,643,cs),
(565,643,o),
(615,483,o),
(615,350,cs),
(615,270,o),
(588,48,o),
(330,48,cs),
(293,48,o),
(263,52,o),
(227,60,c)
);
}
);
};
layerId = master01;
shapes = (
{
closed = 1;
nodes = (
(420,369,l),
(38,369,l),
(38,316,l),
(420,315,l,{
name = hr00;
})
);
},
{
ref = D;
}
);
width = 769;
}
);
unicode = 208;
},
{
glyphname = Dcaron;
lastChange = "2022-08-04 15:54:19 +0000";
layers = (
{
background = {
anchors = (
{
name = bottom;
pos = (385,0);
},
{
name = center;
pos = (385,346);
},
{
name = top;
pos = (356,954);
}
);
shapes = (
{
closed = 1;
nodes = (
(123,685,o),
(81,686,o),
(39,688,c,{
name = hr01;
}),
(36,659,l),
(96,647,o),
(115,641,o),
(118,616,c),
(118,616,o),
(126,557,o),
(126,342,cs),
(126,128,o),
(118,69,o),
(118,69,c),
(115,44,o),
(89,38,o),
(29,26,c),
(32,-3,l),
(74,-1,o),
(123,0,o),
(173,0,cs,{
name = hr02;
}),
(334,0,ls),
(596,0,o),
(720,161,o),
(720,365,cs),
(720,599,o),
(528,685,o),
(351,685,cs),
(173,685,ls)
);
},
{
closed = 1;
nodes = (
(227,60,o),
(216,128,o),
(216,343,cs),
(216,557,o),
(227,622,o),
(227,622,c),
(231,639,o),
(240,643,o),
(289,643,cs),
(565,643,o),
(615,483,o),
(615,350,cs),
(615,270,o),
(588,48,o),
(330,48,cs),
(293,48,o),
(263,52,o),
(227,60,c)
);
},
{
closed = 1;
nodes = (
(478,949,l),
(448,954,l),
(355,840,l),
(263,954,l),
(233,949,l),
(337,754,l),
(374,754,l,{
name = hr00;
})
);
}
);
};
layerId = master01;
shapes = (
{
ref = D;
},
{
pos = (356,0);
ref = caroncomb.case;
}
);
width = 769;
}
);
unicode = 270;
},
{
glyphname = Dcroat;
lastChange = "2022-08-04 15:51:48 +0000";
layers = (
{
background = {
anchors = (
{
name = bottom;
pos = (385,0);
},
{
name = center;
pos = (385,346);
},
{
name = top;
pos = (385,691);
}
);
shapes = (
{
closed = 1;
nodes = (
(420,369,l),
(38,369,l),
(38,316,l),
(420,315,l,{
name = hr00;
})
);
},
{
closed = 1;
nodes = (
(123,685,o),
(81,686,o),
(39,688,c,{
name = hr01;
}),
(36,659,l),
(96,647,o),
(115,641,o),
(118,616,c),
(118,616,o),
(126,557,o),
(126,342,cs),
(126,128,o),
(118,69,o),
(118,69,c),
(115,44,o),
(89,38,o),
(29,26,c),
(32,-3,l),
(74,-1,o),
(123,0,o),
(173,0,cs,{
name = hr02;
}),
(334,0,ls),
(596,0,o),
(720,161,o),
(720,365,cs),
(720,599,o),
(528,685,o),
(351,685,cs),
(173,685,ls)
);
},
{
closed = 1;
nodes = (
(227,60,o),
(216,128,o),
(216,343,cs),
(216,557,o),
(227,622,o),
(227,622,c),
(231,639,o),
(240,643,o),
(289,643,cs),
(565,643,o),
(615,483,o),
(615,350,cs),
(615,270,o),
(588,48,o),
(330,48,cs),
(293,48,o),
(263,52,o),
(227,60,c)
);
}
);
};
layerId = master01;
shapes = (
{
ref = Eth;
}
);
width = 769;
}
);
unicode = 272;
},
{
glyphname = E;
lastChange = "2022-08-04 15:55:10 +0000";
layers = (
{
anchors = (
{
name = bottom;
pos = (304,0);
},
{
name = ogonek;
pos = (404,0);
},
{
name = top;
pos = (304,691);
},
{
name = topleft;
pos = (20,691);
}
);
background = {
shapes = (
{
closed = 1;
nodes = (
(448,273,o),
(445,310,o),
(445,348,cs),
(445,385,o),
(448,423,o),
(453,459,c),
(418,463,l),
(405,396,o),
(400,381,o),
(375,375,cs),
(350,369,o),
(278,367,o),
(215,367,c),
(216,556,o),
(226,621,o),
(226,621,c),
(230,642,o),
(270,643,o),
(318,643,cs),
(447,643,o),
(481,630,o),
(516,517,c),
(543,529,l),
(537,563,o),
(531,634,o),
(531,676,c),
(531,691,l,{
name = hr01;
}),
(449,685,o),
(280,685,o),
(151,685,cs,{
name = hr02;
}),
(101,685,o),
(80,686,o),
(38,688,c),
(35,659,l),
(95,647,o),
(114,641,o),
(117,616,c),
(117,616,o),
(125,557,o),
(125,342,cs),
(125,127,o),
(116,69,o),
(116,69,c),
(113,44,o),
(87,38,o),
(27,26,c),
(30,-3,l),
(72,-1,o),
(100,0,o),
(150,0,cs,{
name = hr03;
}),
(550,0,l),
(552,36,o),
(562,123,o),
(574,159,c),
(547,171,l),
(506,43,o),
(430,36,o),
(327,36,cs),
(284,36,o),
(233,44,o),
(226,68,c),
(226,68,o),
(215,121,o),
(215,327,c),
(278,327,o),
(350,325,o),
(375,319,cs),
(400,313,o),
(405,298,o),
(418,231,c),
(453,236,l)
);
}
);
};
layerId = master01;
shapes = (
{
closed = 1;
nodes = (
(448,273,o),
(445,310,o),
(445,348,cs),
(445,385,o),
(448,423,o),
(453,459,c),
(418,463,l),
(405,396,o),
(400,381,o),
(375,375,cs),
(350,369,o),
(278,367,o),
(215,367,c),
(216,556,o),
(226,621,o),
(226,621,c),
(230,642,o),
(270,643,o),
(318,643,cs),
(447,643,o),
(481,630,o),
(516,517,c),
(543,529,l),
(537,563,o),
(531,634,o),
(531,676,cs),
(531,691,l,{
name = hr01;
}),
(449,685,o),
(280,685,o),
(151,685,cs,{
name = hr02;
}),
(101,685,o),
(80,686,o),
(38,688,c),
(35,659,l),
(95,647,o),
(114,641,o),
(117,616,c),
(117,616,o),
(125,557,o),
(125,342,cs),
(125,127,o),
(116,69,o),
(116,69,c),
(113,44,o),
(87,38,o),
(27,26,c),
(30,-3,l),
(72,-1,o),
(100,0,o),
(150,0,cs,{
name = hr03;
}),
(550,0,l),
(552,36,o),
(562,123,o),
(574,159,c),
(547,171,l),
(506,43,o),
(430,36,o),
(327,36,cs),
(284,36,o),
(233,44,o),
(226,68,c),
(226,68,o),
(215,121,o),
(215,327,c),
(278,327,o),
(350,325,o),
(375,319,cs),
(400,313,o),
(405,298,o),
(418,231,c),
(453,236,l)
);
}
);
width = 608;
}
);
unicode = 69;
},
{
glyphname = Eacute;
lastChange = "2022-08-04 15:51:48 +0000";
layers = (
{
background = {
anchors = (
{
name = bottom;
pos = (304,0);
},
{
name = ogonek;
pos = (547,10);
},
{
name = top;
pos = (334,951);
},
{
name = topleft;
pos = (20,691);
}
);
shapes = (
{
closed = 1;
nodes = (
(448,273,o),
(445,310,o),
(445,348,cs),
(445,385,o),
(448,423,o),
(453,459,c),
(418,463,l),
(405,396,o),
(400,381,o),
(375,375,cs),
(350,369,o),
(278,367,o),
(215,367,c),
(216,556,o),
(226,621,o),
(226,621,c),
(230,642,o),
(270,643,o),
(318,643,cs),
(447,643,o),
(481,630,o),
(516,517,c),
(543,529,l),
(537,563,o),
(531,634,o),
(531,676,cs),
(531,691,l,{
name = hr01;
}),
(449,685,o),
(280,685,o),
(151,685,cs,{
name = hr02;
}),
(101,685,o),
(80,686,o),
(38,688,c),
(35,659,l),
(95,647,o),
(114,641,o),
(117,616,c),
(117,616,o),
(125,557,o),
(125,342,cs),
(125,127,o),
(116,69,o),
(116,69,c),
(113,44,o),
(87,38,o),
(27,26,c),
(30,-3,l),
(72,-1,o),
(100,0,o),
(150,0,cs,{
name = hr03;
}),
(550,0,l),
(552,36,o),
(562,123,o),
(574,159,c),
(547,171,l),
(506,43,o),
(430,36,o),
(327,36,cs),
(284,36,o),
(233,44,o),
(226,68,c),
(226,68,o),
(215,121,o),
(215,327,c),
(278,327,o),
(350,325,o),
(375,319,cs),
(400,313,o),
(405,298,o),
(418,231,c),
(453,236,l)
);
},
{
closed = 1;
nodes = (
(432,932,o),
(399,951,o),
(366,951,c),
(232,752,l),
(262,747,l),
(435,909,l,{
name = hr00;
})
);
}
);
};
layerId = master01;
shapes = (
{
ref = E;
},
{
pos = (304,0);
ref = acutecomb.case;
}
);
width = 608;
}
);
unicode = 201;
},
{
glyphname = Ebreve;
lastChange = "2022-08-04 15:51:48 +0000";
layers = (
{
background = {
anchors = (
{
name = bottom;
pos = (304,0);
},
{
name = ogonek;
pos = (547,10);
},
{
name = top;
pos = (304,896);
},
{
name = topleft;
pos = (20,691);
}
);
shapes = (
{
closed = 1;
nodes = (
(448,273,o),
(445,310,o),
(445,348,cs),
(445,385,o),
(448,423,o),
(453,459,c),
(418,463,l),
(405,396,o),
(400,381,o),
(375,375,cs),
(350,369,o),
(278,367,o),
(215,367,c),
(216,556,o),
(226,621,o),
(226,621,c),
(230,642,o),
(270,643,o),
(318,643,cs),
(447,643,o),
(481,630,o),
(516,517,c),
(543,529,l),
(537,563,o),
(531,634,o),
(531,676,cs),
(531,691,l,{
name = hr01;
}),
(449,685,o),
(280,685,o),
(151,685,cs,{
name = hr02;
}),
(101,685,o),
(80,686,o),
(38,688,c),
(35,659,l),
(95,647,o),
(114,641,o),
(117,616,c),
(117,616,o),
(125,557,o),
(125,342,cs),
(125,127,o),
(116,69,o),
(116,69,c),
(113,44,o),
(87,38,o),
(27,26,c),
(30,-3,l),
(72,-1,o),
(100,0,o),
(150,0,cs,{
name = hr03;
}),
(550,0,l),
(552,36,o),
(562,123,o),
(574,159,c),
(547,171,l),
(506,43,o),
(430,36,o),
(327,36,cs),
(284,36,o),
(233,44,o),
(226,68,c),
(226,68,o),
(215,121,o),
(215,327,c),
(278,327,o),
(350,325,o),
(375,319,cs),
(400,313,o),
(405,298,o),
(418,231,c),
(453,236,l)
);
},
{
closed = 1;
nodes = (
(184,819,o),
(244,783,o),
(303,783,cs),
(363,783,o),
(423,819,o),
(433,891,c),
(396,896,l),
(389,860,o),
(346,843,o),
(303,843,cs),
(261,843,o),
(218,860,o),
(211,896,c),
(174,891,l,{
name = hr00;
})
);
}
);
};
layerId = master01;
shapes = (
{
ref = E;
},
{
pos = (304,0);
ref = brevecomb.case;
}
);
width = 608;
}
);
unicode = 276;
},
{
glyphname = Ecaron;
lastChange = "2022-08-04 15:53:44 +0000";
layers = (
{
background = {
anchors = (
{
name = bottom;
pos = (304,0);
},
{
name = ogonek;
pos = (547,10);
},
{
name = top;
pos = (304,954);
},
{
name = topleft;
pos = (20,691);
}
);
shapes = (
{
closed = 1;
nodes = (
(448,273,o),
(445,310,o),
(445,348,cs),
(445,385,o),
(448,423,o),
(453,459,c),
(418,463,l),
(405,396,o),
(400,381,o),
(375,375,cs),
(350,369,o),
(278,367,o),
(215,367,c),
(216,556,o),
(226,621,o),
(226,621,c),
(230,642,o),
(270,643,o),
(318,643,cs),
(447,643,o),
(481,630,o),
(516,517,c),
(543,529,l),
(537,563,o),
(531,634,o),
(531,676,cs),
(531,691,l,{
name = hr01;
}),
(449,685,o),
(280,685,o),
(151,685,cs,{
name = hr02;
}),
(101,685,o),
(80,686,o),
(38,688,c),
(35,659,l),
(95,647,o),
(114,641,o),
(117,616,c),
(117,616,o),
(125,557,o),
(125,342,cs),
(125,127,o),
(116,69,o),
(116,69,c),
(113,44,o),
(87,38,o),
(27,26,c),
(30,-3,l),
(72,-1,o),
(100,0,o),
(150,0,cs,{
name = hr03;
}),
(550,0,l),
(552,36,o),
(562,123,o),
(574,159,c),
(547,171,l),
(506,43,o),
(430,36,o),
(327,36,cs),
(284,36,o),
(233,44,o),
(226,68,c),
(226,68,o),
(215,121,o),
(215,327,c),
(278,327,o),
(350,325,o),
(375,319,cs),
(400,313,o),
(405,298,o),
(418,231,c),
(453,236,l)
);
},
{
closed = 1;
nodes = (
(426,949,l),
(396,954,l),
(303,840,l),
(211,954,l),
(181,949,l),
(285,754,l),
(322,754,l,{
name = hr00;
})
);
}
);
};
layerId = master01;
shapes = (
{
ref = E;
},
{
pos = (304,0);
ref = caroncomb.case;
}
);
width = 608;
}
);
unicode = 282;
},
{
glyphname = Ecircumflex;
lastChange = "2022-08-04 15:51:48 +0000";
layers = (
{
background = {
anchors = (
{
name = bottom;
pos = (304,0);
},
{
name = ogonek;
pos = (547,10);
},
{
name = top;
pos = (304,946);
},
{
name = topleft;
pos = (20,691);
}
);
shapes = (
{
closed = 1;
nodes = (
(448,273,o),
(445,310,o),
(445,348,cs),
(445,385,o),
(448,423,o),
(453,459,c),
(418,463,l),
(405,396,o),
(400,381,o),
(375,375,cs),
(350,369,o),
(278,367,o),
(215,367,c),
(216,556,o),
(226,621,o),
(226,621,c),
(230,642,o),
(270,643,o),
(318,643,cs),
(447,643,o),
(481,630,o),
(516,517,c),
(543,529,l),
(537,563,o),
(531,634,o),
(531,676,cs),
(531,691,l,{
name = hr01;
}),
(449,685,o),
(280,685,o),
(151,685,cs,{
name = hr02;
}),
(101,685,o),
(80,686,o),
(38,688,c),
(35,659,l),
(95,647,o),
(114,641,o),
(117,616,c),
(117,616,o),
(125,557,o),
(125,342,cs),
(125,127,o),
(116,69,o),
(116,69,c),
(113,44,o),
(87,38,o),
(27,26,c),
(30,-3,l),
(72,-1,o),
(100,0,o),
(150,0,cs,{
name = hr03;
}),
(550,0,l),
(552,36,o),
(562,123,o),
(574,159,c),
(547,171,l),
(506,43,o),
(430,36,o),
(327,36,cs),
(284,36,o),
(233,44,o),
(226,68,c),
(226,68,o),
(215,121,o),
(215,327,c),
(278,327,o),
(350,325,o),
(375,319,cs),
(400,313,o),
(405,298,o),
(418,231,c),
(453,236,l)
);
},
{
closed = 1;
nodes = (
(191,752,l),
(221,747,l),
(303,851,l),
(386,747,l),
(416,752,l),
(322,946,l),
(285,946,l,{
name = hr00;
})
);
}
);
};
layerId = master01;
shapes = (
{
ref = E;
},
{
pos = (304,0);
ref = circumflexcomb.case;
}
);
width = 608;
}
);
unicode = 202;
},
{
glyphname = Edieresis;
lastChange = "2022-08-04 15:51:48 +0000";
layers = (
{
background = {
anchors = (
{
name = bottom;
pos = (304,0);
},
{
name = ogonek;
pos = (547,10);
},
{
name = top;
pos = (304,898);
},
{
name = topleft;
pos = (20,691);
}
);
shapes = (
{
closed = 1;
nodes = (
(448,273,o),
(445,310,o),
(445,348,cs),
(445,385,o),
(448,423,o),
(453,459,c),
(418,463,l),
(405,396,o),
(400,381,o),
(375,375,cs),
(350,369,o),
(278,367,o),
(215,367,c),
(216,556,o),
(226,621,o),
(226,621,c),
(230,642,o),
(270,643,o),
(318,643,cs),
(447,643,o),
(481,630,o),
(516,517,c),
(543,529,l),
(537,563,o),
(531,634,o),
(531,676,cs),
(531,691,l,{
name = hr01;
}),
(449,685,o),
(280,685,o),
(151,685,cs,{
name = hr02;
}),
(101,685,o),
(80,686,o),
(38,688,c),
(35,659,l),
(95,647,o),
(114,641,o),
(117,616,c),
(117,616,o),
(125,557,o),
(125,342,cs),
(125,127,o),
(116,69,o),
(116,69,c),
(113,44,o),
(87,38,o),
(27,26,c),
(30,-3,l),
(72,-1,o),
(100,0,o),
(150,0,cs,{
name = hr03;
}),
(550,0,l),
(552,36,o),
(562,123,o),
(574,159,c),
(547,171,l),
(506,43,o),
(430,36,o),
(327,36,cs),
(284,36,o),
(233,44,o),
(226,68,c),
(226,68,o),
(215,121,o),
(215,327,c),
(278,327,o),
(350,325,o),
(375,319,cs),
(400,313,o),
(405,298,o),
(418,231,c),
(453,236,l)
);
},
{
closed = 1;
nodes = (
(423,792,o),
(446,815,o),
(446,846,cs),
(446,875,o),
(423,898,o),
(394,898,cs),
(365,898,o),
(342,875,o),
(342,846,cs),
(342,815,o),
(365,792,o),
(394,792,cs,{
name = hr00;
})
);
},
{
closed = 1;
nodes = (
(243,792,o),
(266,815,o),
(266,846,cs),
(266,875,o),
(243,898,o),
(214,898,cs),
(185,898,o),
(162,875,o),
(162,846,cs),
(162,815,o),
(185,792,o),
(214,792,cs)
);
}
);
};
layerId = master01;
shapes = (
{
ref = E;
},
{
pos = (304,0);
ref = dieresiscomb.case;
}
);
width = 608;
}
);
unicode = 203;
},
{
glyphname = Edotaccent;
lastChange = "2022-08-04 15:51:48 +0000";
layers = (
{
background = {
anchors = (
{
name = bottom;
pos = (304,0);
},
{
name = ogonek;
pos = (547,10);
},
{
name = top;
pos = (304,901);
},
{
name = topleft;
pos = (20,691);
}
);
shapes = (
{
closed = 1;
nodes = (
(448,273,o),
(445,310,o),
(445,348,cs),
(445,385,o),
(448,423,o),
(453,459,c),
(418,463,l),
(405,396,o),
(400,381,o),
(375,375,cs),
(350,369,o),
(278,367,o),
(215,367,c),
(216,556,o),
(226,621,o),
(226,621,c),
(230,642,o),
(270,643,o),
(318,643,cs),
(447,643,o),
(481,630,o),
(516,517,c),
(543,529,l),
(537,563,o),
(531,634,o),
(531,676,cs),
(531,691,l,{
name = hr01;
}),
(449,685,o),
(280,685,o),
(151,685,cs,{
name = hr02;
}),
(101,685,o),
(80,686,o),
(38,688,c),
(35,659,l),
(95,647,o),
(114,641,o),
(117,616,c),
(117,616,o),
(125,557,o),
(125,342,cs),
(125,127,o),
(116,69,o),
(116,69,c),
(113,44,o),
(87,38,o),
(27,26,c),
(30,-3,l),
(72,-1,o),
(100,0,o),
(150,0,cs,{
name = hr03;
}),
(550,0,l),
(552,36,o),
(562,123,o),
(574,159,c),
(547,171,l),
(506,43,o),
(430,36,o),
(327,36,cs),
(284,36,o),
(233,44,o),
(226,68,c),
(226,68,o),
(215,121,o),
(215,327,c),
(278,327,o),
(350,325,o),
(375,319,cs),
(400,313,o),
(405,298,o),
(418,231,c),
(453,236,l)
);
},
{
closed = 1;
nodes = (
(333,795,o),
(356,818,o),
(356,849,cs),
(356,878,o),
(333,901,o),
(304,901,cs),
(275,901,o),
(252,878,o),
(252,849,cs),
(252,818,o),
(275,795,o),
(304,795,cs,{
name = hr00;
})
);
}
);
};
layerId = master01;
shapes = (
{
ref = E;
},
{
pos = (169,0);
ref = dotaccentcomb.case;
}
);
width = 608;
}
);
unicode = 278;
},
{
glyphname = Egrave;
lastChange = "2022-08-04 15:51:48 +0000";
layers = (
{
background = {
anchors = (
{
name = bottom;
pos = (304,0);
},
{
name = ogonek;
pos = (547,10);
},
{
name = top;
pos = (270,951);
},
{
name = topleft;
pos = (20,691);
}
);
shapes = (
{
closed = 1;
nodes = (
(448,273,o),
(445,310,o),
(445,348,cs),
(445,385,o),
(448,423,o),
(453,459,c),
(418,463,l),
(405,396,o),
(400,381,o),
(375,375,cs),
(350,369,o),
(278,367,o),
(215,367,c),
(216,556,o),
(226,621,o),
(226,621,c),
(230,642,o),
(270,643,o),
(318,643,cs),
(447,643,o),
(481,630,o),
(516,517,c),
(543,529,l),
(537,563,o),
(531,634,o),
(531,676,cs),
(531,691,l,{
name = hr01;
}),
(449,685,o),
(280,685,o),
(151,685,cs,{
name = hr02;
}),
(101,685,o),
(80,686,o),
(38,688,c),
(35,659,l),
(95,647,o),
(114,641,o),
(117,616,c),
(117,616,o),
(125,557,o),
(125,342,cs),
(125,127,o),
(116,69,o),
(116,69,c),
(113,44,o),
(87,38,o),
(27,26,c),
(30,-3,l),
(72,-1,o),
(100,0,o),
(150,0,cs,{
name = hr03;
}),
(550,0,l),
(552,36,o),
(562,123,o),
(574,159,c),
(547,171,l),
(506,43,o),
(430,36,o),
(327,36,cs),
(284,36,o),
(233,44,o),
(226,68,c),
(226,68,o),
(215,121,o),
(215,327,c),
(278,327,o),
(350,325,o),
(375,319,cs),
(400,313,o),
(405,298,o),
(418,231,c),
(453,236,l)
);
},
{
closed = 1;
nodes = (
(371,752,l),
(237,951,l),
(204,951,o),
(171,932,o),
(168,909,c),
(341,747,l,{
name = hr00;
})
);
}
);
};
layerId = master01;
shapes = (
{
ref = E;
},
{
pos = (304,0);
ref = gravecomb.case;
}
);
width = 608;
}
);
unicode = 200;
},
{
glyphname = Emacron;
lastChange = "2022-08-04 15:51:48 +0000";
layers = (
{
background = {
anchors = (
{
name = bottom;
pos = (304,0);
},
{
name = ogonek;
pos = (547,10);
},
{
name = top;
pos = (304,866);
},
{
name = topleft;
pos = (20,691);
}
);
shapes = (
{
closed = 1;
nodes = (
(448,273,o),
(445,310,o),
(445,348,cs),
(445,385,o),
(448,423,o),
(453,459,c),
(418,463,l),
(405,396,o),
(400,381,o),
(375,375,cs),
(350,369,o),
(278,367,o),
(215,367,c),
(216,556,o),
(226,621,o),
(226,621,c),
(230,642,o),
(270,643,o),
(318,643,cs),
(447,643,o),
(481,630,o),
(516,517,c),
(543,529,l),
(537,563,o),
(531,634,o),
(531,676,cs),
(531,691,l,{
name = hr01;
}),
(449,685,o),
(280,685,o),
(151,685,cs,{
name = hr02;
}),
(101,685,o),
(80,686,o),
(38,688,c),
(35,659,l),
(95,647,o),
(114,641,o),
(117,616,c),
(117,616,o),
(125,557,o),
(125,342,cs),
(125,127,o),
(116,69,o),
(116,69,c),
(113,44,o),
(87,38,o),
(27,26,c),
(30,-3,l),
(72,-1,o),
(100,0,o),
(150,0,cs,{
name = hr03;
}),
(550,0,l),
(552,36,o),
(562,123,o),
(574,159,c),
(547,171,l),
(506,43,o),
(430,36,o),
(327,36,cs),
(284,36,o),
(233,44,o),
(226,68,c),
(226,68,o),
(215,121,o),
(215,327,c),
(278,327,o),
(350,325,o),
(375,319,cs),
(400,313,o),
(405,298,o),
(418,231,c),
(453,236,l)
);
},
{
closed = 1;
nodes = (
(457,865,l),
(415,862,o),
(373,861,o),
(331,861,cs),
(281,861,o),
(232,863,o),
(182,866,c,{
name = hr01;
}),
(143,820,l),
(151,804,l),
(197,807,o),
(243,808,o),
(288,808,cs,{
name = hr02;
}),
(334,808,o),
(380,807,o),
(426,804,c,{
name = hr03;
}),
(465,850,l)
);
}
);
};
layerId = master01;
shapes = (
{
ref = E;
},
{
pos = (304,0);
ref = macroncomb.case;
}
);
width = 608;
}
);
unicode = 274;
},
{
glyphname = Eogonek;
lastChange = "2022-08-04 15:55:10 +0000";
layers = (
{
background = {
anchors = (
{
name = bottom;
pos = (304,0);
},
{
name = ogonek;
pos = (547,10);
},
{
name = top;
pos = (304,691);
},
{
name = topleft;
pos = (20,691);
}
);
shapes = (
{
closed = 1;
nodes = (
(448,273,o),
(445,310,o),
(445,348,cs),
(445,385,o),
(448,423,o),
(453,459,c),
(418,463,l),
(405,396,o),
(400,381,o),
(375,375,cs),
(350,369,o),
(278,367,o),
(215,367,c),
(216,556,o),
(226,621,o),
(226,621,c),
(230,642,o),
(270,643,o),
(318,643,cs),
(447,643,o),
(481,630,o),
(516,517,c),
(543,529,l),
(537,563,o),
(531,634,o),
(531,676,cs),
(531,691,l,{
name = hr01;
}),
(449,685,o),
(280,685,o),
(151,685,cs,{
name = hr02;
}),
(101,685,o),
(80,686,o),
(38,688,c),
(35,659,l),
(95,647,o),
(114,641,o),
(117,616,c),
(117,616,o),
(125,557,o),
(125,342,cs),
(125,127,o),
(116,69,o),
(116,69,c),
(113,44,o),
(87,38,o),
(27,26,c),
(30,-3,l),
(72,-1,o),
(100,0,o),
(150,0,cs,{
name = hr03;
}),
(550,0,l),
(552,36,o),
(562,123,o),
(574,159,c),
(547,171,l),
(506,43,o),
(430,36,o),
(327,36,cs),
(284,36,o),
(233,44,o),
(226,68,c),
(226,68,o),
(215,121,o),
(215,327,c),
(278,327,o),
(350,325,o),
(375,319,cs),
(400,313,o),
(405,298,o),
(418,231,c),
(453,236,l)
);
},
{
closed = 1;
nodes = (
(411,-150,o),
(396,-153,o),
(383,-153,cs),
(351,-153,o),
(327,-136,o),
(327,-97,cs),
(327,-66,o),
(343,-21,o),
(404,0,c),
(404,26,l),
(308,2,o),
(262,-69,o),
(262,-126,cs),
(262,-169,o),
(289,-203,o),
(345,-203,cs),
(374,-203,o),
(406,-193,o),
(432,-176,c),
(426,-144,l,{
name = hr00;
})
);
}
);
};
layerId = master01;
shapes = (
{
ref = E;
},
{
pos = (212,0);
ref = ogonekcomb;
}
);
width = 608;
}
);
unicode = 280;
},
{
glyphname = F;
lastChange = "2022-08-04 15:46:42 +0000";
layers = (
{
anchors = (
{
name = bottom;
pos = (277,0);
},
{
name = top;
pos = (277,691);
}
);
background = {
shapes = (
{
closed = 1;
nodes = (
(279,327,o),
(359,325,o),
(384,319,cs),
(409,313,o),
(414,298,o),
(427,231,c),
(462,236,l),
(457,273,o),
(454,310,o),
(454,348,cs),
(454,385,o),
(457,423,o),
(462,459,c),
(427,463,l),
(414,396,o),
(409,381,o),
(384,375,cs),
(359,369,o),
(279,367,o),
(216,367,c),
(217,558,o),
(225,621,o),
(225,621,c),
(227,643,o),
(258,643,o),
(306,643,cs),
(435,643,o),
(469,630,o),
(504,517,c),
(531,529,l),
(525,563,o),
(519,634,o),
(519,676,cs),
(519,691,l,{
name = hr01;
}),
(437,685,o),
(268,685,o),
(139,685,cs,{
name = hr02;
}),
(89,685,o),
(81,686,o),
(39,688,c),
(36,659,l),
(96,647,o),
(115,641,o),
(118,616,c),
(118,616,o),
(126,557,o),
(126,342,cs),
(126,128,o),
(118,69,o),
(118,69,c),
(115,44,o),
(89,38,o),
(29,26,c),
(32,-3,l),
(74,-1,o),
(123,0,o),
(173,0,cs,{
name = hr03;
}),
(223,0,o),
(264,-1,o),
(306,-3,c,{
name = hr04;
}),
(309,26,l),
(249,38,o),
(227,44,o),
(224,69,c),
(224,69,o),
(216,126,o),
(216,327,c)
);
}
);
};
layerId = master01;
shapes = (
{
closed = 1;
nodes = (
(279,327,o),
(359,325,o),
(384,319,cs),
(409,313,o),
(414,298,o),
(427,231,c),
(462,236,l),
(457,273,o),
(454,310,o),
(454,348,cs),
(454,385,o),
(457,423,o),
(462,459,c),
(427,463,l),
(414,396,o),
(409,381,o),
(384,375,cs),
(359,369,o),
(279,367,o),
(216,367,c),
(217,558,o),
(225,621,o),
(225,621,c),
(227,643,o),
(258,643,o),
(306,643,cs),
(435,643,o),
(469,630,o),
(504,517,c),
(531,529,l),
(525,563,o),
(519,634,o),
(519,676,cs),
(519,691,l,{
name = hr01;
}),
(437,685,o),
(268,685,o),
(139,685,cs,{
name = hr02;
}),
(89,685,o),
(81,686,o),
(39,688,c),
(36,659,l),
(96,647,o),
(115,641,o),
(118,616,c),
(118,616,o),
(126,557,o),
(126,342,cs),
(126,128,o),
(118,69,o),
(118,69,c),
(115,44,o),
(89,38,o),
(29,26,c),
(32,-3,l),
(74,-1,o),
(123,0,o),
(173,0,cs,{
name = hr03;
}),
(223,0,o),
(264,-1,o),
(306,-3,c,{
name = hr04;
}),
(309,26,l),
(249,38,o),
(227,44,o),
(224,69,c),
(224,69,o),
(216,126,o),
(216,327,c)
);
}
);
width = 554;
}
);
unicode = 70;
},
{
glyphname = G;
lastChange = "2022-08-04 16:02:06 +0000";
layers = (
{
anchors = (
{
name = bottom;
pos = (403,0);
},
{
name = top;
pos = (423,691);
}
);
background = {
shapes = (
{
closed = 1;
nodes = (
(222,37,o),
(153,203,o),
(153,351,cs),
(153,557,o),
(280,648,o),
(414,648,cs),
(509,648,o),
(604,618,o),
(637,517,c),
(665,529,l),
(659,563,o),
(653,629,o),
(653,670,cs),
(653,685,l),
(636,681,o),
(620,679,o),
(604,679,cs),
(555,679,o),
(504,694,o),
(418,694,cs,{
name = hr01;
}),
(178,694,o),
(48,525,o),
(48,334,cs),
(48,107,o),
(190,-12,o),
(404,-12,cs),
(489,-12,o),
(571,10,o),
(677,55,c),
(684,235,l),
(687,260,o),
(679,266,o),
(739,278,c),
(736,307,l),
(694,305,o),
(683,304,o),
(633,304,cs),
(583,304,o),
(541,305,o),
(499,307,c),
(496,278,l),
(556,266,o),
(575,260,o),
(578,235,c),
(578,235,o),
(584,169,o),
(585,73,c),
(549,54,o),
(477,37,o),
(407,37,cs)
);
}
);
};
layerId = master01;
shapes = (
{
closed = 1;
nodes = (
(222,37,o),
(153,203,o),
(153,351,cs),
(153,557,o),
(280,648,o),
(414,648,cs),
(509,648,o),
(604,618,o),
(637,517,c),
(665,529,l),
(659,563,o),
(653,629,o),
(653,670,cs),
(653,685,l),
(636,681,o),
(620,679,o),
(604,679,cs),
(555,679,o),
(504,694,o),
(418,694,cs,{
name = hr01;
}),
(178,694,o),
(48,525,o),
(48,334,cs),
(48,107,o),
(190,-12,o),
(404,-12,cs),
(489,-12,o),
(571,10,o),
(677,55,c),
(684,235,l),
(687,260,o),
(679,266,o),
(739,278,c),
(736,307,l),
(694,305,o),
(683,304,o),
(633,304,cs),
(583,304,o),
(541,305,o),
(499,307,c),
(496,278,l),
(556,266,o),
(575,260,o),
(578,235,c),
(578,235,o),
(584,169,o),
(585,73,c),
(549,54,o),
(477,37,o),
(407,37,cs)
);
}
);
width = 759;
}
);
unicode = 71;
},
{
glyphname = Gbreve;
lastChange = "2022-08-04 15:55:18 +0000";
layers = (
{
background = {
anchors = (
{
name = bottom;
pos = (380,0);
},
{
name = top;
pos = (423,896);
}
);
shapes = (
{
closed = 1;
nodes = (
(222,37,o),
(153,203,o),
(153,351,cs),
(153,557,o),
(280,648,o),
(414,648,cs),
(509,648,o),
(604,618,o),
(637,517,c),
(665,529,l),
(659,563,o),
(653,629,o),
(653,670,cs),
(653,685,l),
(636,681,o),
(620,679,o),
(604,679,cs),
(555,679,o),
(504,694,o),
(418,694,cs,{
name = hr01;
}),
(178,694,o),
(48,525,o),
(48,334,cs),
(48,107,o),
(190,-12,o),
(404,-12,cs),
(489,-12,o),
(571,10,o),
(677,55,c),
(684,235,l),
(687,260,o),
(679,266,o),
(739,278,c),
(736,307,l),
(694,305,o),
(683,304,o),
(633,304,cs),
(583,304,o),
(541,305,o),
(499,307,c),
(496,278,l),
(556,266,o),
(575,260,o),
(578,235,c),
(578,235,o),
(584,169,o),
(585,73,c),
(549,54,o),
(477,37,o),
(407,37,cs)
);
},
{
closed = 1;
nodes = (
(303,819,o),
(363,783,o),
(422,783,cs),
(482,783,o),
(542,819,o),
(552,891,c),
(515,896,l),
(508,860,o),
(465,843,o),
(422,843,cs),
(380,843,o),
(337,860,o),
(330,896,c),
(293,891,l,{
name = hr00;
})
);
}
);
};
layerId = master01;
shapes = (
{
ref = G;
},
{
pos = (423,0);
ref = brevecomb.case;
}
);
width = 759;
}
);
unicode = 286;
},
{
glyphname = Gcircumflex;
lastChange = "2022-08-04 15:55:18 +0000";
layers = (
{
background = {
anchors = (
{
name = bottom;
pos = (380,0);
},
{
name = top;
pos = (431,949);
}
);
shapes = (
{
closed = 1;
nodes = (
(222,37,o),
(153,203,o),
(153,351,cs),
(153,557,o),
(280,648,o),
(414,648,cs),
(509,648,o),
(604,618,o),
(637,517,c),
(665,529,l),
(659,563,o),
(653,629,o),
(653,670,cs),
(653,685,l),
(636,681,o),
(620,679,o),
(604,679,cs),
(555,679,o),
(504,694,o),
(418,694,cs,{
name = hr01;
}),
(178,694,o),
(48,525,o),
(48,334,cs),
(48,107,o),
(190,-12,o),
(404,-12,cs),
(489,-12,o),
(571,10,o),
(677,55,c),
(684,235,l),
(687,260,o),
(679,266,o),
(739,278,c),
(736,307,l),
(694,305,o),
(683,304,o),
(633,304,cs),
(583,304,o),
(541,305,o),
(499,307,c),
(496,278,l),
(556,266,o),
(575,260,o),
(578,235,c),
(578,235,o),
(584,169,o),
(585,73,c),
(549,54,o),
(477,37,o),
(407,37,cs)
);
},
{
closed = 1;
nodes = (
(318,755,l),
(348,750,l),
(430,854,l),
(513,750,l),
(543,755,l),
(449,949,l),
(412,949,l,{
name = hr00;
})
);
}
);
};
layerId = master01;
shapes = (
{
ref = G;
},
{
pos = (423,0);
ref = circumflexcomb.case;
}
);
width = 759;
}
);
unicode = 284;
},
{
glyphname = Gcommaaccent;
lastChange = "2022-08-04 16:02:52 +0000";
layers = (
{
background = {
anchors = (
{
name = bottom;
pos = (403,-265);
},
{
name = top;
pos = (380,691);
}
);
shapes = (
{
closed = 1;
nodes = (
(222,37,o),
(153,203,o),
(153,351,cs),
(153,557,o),
(280,648,o),
(414,648,cs),
(509,648,o),
(604,618,o),
(637,517,c),
(665,529,l),
(659,563,o),
(653,629,o),
(653,670,cs),
(653,685,l),
(636,681,o),
(620,679,o),
(604,679,cs),
(555,679,o),
(504,694,o),
(418,694,cs,{
name = hr01;
}),
(178,694,o),
(48,525,o),
(48,334,cs),
(48,107,o),
(190,-12,o),
(404,-12,cs),
(489,-12,o),
(571,10,o),
(677,55,c),
(684,235,l),
(687,260,o),
(679,266,o),
(739,278,c),
(736,307,l),
(694,305,o),
(683,304,o),
(633,304,cs),
(583,304,o),
(541,305,o),
(499,307,c),
(496,278,l),
(556,266,o),
(575,260,o),
(578,235,c),
(578,235,o),
(584,169,o),
(585,73,c),
(549,54,o),
(477,37,o),
(407,37,cs)
);
},
{
closed = 1;
nodes = (
(339,-114,o),
(355,-135,o),
(382,-135,cs),
(394,-135,o),
(409,-129,o),
(415,-119,c),
(417,-126,o),
(417,-132,o),
(417,-139,cs),
(417,-176,o),
(392,-215,o),
(358,-244,c),
(373,-265,l),
(431,-233,o),
(467,-183,o),
(467,-131,cs),
(467,-71,o),
(428,-45,o),
(393,-45,cs),
(364,-45,o),
(339,-62,o),
(339,-92,cs,{
name = hr00;
})
);
}
);
};
layerId = master01;
shapes = (
{
ref = G;
},
{
pos = (277,0);
ref = commaaccentcomb;
}
);
width = 759;
}
);
unicode = 290;
},
{
glyphname = Gdotaccent;
lastChange = "2022-08-04 15:55:18 +0000";
layers = (
{
background = {
anchors = (
{
name = bottom;
pos = (380,0);
},
{
name = top;
pos = (432,901);
}
);
shapes = (
{
closed = 1;
nodes = (
(222,37,o),
(153,203,o),
(153,351,cs),
(153,557,o),
(280,648,o),
(414,648,cs),
(509,648,o),
(604,618,o),
(637,517,c),
(665,529,l),
(659,563,o),
(653,629,o),
(653,670,cs),
(653,685,l),
(636,681,o),
(620,679,o),
(604,679,cs),
(555,679,o),
(504,694,o),
(418,694,cs,{
name = hr01;
}),
(178,694,o),
(48,525,o),
(48,334,cs),
(48,107,o),
(190,-12,o),
(404,-12,cs),
(489,-12,o),
(571,10,o),
(677,55,c),
(684,235,l),
(687,260,o),
(679,266,o),
(739,278,c),
(736,307,l),
(694,305,o),
(683,304,o),
(633,304,cs),
(583,304,o),
(541,305,o),
(499,307,c),
(496,278,l),
(556,266,o),
(575,260,o),
(578,235,c),
(578,235,o),
(584,169,o),
(585,73,c),
(549,54,o),
(477,37,o),
(407,37,cs)
);
},
{
closed = 1;
nodes = (
(461,795,o),
(484,818,o),
(484,849,cs),
(484,878,o),
(461,901,o),
(432,901,cs),
(403,901,o),
(380,878,o),
(380,849,cs),
(380,818,o),
(403,795,o),
(432,795,cs,{
name = hr00;
})
);
}
);
};
layerId = master01;
shapes = (
{
ref = G;
},
{
pos = (288,0);
ref = dotaccentcomb.case;
}
);
width = 759;
}
);
unicode = 288;
},
{
glyphname = H;
lastChange = "2022-08-04 15:46:42 +0000";
layers = (
{
anchors = (
{
name = bottom;
pos = (402,0);
},
{
name = center;
pos = (402,346);
},
{
name = top;
pos = (402,691);
},
{
name = topleft;
pos = (20,691);
}
);
background = {
shapes = (
{
closed = 1;
nodes = (
(587,384,o),
(548,379,o),
(401,379,cs),
(255,379,o),
(216,384,o),
(216,384,c),
(217,568,o),
(224,616,o),
(224,616,c),
(227,641,o),
(246,647,o),
(306,659,c),
(303,688,l),
(261,686,o),
(223,685,o),
(173,685,cs),
(123,685,o),
(81,686,o),
(39,688,c),
(36,659,l),
(96,647,o),
(115,641,o),
(118,616,c),
(118,616,o),
(126,557,o),
(126,342,cs),
(126,128,o),
(118,69,o),
(118,69,c),
(115,44,o),
(89,38,o),
(29,26,c),
(32,-3,l),
(74,-1,o),
(123,0,o),
(173,0,cs,{
name = hr01;
}),
(223,0,o),
(264,-1,o),
(306,-3,c,{
name = hr02;
}),
(309,26,l),
(249,38,o),
(227,44,o),
(224,69,c),
(224,69,o),
(216,121,o),
(216,328,c),
(216,328,o),
(255,333,o),
(401,333,cs),
(548,333,o),
(587,328,o),
(587,328,c),
(587,122,o),
(579,69,o),
(579,69,c),
(576,44,o),
(550,38,o),
(490,26,c),
(493,-3,l),
(535,-1,o),
(584,0,o),
(634,0,cs,{
name = hr03;
}),
(684,0,o),
(725,-1,o),
(767,-3,c,{
name = hr04;
}),
(770,26,l),
(710,38,o),
(688,44,o),
(685,69,c),
(685,69,o),
(677,127,o),
(677,342,cs),
(677,557,o),
(685,616,o),
(685,616,c),
(688,641,o),
(707,647,o),
(767,659,c),
(764,688,l),
(722,686,o),
(684,685,o),
(634,685,cs),
(584,685,o),
(542,686,o),
(500,688,c),
(497,659,l),
(557,647,o),
(576,641,o),
(579,616,c),
(579,616,o),
(586,569,o),
(587,384,c)
);
}
);
};
layerId = master01;
shapes = (
{
closed = 1;
nodes = (
(587,384,o),
(548,379,o),
(401,379,cs),
(255,379,o),
(216,384,o),
(216,384,c),
(217,568,o),
(224,616,o),
(224,616,c),
(227,641,o),
(246,647,o),
(306,659,c),
(303,688,l),
(261,686,o),
(223,685,o),
(173,685,cs),
(123,685,o),
(81,686,o),
(39,688,c),
(36,659,l),
(96,647,o),
(115,641,o),
(118,616,c),
(118,616,o),
(126,557,o),
(126,342,cs),
(126,128,o),
(118,69,o),
(118,69,c),
(115,44,o),
(89,38,o),
(29,26,c),
(32,-3,l),
(74,-1,o),
(123,0,o),
(173,0,cs,{
name = hr01;
}),
(223,0,o),
(264,-1,o),
(306,-3,c,{
name = hr02;
}),
(309,26,l),
(249,38,o),
(227,44,o),
(224,69,c),
(224,69,o),
(216,121,o),
(216,328,c),
(216,328,o),
(255,333,o),
(401,333,cs),
(548,333,o),
(587,328,o),
(587,328,c),
(587,122,o),
(579,69,o),
(579,69,c),
(576,44,o),
(550,38,o),
(490,26,c),
(493,-3,l),
(535,-1,o),
(584,0,o),
(634,0,cs,{
name = hr03;
}),
(684,0,o),
(725,-1,o),
(767,-3,c,{
name = hr04;
}),
(770,26,l),
(710,38,o),
(688,44,o),
(685,69,c),
(685,69,o),
(677,127,o),
(677,342,cs),
(677,557,o),
(685,616,o),
(685,616,c),
(688,641,o),
(707,647,o),
(767,659,c),
(764,688,l),
(722,686,o),
(684,685,o),
(634,685,cs),
(584,685,o),
(542,686,o),
(500,688,c),
(497,659,l),
(557,647,o),
(576,641,o),
(579,616,c),
(579,616,o),
(586,569,o),
(587,384,c)
);
}
);
width = 803;
}
);
unicode = 72;
},
{
glyphname = Hbar;
lastChange = "2022-08-04 15:51:48 +0000";
layers = (
{
background = {
anchors = (
{
name = bottom;
pos = (402,0);
},
{
name = center;
pos = (402,346);
},
{
name = top;
pos = (402,691);
},
{
name = topleft;
pos = (20,691);
}
);
shapes = (
{
closed = 1;
nodes = (
(54,519,l),
(41,477,l),
(748,477,l),
(761,519,l,{
name = hr00;
})
);
},
{
closed = 1;
nodes = (
(587,384,o),
(548,379,o),
(401,379,cs),
(255,379,o),
(216,384,o),
(216,384,c),
(217,568,o),
(224,616,o),
(224,616,c),
(227,641,o),
(246,647,o),
(306,659,c),
(303,688,l),
(261,686,o),
(223,685,o),
(173,685,cs),
(123,685,o),
(81,686,o),
(39,688,c),
(36,659,l),
(96,647,o),
(115,641,o),
(118,616,c),
(118,616,o),
(126,557,o),
(126,342,cs),
(126,128,o),
(118,69,o),
(118,69,c),
(115,44,o),
(89,38,o),
(29,26,c),
(32,-3,l),
(74,-1,o),
(123,0,o),
(173,0,cs,{
name = hr01;
}),
(223,0,o),
(264,-1,o),
(306,-3,c,{
name = hr02;
}),
(309,26,l),
(249,38,o),
(227,44,o),
(224,69,c),
(224,69,o),
(216,121,o),
(216,328,c),
(216,328,o),
(255,333,o),
(401,333,cs),
(548,333,o),
(587,328,o),
(587,328,c),
(587,122,o),
(579,69,o),
(579,69,c),
(576,44,o),
(550,38,o),
(490,26,c),
(493,-3,l),
(535,-1,o),
(584,0,o),
(634,0,cs,{
name = hr03;
}),
(684,0,o),
(725,-1,o),
(767,-3,c,{
name = hr04;
}),
(770,26,l),
(710,38,o),
(688,44,o),
(685,69,c),
(685,69,o),
(677,127,o),
(677,342,cs),
(677,557,o),
(685,616,o),
(685,616,c),
(688,641,o),
(707,647,o),
(767,659,c),
(764,688,l),
(722,686,o),
(684,685,o),
(634,685,cs),
(584,685,o),
(542,686,o),
(500,688,c),
(497,659,l),
(557,647,o),
(576,641,o),
(579,616,c),
(579,616,o),
(586,569,o),
(587,384,c)
);
}
);
};
layerId = master01;
shapes = (
{
closed = 1;
nodes = (
(54,519,l),
(41,477,l),
(748,477,l),
(761,519,l,{
name = hr00;
})
);
},
{
ref = H;
}
);
width = 803;
}
);
unicode = 294;
},
{
glyphname = Hcircumflex;
lastChange = "2022-08-04 15:51:48 +0000";
layers = (
{
background = {
anchors = (
{
name = bottom;
pos = (402,0);
},
{
name = center;
pos = (402,346);
},
{
name = top;
pos = (402,949);
},
{
name = topleft;
pos = (20,691);
}
);
shapes = (
{
closed = 1;
nodes = (
(587,384,o),
(548,379,o),
(401,379,cs),
(255,379,o),
(216,384,o),
(216,384,c),
(217,568,o),
(224,616,o),
(224,616,c),
(227,641,o),
(246,647,o),
(306,659,c),
(303,688,l),
(261,686,o),
(223,685,o),
(173,685,cs),
(123,685,o),
(81,686,o),
(39,688,c),
(36,659,l),
(96,647,o),
(115,641,o),
(118,616,c),
(118,616,o),
(126,557,o),
(126,342,cs),
(126,128,o),
(118,69,o),
(118,69,c),
(115,44,o),
(89,38,o),
(29,26,c),
(32,-3,l),
(74,-1,o),
(123,0,o),
(173,0,cs,{
name = hr01;
}),
(223,0,o),
(264,-1,o),
(306,-3,c,{
name = hr02;
}),
(309,26,l),
(249,38,o),
(227,44,o),
(224,69,c),
(224,69,o),
(216,121,o),
(216,328,c),
(216,328,o),
(255,333,o),
(401,333,cs),
(548,333,o),
(587,328,o),
(587,328,c),
(587,122,o),
(579,69,o),
(579,69,c),
(576,44,o),
(550,38,o),
(490,26,c),
(493,-3,l),
(535,-1,o),
(584,0,o),
(634,0,cs,{
name = hr03;
}),
(684,0,o),
(725,-1,o),
(767,-3,c,{
name = hr04;
}),
(770,26,l),
(710,38,o),
(688,44,o),
(685,69,c),
(685,69,o),
(677,127,o),
(677,342,cs),
(677,557,o),
(685,616,o),
(685,616,c),
(688,641,o),
(707,647,o),
(767,659,c),
(764,688,l),
(722,686,o),
(684,685,o),
(634,685,cs),
(584,685,o),
(542,686,o),
(500,688,c),
(497,659,l),
(557,647,o),
(576,641,o),
(579,616,c),
(579,616,o),
(586,569,o),
(587,384,c)
);
},
{
closed = 1;
nodes = (
(289,755,l),
(319,750,l),
(401,854,l),
(484,750,l),
(514,755,l),
(420,949,l),
(383,949,l,{
name = hr00;
})
);
}
);
};
layerId = master01;
shapes = (
{
ref = H;
},
{
pos = (402,0);
ref = circumflexcomb.case;
}
);
width = 803;
}
);
unicode = 292;
},
{
glyphname = I;
lastChange = "2022-08-04 15:56:12 +0000";
layers = (
{
anchors = (
{
name = bottom;
pos = (171,0);
},
{
name = ogonek;
pos = (217,0);
},
{
name = top;
pos = (171,691);
},
{
name = topleft;
pos = (20,691);
}
);
background = {
shapes = (
{
closed = 1;
nodes = (
(216,557,o),
(224,616,o),
(224,616,c),
(227,641,o),
(246,647,o),
(306,659,c),
(303,688,l),
(261,686,o),
(223,685,o),
(173,685,cs),
(123,685,o),
(81,686,o),
(39,688,c),
(36,659,l),
(96,647,o),
(115,641,o),
(118,616,c),
(118,616,o),
(126,557,o),
(126,342,cs),
(126,128,o),
(118,69,o),
(118,69,c),
(115,44,o),
(89,38,o),
(29,26,c),
(32,-3,l),
(74,-1,o),
(123,0,o),
(173,0,cs,{
name = hr01;
}),
(223,0,o),
(264,-1,o),
(306,-3,c,{
name = hr02;
}),
(309,26,l),
(249,38,o),
(227,44,o),
(224,69,c),
(224,69,o),
(216,127,o),
(216,342,cs)
);
}
);
};
layerId = master01;
shapes = (
{
closed = 1;
nodes = (
(216,557,o),
(224,616,o),
(224,616,c),
(227,641,o),
(246,647,o),
(306,659,c),
(303,688,l),
(261,686,o),
(223,685,o),
(173,685,cs),
(123,685,o),
(81,686,o),
(39,688,c),
(36,659,l),
(96,647,o),
(115,641,o),
(118,616,c),
(118,616,o),
(126,557,o),
(126,342,cs),
(126,128,o),
(118,69,o),
(118,69,c),
(115,44,o),
(89,38,o),
(29,26,c),
(32,-3,l),
(74,-1,o),
(123,0,o),
(173,0,cs,{
name = hr01;
}),
(223,0,o),
(264,-1,o),
(306,-3,c,{
name = hr02;
}),
(309,26,l),
(249,38,o),
(227,44,o),
(224,69,c),
(224,69,o),
(216,127,o),
(216,342,cs)
);
}
);
width = 342;
}
);
unicode = 73;
},
{
glyphname = IJ;
lastChange = "2022-08-04 15:51:48 +0000";
layers = (
{
background = {
anchors = (
{
name = bottom;
pos = (518,0);
},
{
name = ogonek;
pos = (308,10);
},
{
name = top;
pos = (518,691);
},
{
name = topleft;
pos = (20,691);
}
);
shapes = (
{
closed = 1;
nodes = (
(216,557,o),
(224,616,o),
(224,616,c),
(227,641,o),
(246,647,o),
(306,659,c),
(303,688,l),
(261,686,o),
(223,685,o),
(173,685,cs),
(123,685,o),
(81,686,o),
(39,688,c),
(36,659,l),
(96,647,o),
(115,641,o),
(118,616,c),
(118,616,o),
(126,557,o),
(126,342,cs),
(126,128,o),
(118,69,o),
(118,69,c),
(115,44,o),
(89,38,o),
(29,26,c),
(32,-3,l),
(74,-1,o),
(123,0,o),
(173,0,cs,{
name = hr01;
}),
(223,0,o),
(264,-1,o),
(306,-3,c,{
name = hr02;
}),
(309,26,l),
(249,38,o),
(227,44,o),
(224,69,c),
(224,69,o),
(216,127,o),
(216,342,cs)
);
},
{
closed = 1;
nodes = (
(443,-178,o),
(579,-45,o),
(579,215,cs),
(579,430,o),
(584,616,o),
(584,616,c),
(587,641,o),
(609,647,o),
(669,659,c),
(666,688,l),
(624,686,o),
(586,685,o),
(536,685,cs),
(486,685,o),
(444,686,o),
(402,688,c),
(399,659,l),
(459,647,o),
(478,641,o),
(481,616,c),
(481,616,o),
(489,514,o),
(489,299,cs),
(489,-66,o),
(455,-104,o),
(394,-105,cs),
(369,-105,o),
(338,-94,o),
(325,-85,c),
(309,-105,l),
(318,-140,o),
(361,-178,o),
(371,-178,cs,{
name = hr00;
})
);
}
);
};
layerId = master01;
shapes = (
{
ref = I;
},
{
pos = (342,0);
ref = J;
}
);
width = 694;
}
);
unicode = 306;
},
{
glyphname = Iacute;
lastChange = "2022-08-04 15:51:48 +0000";
layers = (
{
background = {
anchors = (
{
name = bottom;
pos = (171,0);
},
{
name = ogonek;
pos = (308,10);
},
{
name = top;
pos = (201,951);
},
{
name = topleft;
pos = (20,691);
}
);
shapes = (
{
closed = 1;
nodes = (
(216,557,o),
(224,616,o),
(224,616,c),
(227,641,o),
(246,647,o),
(306,659,c),
(303,688,l),
(261,686,o),
(223,685,o),
(173,685,cs),
(123,685,o),
(81,686,o),
(39,688,c),
(36,659,l),
(96,647,o),
(115,641,o),
(118,616,c),
(118,616,o),
(126,557,o),
(126,342,cs),
(126,128,o),
(118,69,o),
(118,69,c),
(115,44,o),
(89,38,o),
(29,26,c),
(32,-3,l),
(74,-1,o),
(123,0,o),
(173,0,cs,{
name = hr01;
}),
(223,0,o),
(264,-1,o),
(306,-3,c,{
name = hr02;
}),
(309,26,l),
(249,38,o),
(227,44,o),
(224,69,c),
(224,69,o),
(216,127,o),
(216,342,cs)
);
},
{
closed = 1;
nodes = (
(299,932,o),
(266,951,o),
(233,951,c),
(99,752,l),
(129,747,l),
(302,909,l,{
name = hr00;
})
);
}
);
};
layerId = master01;
shapes = (
{
ref = I;
},
{
pos = (171,0);
ref = acutecomb.case;
}
);
width = 342;
}
);
unicode = 205;
},
{
glyphname = Ibreve;
lastChange = "2022-08-04 15:51:48 +0000";
layers = (
{
background = {
anchors = (
{
name = bottom;
pos = (171,0);
},
{
name = ogonek;
pos = (308,10);
},
{
name = top;
pos = (171,896);
},
{
name = topleft;
pos = (20,691);
}
);
shapes = (
{
closed = 1;
nodes = (
(216,557,o),
(224,616,o),
(224,616,c),
(227,641,o),
(246,647,o),
(306,659,c),
(303,688,l),
(261,686,o),
(223,685,o),
(173,685,cs),
(123,685,o),
(81,686,o),
(39,688,c),
(36,659,l),
(96,647,o),
(115,641,o),
(118,616,c),
(118,616,o),
(126,557,o),
(126,342,cs),
(126,128,o),
(118,69,o),
(118,69,c),
(115,44,o),
(89,38,o),
(29,26,c),
(32,-3,l),
(74,-1,o),
(123,0,o),
(173,0,cs,{
name = hr01;
}),
(223,0,o),
(264,-1,o),
(306,-3,c,{
name = hr02;
}),
(309,26,l),
(249,38,o),
(227,44,o),
(224,69,c),
(224,69,o),
(216,127,o),
(216,342,cs)
);
},
{
closed = 1;
nodes = (
(51,819,o),
(111,783,o),
(170,783,cs),
(230,783,o),
(290,819,o),
(300,891,c),
(263,896,l),
(256,860,o),
(213,843,o),
(170,843,cs),
(128,843,o),
(85,860,o),
(78,896,c),
(41,891,l,{
name = hr00;
})
);
}
);
};
layerId = master01;
shapes = (
{
ref = I;
},
{
pos = (171,0);
ref = brevecomb.case;
}
);
width = 342;
}
);
unicode = 300;
},
{
glyphname = Icircumflex;
lastChange = "2022-08-04 15:51:48 +0000";
layers = (
{
background = {
anchors = (
{
name = bottom;
pos = (171,0);
},
{
name = ogonek;
pos = (308,10);
},
{
name = top;
pos = (171,946);
},
{
name = topleft;
pos = (20,691);
}
);
shapes = (
{
closed = 1;
nodes = (
(216,557,o),
(224,616,o),
(224,616,c),
(227,641,o),
(246,647,o),
(306,659,c),
(303,688,l),
(261,686,o),
(223,685,o),
(173,685,cs),
(123,685,o),
(81,686,o),
(39,688,c),
(36,659,l),
(96,647,o),
(115,641,o),
(118,616,c),
(118,616,o),
(126,557,o),
(126,342,cs),
(126,128,o),
(118,69,o),
(118,69,c),
(115,44,o),
(89,38,o),
(29,26,c),
(32,-3,l),
(74,-1,o),
(123,0,o),
(173,0,cs,{
name = hr01;
}),
(223,0,o),
(264,-1,o),
(306,-3,c,{
name = hr02;
}),
(309,26,l),
(249,38,o),
(227,44,o),
(224,69,c),
(224,69,o),
(216,127,o),
(216,342,cs)
);
},
{
closed = 1;
nodes = (
(58,752,l),
(88,747,l),
(170,851,l),
(253,747,l),
(283,752,l),
(189,946,l),
(152,946,l,{
name = hr00;
})
);
}
);
};
layerId = master01;
shapes = (
{
ref = I;
},
{
pos = (171,0);
ref = circumflexcomb.case;
}
);
width = 342;
}
);
unicode = 206;
},
{
glyphname = Idieresis;
lastChange = "2022-08-04 15:51:48 +0000";
layers = (
{
background = {
anchors = (
{
name = bottom;
pos = (171,0);
},
{
name = ogonek;
pos = (308,10);
},
{
name = top;
pos = (171,898);
},
{
name = topleft;
pos = (20,691);
}
);
shapes = (
{
closed = 1;
nodes = (
(216,557,o),
(224,616,o),
(224,616,c),
(227,641,o),
(246,647,o),
(306,659,c),
(303,688,l),
(261,686,o),
(223,685,o),
(173,685,cs),
(123,685,o),
(81,686,o),
(39,688,c),
(36,659,l),
(96,647,o),
(115,641,o),
(118,616,c),
(118,616,o),
(126,557,o),
(126,342,cs),
(126,128,o),
(118,69,o),
(118,69,c),
(115,44,o),
(89,38,o),
(29,26,c),
(32,-3,l),
(74,-1,o),
(123,0,o),
(173,0,cs,{
name = hr01;
}),
(223,0,o),
(264,-1,o),
(306,-3,c,{
name = hr02;
}),
(309,26,l),
(249,38,o),
(227,44,o),
(224,69,c),
(224,69,o),
(216,127,o),
(216,342,cs)
);
},
{
closed = 1;
nodes = (
(290,792,o),
(313,815,o),
(313,846,cs),
(313,875,o),
(290,898,o),
(261,898,cs),
(232,898,o),
(209,875,o),
(209,846,cs),
(209,815,o),
(232,792,o),
(261,792,cs,{
name = hr00;
})
);
},
{
closed = 1;
nodes = (
(110,792,o),
(133,815,o),
(133,846,cs),
(133,875,o),
(110,898,o),
(81,898,cs),
(52,898,o),
(29,875,o),
(29,846,cs),
(29,815,o),
(52,792,o),
(81,792,cs)
);
}
);
};
layerId = master01;
shapes = (
{
ref = I;
},
{
pos = (171,0);
ref = dieresiscomb.case;
}
);
width = 342;
}
);
unicode = 207;
},
{
glyphname = Idotaccent;
lastChange = "2022-08-04 15:51:48 +0000";
layers = (
{
background = {
anchors = (
{
name = bottom;
pos = (171,0);
},
{
name = ogonek;
pos = (308,10);
},
{
name = top;
pos = (171,901);
},
{
name = topleft;
pos = (20,691);
}
);
shapes = (
{
closed = 1;
nodes = (
(216,557,o),
(224,616,o),
(224,616,c),
(227,641,o),
(246,647,o),
(306,659,c),
(303,688,l),
(261,686,o),
(223,685,o),
(173,685,cs),
(123,685,o),
(81,686,o),
(39,688,c),
(36,659,l),
(96,647,o),
(115,641,o),
(118,616,c),
(118,616,o),
(126,557,o),
(126,342,cs),
(126,128,o),
(118,69,o),
(118,69,c),
(115,44,o),
(89,38,o),
(29,26,c),
(32,-3,l),
(74,-1,o),
(123,0,o),
(173,0,cs,{
name = hr01;
}),
(223,0,o),
(264,-1,o),
(306,-3,c,{
name = hr02;
}),
(309,26,l),
(249,38,o),
(227,44,o),
(224,69,c),
(224,69,o),
(216,127,o),
(216,342,cs)
);
},
{
closed = 1;
nodes = (
(200,795,o),
(223,818,o),
(223,849,cs),
(223,878,o),
(200,901,o),
(171,901,cs),
(142,901,o),
(119,878,o),
(119,849,cs),
(119,818,o),
(142,795,o),
(171,795,cs,{
name = hr00;
})
);
}
);
};
layerId = master01;
shapes = (
{
ref = I;
},
{
pos = (36,0);
ref = dotaccentcomb.case;
}
);
width = 342;
}
);
unicode = 304;
},
{
glyphname = Igrave;
lastChange = "2022-08-04 15:51:48 +0000";
layers = (
{
background = {
anchors = (
{
name = bottom;
pos = (171,0);
},
{
name = ogonek;
pos = (308,10);
},
{
name = top;
pos = (147,951);
},
{
name = topleft;
pos = (20,691);
}
);
shapes = (
{
closed = 1;
nodes = (
(216,557,o),
(224,616,o),
(224,616,c),
(227,641,o),
(246,647,o),
(306,659,c),
(303,688,l),
(261,686,o),
(223,685,o),
(173,685,cs),
(123,685,o),
(81,686,o),
(39,688,c),
(36,659,l),
(96,647,o),
(115,641,o),
(118,616,c),
(118,616,o),
(126,557,o),
(126,342,cs),
(126,128,o),
(118,69,o),
(118,69,c),
(115,44,o),
(89,38,o),
(29,26,c),
(32,-3,l),
(74,-1,o),
(123,0,o),
(173,0,cs,{
name = hr01;
}),
(223,0,o),
(264,-1,o),
(306,-3,c,{
name = hr02;
}),
(309,26,l),
(249,38,o),
(227,44,o),
(224,69,c),
(224,69,o),
(216,127,o),
(216,342,cs)
);
},
{
closed = 1;
nodes = (
(248,752,l),
(114,951,l),
(81,951,o),
(48,932,o),
(45,909,c),
(218,747,l,{
name = hr00;
})
);
}
);
};
layerId = master01;
shapes = (
{
ref = I;
},
{
pos = (171,0);
ref = gravecomb.case;
}
);
width = 342;
}
);
unicode = 204;
},
{
glyphname = Imacron;
lastChange = "2022-08-04 15:51:48 +0000";
layers = (
{
background = {
anchors = (
{
name = bottom;
pos = (171,0);
},
{
name = ogonek;
pos = (308,10);
},
{
name = top;
pos = (173,866);
},
{
name = topleft;
pos = (20,691);
}
);
shapes = (
{
closed = 1;
nodes = (
(216,557,o),
(224,616,o),
(224,616,c),
(227,641,o),
(246,647,o),
(306,659,c),
(303,688,l),
(261,686,o),
(223,685,o),
(173,685,cs),
(123,685,o),
(81,686,o),
(39,688,c),
(36,659,l),
(96,647,o),
(115,641,o),
(118,616,c),
(118,616,o),
(126,557,o),
(126,342,cs),
(126,128,o),
(118,69,o),
(118,69,c),
(115,44,o),
(89,38,o),
(29,26,c),
(32,-3,l),
(74,-1,o),
(123,0,o),
(173,0,cs,{
name = hr01;
}),
(223,0,o),
(264,-1,o),
(306,-3,c,{
name = hr02;
}),
(309,26,l),
(249,38,o),
(227,44,o),
(224,69,c),
(224,69,o),
(216,127,o),
(216,342,cs)
);
},
{
closed = 1;
nodes = (
(326,865,l),
(284,862,o),
(242,861,o),
(200,861,cs),
(150,861,o),
(101,863,o),
(51,866,c,{
name = hr01;
}),
(12,820,l),
(20,804,l),
(66,807,o),
(112,808,o),
(157,808,cs,{
name = hr02;
}),
(203,808,o),
(249,807,o),
(295,804,c,{
name = hr03;
}),
(334,850,l)
);
}
);
};
layerId = master01;
shapes = (
{
ref = I;
},
{
pos = (171,0);
ref = macroncomb.case;
}
);
width = 342;
}
);
unicode = 298;
},
{
glyphname = Iogonek;
lastChange = "2022-08-04 15:56:12 +0000";
layers = (
{
background = {
anchors = (
{
name = bottom;
pos = (171,0);
},
{
name = ogonek;
pos = (308,10);
},
{
name = top;
pos = (171,691);
},
{
name = topleft;
pos = (20,691);
}
);
shapes = (
{
closed = 1;
nodes = (
(216,557,o),
(224,616,o),
(224,616,c),
(227,641,o),
(246,647,o),
(306,659,c),
(303,688,l),
(261,686,o),
(223,685,o),
(173,685,cs),
(123,685,o),
(81,686,o),
(39,688,c),
(36,659,l),
(96,647,o),
(115,641,o),
(118,616,c),
(118,616,o),
(126,557,o),
(126,342,cs),
(126,128,o),
(118,69,o),
(118,69,c),
(115,44,o),
(89,38,o),
(29,26,c),
(32,-3,l),
(74,-1,o),
(123,0,o),
(173,0,cs,{
name = hr01;
}),
(223,0,o),
(264,-1,o),
(306,-3,c,{
name = hr02;
}),
(309,26,l),
(249,38,o),
(227,44,o),
(224,69,c),
(224,69,o),
(216,127,o),
(216,342,cs)
);
},
{
closed = 1;
nodes = (
(124,-150,o),
(109,-153,o),
(96,-153,cs),
(64,-153,o),
(40,-136,o),
(40,-97,cs),
(40,-66,o),
(56,-21,o),
(117,0,c),
(117,26,l),
(21,2,o),
(-25,-69,o),
(-25,-126,cs),
(-25,-169,o),
(2,-203,o),
(58,-203,cs),
(87,-203,o),
(119,-193,o),
(145,-176,c),
(139,-144,l,{
name = hr00;
})
);
}
);
};
layerId = master01;
shapes = (
{
ref = I;
},
{
pos = (25,0);
ref = ogonekcomb;
}
);
width = 342;
}
);
unicode = 302;
},
{
glyphname = Itilde;
lastChange = "2022-08-04 15:52:11 +0000";
layers = (
{
background = {
anchors = (
{
name = bottom;
pos = (171,0);
},
{
name = ogonek;
pos = (308,10);
},
{
name = top;
pos = (171,897);
},
{
name = topleft;
pos = (20,691);
}
);
shapes = (
{
closed = 1;
nodes = (
(216,557,o),
(224,616,o),
(224,616,c),
(227,641,o),
(246,647,o),
(306,659,c),
(303,688,l),
(261,686,o),
(223,685,o),
(173,685,cs),
(123,685,o),
(81,686,o),
(39,688,c),
(36,659,l),
(96,647,o),
(115,641,o),
(118,616,c),
(118,616,o),
(126,557,o),
(126,342,cs),
(126,128,o),
(118,69,o),
(118,69,c),
(115,44,o),
(89,38,o),
(29,26,c),
(32,-3,l),
(74,-1,o),
(123,0,o),
(173,0,cs,{
name = hr01;
}),
(223,0,o),
(264,-1,o),
(306,-3,c,{
name = hr02;
}),
(309,26,l),
(249,38,o),
(227,44,o),
(224,69,c),
(224,69,o),
(216,127,o),
(216,342,cs)
);
},
{
closed = 1;
nodes = (
(216,767,o),
(77,1029,o),
(7,796,c),
(33,788,l),
(126,917,o),
(265,655,o),
(335,888,c),
(309,896,l)
);
}
);
};
layerId = master01;
shapes = (
{
ref = I;
},
{
pos = (171,0);
ref = tildecomb.case;
}
);
width = 342;
}
);
unicode = 296;
},
{
glyphname = J;
lastChange = "2022-08-04 15:56:28 +0000";
layers = (
{
anchors = (
{
name = bottom;
pos = (176,0);
},
{
name = top;
pos = (193,691);
}
);
background = {
shapes = (
{
closed = 1;
nodes = (
(101,-178,o),
(237,-45,o),
(237,215,cs),
(237,430,o),
(242,616,o),
(242,616,c),
(245,641,o),
(267,647,o),
(327,659,c),
(324,688,l),
(282,686,o),
(244,685,o),
(194,685,cs),
(144,685,o),
(102,686,o),
(60,688,c),
(57,659,l),
(117,647,o),
(136,641,o),
(139,616,c),
(139,616,o),
(147,514,o),
(147,299,cs),
(147,-66,o),
(113,-104,o),
(52,-105,c),
(27,-105,o),
(-4,-94,o),
(-17,-85,c),
(-33,-105,l),
(-24,-140,o),
(19,-178,o),
(29,-178,cs,{
name = hr00;
})
);
}
);
};
layerId = master01;
shapes = (
{
closed = 1;
nodes = (
(101,-178,o),
(237,-45,o),
(237,215,cs),
(237,430,o),
(242,616,o),
(242,616,c),
(245,641,o),
(267,647,o),
(327,659,c),
(324,688,l),
(282,686,o),
(244,685,o),
(194,685,cs),
(144,685,o),
(102,686,o),
(60,688,c),
(57,659,l),
(117,647,o),
(136,641,o),
(139,616,c),
(139,616,o),
(147,514,o),
(147,299,cs),
(147,-66,o),
(113,-104,o),
(52,-105,cs),
(27,-105,o),
(-4,-94,o),
(-17,-85,c),
(-33,-105,l),
(-24,-140,o),
(19,-178,o),
(29,-178,cs,{
name = hr00;
})
);
}
);
width = 352;
}
);
unicode = 74;
},
{
glyphname = Jcircumflex;
lastChange = "2022-08-04 15:56:28 +0000";
layers = (
{
background = {
anchors = (
{
name = bottom;
pos = (176,0);
},
{
name = top;
pos = (196,949);
}
);
shapes = (
{
closed = 1;
nodes = (
(101,-178,o),
(237,-45,o),
(237,215,cs),
(237,430,o),
(242,616,o),
(242,616,c),
(245,641,o),
(267,647,o),
(327,659,c),
(324,688,l),
(282,686,o),
(244,685,o),
(194,685,cs),
(144,685,o),
(102,686,o),
(60,688,c),
(57,659,l),
(117,647,o),
(136,641,o),
(139,616,c),
(139,616,o),
(147,514,o),
(147,299,cs),
(147,-66,o),
(113,-104,o),
(52,-105,cs),
(27,-105,o),
(-4,-94,o),
(-17,-85,c),
(-33,-105,l),
(-24,-140,o),
(19,-178,o),
(29,-178,cs,{
name = hr00;
})
);
},
{
closed = 1;
nodes = (
(83,755,l),
(113,750,l),
(195,854,l),
(278,750,l),
(308,755,l),
(214,949,l),
(177,949,l,{
name = hr00;
})
);
}
);
};
layerId = master01;
shapes = (
{
ref = J;
},
{
pos = (193,0);
ref = circumflexcomb.case;
}
);
width = 352;
}
);
unicode = 308;
},
{
glyphname = K;
lastChange = "2022-08-04 15:46:42 +0000";
layers = (
{
anchors = (
{
name = bottom;
pos = (348,0);
},
{
name = top;
pos = (348,691);
}
);
background = {
shapes = (
{
closed = 1;
nodes = (
(224,69,o),
(217,120,o),
(216,296,c),
(269,346,l),
(525,-9,l),
(525,-9,o),
(628,-3,o),
(692,-3,c,{
name = hr01;
}),
(695,26,l),
(635,31,o),
(612,43,o),
(612,43,c),
(334,407,l),
(549,611,ls),
(569,630,o),
(603,647,o),
(663,659,c),
(660,688,l),
(618,686,o),
(596,685,o),
(546,685,cs),
(496,685,o),
(455,686,o),
(413,688,c),
(410,659,l),
(459,649,o),
(484,636,o),
(484,625,cs),
(484,623,o),
(483,620,o),
(480,618,cs),
(216,365,l),
(216,560,o),
(224,616,o),
(224,616,c),
(227,641,o),
(246,647,o),
(306,659,c),
(303,688,l),
(261,686,o),
(223,685,o),
(173,685,cs),
(123,685,o),
(81,686,o),
(39,688,c),
(36,659,l),
(96,647,o),
(115,641,o),
(118,616,c),
(118,616,o),
(126,557,o),
(126,342,cs),
(126,128,o),
(118,69,o),
(118,69,c),
(115,44,o),
(89,38,o),
(29,26,c),
(32,-3,l),
(74,-1,o),
(123,0,o),
(173,0,cs,{
name = hr02;
}),
(223,0,o),
(264,-1,o),
(306,-3,c,{
name = hr03;
}),
(309,26,l),
(249,38,o),
(227,44,o),
(224,69,c)
);
}
);
};
layerId = master01;
shapes = (
{
closed = 1;
nodes = (
(224,69,o),
(217,120,o),
(216,296,c),
(269,346,l),
(525,-9,l),
(525,-9,o),
(628,-3,o),
(692,-3,c,{
name = hr01;
}),
(695,26,l),
(635,31,o),
(612,43,o),
(612,43,c),
(334,407,l),
(549,611,ls),
(569,630,o),
(603,647,o),
(663,659,c),
(660,688,l),
(618,686,o),
(596,685,o),
(546,685,cs),
(496,685,o),
(455,686,o),
(413,688,c),
(410,659,l),
(459,649,o),
(484,636,o),
(484,625,cs),
(484,623,o),
(483,620,o),
(480,618,c),
(216,365,l),
(216,560,o),
(224,616,o),
(224,616,c),
(227,641,o),
(246,647,o),
(306,659,c),
(303,688,l),
(261,686,o),
(223,685,o),
(173,685,cs),
(123,685,o),
(81,686,o),
(39,688,c),
(36,659,l),
(96,647,o),
(115,641,o),
(118,616,c),
(118,616,o),
(126,557,o),
(126,342,cs),
(126,128,o),
(118,69,o),
(118,69,c),
(115,44,o),
(89,38,o),
(29,26,c),
(32,-3,l),
(74,-1,o),
(123,0,o),
(173,0,cs,{
name = hr02;
}),
(223,0,o),
(264,-1,o),
(306,-3,c,{
name = hr03;
}),
(309,26,l),
(249,38,o),
(227,44,o),
(224,69,c)
);
}
);
width = 696;
}
);
unicode = 75;
},
{
glyphname = Kcommaaccent;
lastChange = "2022-08-04 16:02:52 +0000";
layers = (
{
background = {
anchors = (
{
name = bottom;
pos = (349,-265);
},
{
name = top;
pos = (348,691);
}
);
shapes = (
{
closed = 1;
nodes = (
(224,69,o),
(217,120,o),
(216,296,c),
(269,346,l),
(525,-9,l),
(525,-9,o),
(628,-3,o),
(692,-3,c,{
name = hr01;
}),
(695,26,l),
(635,31,o),
(612,43,o),
(612,43,c),
(334,407,l),
(549,611,ls),
(569,630,o),
(603,647,o),
(663,659,c),
(660,688,l),
(618,686,o),
(596,685,o),
(546,685,cs),
(496,685,o),
(455,686,o),
(413,688,c),
(410,659,l),
(459,649,o),
(484,636,o),
(484,625,cs),
(484,623,o),
(483,620,o),
(480,618,c),
(216,365,l),
(216,560,o),
(224,616,o),
(224,616,c),
(227,641,o),
(246,647,o),
(306,659,c),
(303,688,l),
(261,686,o),
(223,685,o),
(173,685,cs),
(123,685,o),
(81,686,o),
(39,688,c),
(36,659,l),
(96,647,o),
(115,641,o),
(118,616,c),
(118,616,o),
(126,557,o),
(126,342,cs),
(126,128,o),
(118,69,o),
(118,69,c),
(115,44,o),
(89,38,o),
(29,26,c),
(32,-3,l),
(74,-1,o),
(123,0,o),
(173,0,cs,{
name = hr02;
}),
(223,0,o),
(264,-1,o),
(306,-3,c,{
name = hr03;
}),
(309,26,l),
(249,38,o),
(227,44,o),
(224,69,c)
);
},
{
closed = 1;
nodes = (
(285,-114,o),
(301,-135,o),
(328,-135,cs),
(340,-135,o),
(355,-129,o),
(361,-119,c),
(363,-126,o),
(363,-132,o),
(363,-139,cs),
(363,-176,o),
(338,-215,o),
(304,-244,c),
(319,-265,l),
(377,-233,o),
(413,-183,o),
(413,-131,cs),
(413,-71,o),
(374,-45,o),
(339,-45,cs),
(310,-45,o),
(285,-62,o),
(285,-92,cs,{
name = hr00;
})
);
}
);
};
layerId = master01;
shapes = (
{
ref = K;
},
{
pos = (222,0);
ref = commaaccentcomb;
}
);
width = 696;
}
);
unicode = 310;
},
{
glyphname = L;
lastChange = "2022-08-04 15:59:09 +0000";
layers = (
{
anchors = (
{
name = bottom;
pos = (290,0);
},
{
name = center;
pos = (290,346);
},
{
name = top;
pos = (290,691);
},
{
name = topright;
pos = (473,685);
}
);
background = {
shapes = (
{
closed = 1;
nodes = (
(224,69,o),
(216,127,o),
(216,342,cs),
(216,557,o),
(224,616,o),
(224,616,c),
(227,641,o),
(246,647,o),
(306,659,c),
(303,688,l),
(261,686,o),
(223,685,o),
(173,685,cs),
(123,685,o),
(81,686,o),
(39,688,c),
(36,659,l),
(96,647,o),
(115,641,o),
(118,616,c),
(118,616,o),
(126,557,o),
(126,342,cs),
(126,127,o),
(117,69,o),
(117,69,c),
(114,44,o),
(88,38,o),
(28,26,c),
(31,-3,l),
(73,-1,o),
(101,0,o),
(151,0,cs,{
name = hr01;
}),
(544,0,l),
(546,36,o),
(556,123,o),
(568,159,c),
(541,171,l),
(500,43,o),
(424,36,o),
(321,36,cs),
(278,36,o),
(226,48,o),
(224,69,c)
);
}
);
};
layerId = master01;
shapes = (
{
closed = 1;
nodes = (
(224,69,o),
(216,127,o),
(216,342,cs),
(216,557,o),
(224,616,o),
(224,616,c),
(227,641,o),
(246,647,o),
(306,659,c),
(303,688,l),
(261,686,o),
(223,685,o),
(173,685,cs),
(123,685,o),
(81,686,o),
(39,688,c),
(36,659,l),
(96,647,o),
(115,641,o),
(118,616,c),
(118,616,o),
(126,557,o),
(126,342,cs),
(126,127,o),
(117,69,o),
(117,69,c),
(114,44,o),
(88,38,o),
(28,26,c),
(31,-3,l),
(73,-1,o),
(101,0,o),
(151,0,cs,{
name = hr01;
}),
(544,0,l),
(546,36,o),
(556,123,o),
(568,159,c),
(541,171,l),
(500,43,o),
(424,36,o),
(321,36,cs),
(278,36,o),
(226,48,o),
(224,69,c)
);
}
);
width = 580;
}
);
unicode = 76;
},
{
glyphname = Lacute;
lastChange = "2022-08-04 15:56:41 +0000";
layers = (
{
background = {
anchors = (
{
name = bottom;
pos = (290,0);
},
{
name = center;
pos = (290,346);
},
{
name = top;
pos = (290,691);
},
{
name = topright;
pos = (560,691);
}
);
shapes = (
{
closed = 1;
nodes = (
(347,850,o),
(348,854,o),
(348,858,cs),
(348,878,o),
(331,904,o),
(307,917,c),
(95,792,l),
(119,773,l),
(346,846,l,{
name = hr00;
})
);
},
{
closed = 1;
nodes = (
(224,69,o),
(216,127,o),
(216,342,cs),
(216,557,o),
(224,616,o),
(224,616,c),
(227,641,o),
(246,647,o),
(306,659,c),
(303,688,l),
(261,686,o),
(223,685,o),
(173,685,cs),
(123,685,o),
(81,686,o),
(39,688,c),
(36,659,l),
(96,647,o),
(115,641,o),
(118,616,c),
(118,616,o),
(126,557,o),
(126,342,cs),
(126,127,o),
(117,69,o),
(117,69,c),
(114,44,o),
(88,38,o),
(28,26,c),
(31,-3,l),
(73,-1,o),
(101,0,o),
(151,0,cs,{
name = hr01;
}),
(544,0,l),
(546,36,o),
(556,123,o),
(568,159,c),
(541,171,l),
(500,43,o),
(424,36,o),
(321,36,cs),
(278,36,o),
(226,48,o),
(224,69,c)
);
}
);
};
layerId = master01;
shapes = (
{
ref = L;
},
{
closed = 1;
nodes = (
(347,850,o),
(348,854,o),
(348,858,cs),
(348,878,o),
(331,904,o),
(307,917,c),
(95,792,l),
(119,773,l),
(346,846,l,{
name = hr00;
})
);
}
);
width = 580;
}
);
unicode = 313;
},
{
glyphname = Lcaron;
lastChange = "2022-08-04 15:59:09 +0000";
layers = (
{
background = {
anchors = (
{
name = bottom;
pos = (403,535);
},
{
name = center;
pos = (290,346);
},
{
name = top;
pos = (290,691);
},
{
name = topright;
pos = (560,691);
}
);
shapes = (
{
closed = 1;
nodes = (
(224,69,o),
(216,127,o),
(216,342,cs),
(216,557,o),
(224,616,o),
(224,616,c),
(227,641,o),
(246,647,o),
(306,659,c),
(303,688,l),
(261,686,o),
(223,685,o),
(173,685,cs),
(123,685,o),
(81,686,o),
(39,688,c),
(36,659,l),
(96,647,o),
(115,641,o),
(118,616,c),
(118,616,o),
(126,557,o),
(126,342,cs),
(126,127,o),
(117,69,o),
(117,69,c),
(114,44,o),
(88,38,o),
(28,26,c),
(31,-3,l),
(73,-1,o),
(101,0,o),
(151,0,cs,{
name = hr01;
}),
(544,0,l),
(546,36,o),
(556,123,o),
(568,159,c),
(541,171,l),
(500,43,o),
(424,36,o),
(321,36,cs),
(278,36,o),
(226,48,o),
(224,69,c)
);
},
{
closed = 1;
nodes = (
(339,686,o),
(355,665,o),
(382,665,cs),
(394,665,o),
(409,671,o),
(415,681,c),
(417,674,o),
(417,668,o),
(417,661,cs),
(417,624,o),
(392,585,o),
(358,556,c),
(373,535,l),
(431,567,o),
(467,617,o),
(467,669,cs),
(467,729,o),
(428,755,o),
(393,755,cs),
(364,755,o),
(339,738,o),
(339,708,cs,{
name = hr00;
})
);
}
);
};
layerId = master01;
shapes = (
{
ref = L;
},
{
pos = (277,64);
ref = caron.alt;
}
);
width = 580;
}
);
unicode = 317;
},
{
glyphname = Lcommaaccent;
lastChange = "2022-08-04 16:02:52 +0000";
layers = (
{
background = {
anchors = (
{
name = bottom;
pos = (291,-265);
},
{
name = center;
pos = (290,346);
},
{
name = top;
pos = (290,691);
},
{
name = topright;
pos = (560,691);
}
);
shapes = (
{
closed = 1;
nodes = (
(224,69,o),
(216,127,o),
(216,342,cs),
(216,557,o),
(224,616,o),
(224,616,c),
(227,641,o),
(246,647,o),
(306,659,c),
(303,688,l),
(261,686,o),
(223,685,o),
(173,685,cs),
(123,685,o),
(81,686,o),
(39,688,c),
(36,659,l),
(96,647,o),
(115,641,o),
(118,616,c),
(118,616,o),
(126,557,o),
(126,342,cs),
(126,127,o),
(117,69,o),
(117,69,c),
(114,44,o),
(88,38,o),
(28,26,c),
(31,-3,l),
(73,-1,o),
(101,0,o),
(151,0,cs,{
name = hr01;
}),
(544,0,l),
(546,36,o),
(556,123,o),
(568,159,c),
(541,171,l),
(500,43,o),
(424,36,o),
(321,36,cs),
(278,36,o),
(226,48,o),
(224,69,c)
);
},
{
closed = 1;
nodes = (
(227,-114,o),
(243,-135,o),
(270,-135,cs),
(282,-135,o),
(297,-129,o),
(303,-119,c),
(305,-126,o),
(305,-132,o),
(305,-139,cs),
(305,-176,o),
(280,-215,o),
(246,-244,c),
(261,-265,l),
(319,-233,o),
(355,-183,o),
(355,-131,cs),
(355,-71,o),
(316,-45,o),
(281,-45,cs),
(252,-45,o),
(227,-62,o),
(227,-92,cs,{
name = hr00;
})
);
}
);
};
layerId = master01;
shapes = (
{
ref = L;
},
{
pos = (164,0);
ref = commaaccentcomb;
}
);
width = 580;
}
);
unicode = 315;
},
{
glyphname = Ldot;
lastChange = "2022-08-04 15:59:35 +0000";
layers = (
{
background = {
anchors = (
{
name = bottom;
pos = (290,0);
},
{
name = center;
pos = (290,346);
},
{
name = top;
pos = (290,691);
},
{
name = topright;
pos = (560,691);
}
);
shapes = (
{
closed = 1;
nodes = (
(224,69,o),
(216,127,o),
(216,342,cs),
(216,557,o),
(224,616,o),
(224,616,c),
(227,641,o),
(246,647,o),
(306,659,c),
(303,688,l),
(261,686,o),
(223,685,o),
(173,685,cs),
(123,685,o),
(81,686,o),
(39,688,c),
(36,659,l),
(96,647,o),
(115,641,o),
(118,616,c),
(118,616,o),
(126,557,o),
(126,342,cs),
(126,127,o),
(117,69,o),
(117,69,c),
(114,44,o),
(88,38,o),
(28,26,c),
(31,-3,l),
(73,-1,o),
(101,0,o),
(151,0,cs,{
name = hr01;
}),
(544,0,l),
(546,36,o),
(556,123,o),
(568,159,c),
(541,171,l),
(500,43,o),
(424,36,o),
(321,36,cs),
(278,36,o),
(226,48,o),
(224,69,c)
);
},
{
closed = 1;
nodes = (
(385,294,o),
(409,316,o),
(409,349,cs),
(409,379,o),
(385,401,o),
(356,401,cs),
(327,401,o),
(304,379,o),
(304,349,cs),
(304,316,o),
(327,294,o),
(356,294,cs,{
name = hr00;
})
);
}
);
};
layerId = master01;
shapes = (
{
ref = L;
},
{
pos = (274,3);
ref = periodcentered.loclCAT.case;
}
);
width = 580;
}
);
unicode = 319;
},
{
glyphname = Lslash;
lastChange = "2022-08-04 15:51:48 +0000";
layers = (
{
background = {
anchors = (
{
name = bottom;
pos = (290,0);
},
{
name = center;
pos = (290,346);
},
{
name = top;
pos = (290,691);
},
{
name = topright;
pos = (560,691);
}
);
shapes = (
{
closed = 1;
nodes = (
(420,540,l),
(38,261,l),
(38,200,l),
(420,479,l,{
name = hr00;
})
);
},
{
closed = 1;
nodes = (
(224,69,o),
(216,127,o),
(216,342,cs),
(216,557,o),
(224,616,o),
(224,616,c),
(227,641,o),
(246,647,o),
(306,659,c),
(303,688,l),
(261,686,o),
(223,685,o),
(173,685,cs),
(123,685,o),
(81,686,o),
(39,688,c),
(36,659,l),
(96,647,o),
(115,641,o),
(118,616,c),
(118,616,o),
(126,557,o),
(126,342,cs),
(126,127,o),
(117,69,o),
(117,69,c),
(114,44,o),
(88,38,o),
(28,26,c),
(31,-3,l),
(73,-1,o),
(101,0,o),
(151,0,cs,{
name = hr01;
}),
(544,0,l),
(546,36,o),
(556,123,o),
(568,159,c),
(541,171,l),
(500,43,o),
(424,36,o),
(321,36,cs),
(278,36,o),
(226,48,o),
(224,69,c)
);
}
);
};
layerId = master01;
shapes = (
{
closed = 1;
nodes = (
(420,540,l),
(38,261,l),
(38,200,l),
(420,479,l,{
name = hr00;
})
);
},
{
ref = L;
}
);
width = 580;
}
);
unicode = 321;
},
{
glyphname = M;
lastChange = "2022-08-04 15:46:42 +0000";
layers = (
{
anchors = (
{
name = bottom;
pos = (461,0);
},
{
name = top;
pos = (461,691);
}
);
background = {
shapes = (
{
closed = 1;
nodes = (
(701,431,o),
(708,245,o),
(708,158,cs),
(708,102,o),
(707,69,o),
(707,69,c),
(707,44,o),
(678,38,o),
(618,26,c),
(621,-3,l),
(663,-1,o),
(712,0,o),
(762,0,cs),
(812,0,o),
(853,-1,o),
(895,-3,c),
(898,26,l),
(838,38,o),
(816,44,o),
(813,69,c),
(813,69,o),
(806,117,o),
(795,342,cs),
(794,374,o),
(790,505,o),
(790,522,cs),
(790,596,o),
(794,616,o),
(794,616,c),
(797,641,o),
(816,647,o),
(876,659,c),
(873,688,l),
(831,686,o),
(746,685,o),
(696,685,c),
(458,95,l),
(220,685,l),
(170,685,o),
(88,686,o),
(46,688,c),
(43,659,l),
(103,647,o),
(122,641,o),
(125,616,c),
(125,616,o),
(129,582,o),
(129,483,cs),
(129,327,o),
(126,207,o),
(109,69,cs),
(106,45,o),
(83,38,o),
(23,26,c),
(26,-3,l),
(68,0,o),
(87,0,o),
(137,0,cs),
(187,0,o),
(237,-1,o),
(279,-3,c),
(282,26,l),
(222,38,o),
(191,44,o),
(188,69,c),
(188,69,o),
(185,101,o),
(185,174,cs),
(185,291,o),
(192,408,o),
(195,526,c),
(199,526,l),
(413,-10,l,{
name = hr01;
}),
(475,1,l),
(689,526,l),
(695,526,l)
);
}
);
};
layerId = master01;
shapes = (
{
closed = 1;
nodes = (
(701,431,o),
(708,245,o),
(708,158,cs),
(708,102,o),
(707,69,o),
(707,69,c),
(707,44,o),
(678,38,o),
(618,26,c),
(621,-3,l),
(663,-1,o),
(712,0,o),
(762,0,cs),
(812,0,o),
(853,-1,o),
(895,-3,c),
(898,26,l),
(838,38,o),
(816,44,o),
(813,69,c),
(813,69,o),
(806,117,o),
(795,342,cs),
(794,374,o),
(790,505,o),
(790,522,cs),
(790,596,o),
(794,616,o),
(794,616,c),
(797,641,o),
(816,647,o),
(876,659,c),
(873,688,l),
(831,686,o),
(746,685,o),
(696,685,c),
(458,95,l),
(220,685,l),
(170,685,o),
(88,686,o),
(46,688,c),
(43,659,l),
(103,647,o),
(122,641,o),
(125,616,c),
(125,616,o),
(129,582,o),
(129,483,cs),
(129,327,o),
(126,207,o),
(109,69,cs),
(106,45,o),
(83,38,o),
(23,26,c),
(26,-3,l),
(68,0,o),
(87,0,o),
(137,0,cs),
(187,0,o),
(237,-1,o),
(279,-3,c),
(282,26,l),
(222,38,o),
(191,44,o),
(188,69,c),
(188,69,o),
(185,101,o),
(185,174,cs),
(185,291,o),
(192,408,o),
(195,526,c),
(199,526,l),
(413,-10,l,{
name = hr01;
}),
(475,1,l),
(689,526,l),
(695,526,l)
);
}
);
width = 922;
}
);
unicode = 77;
},
{
glyphname = N;
lastChange = "2022-08-04 16:02:13 +0000";
layers = (
{
anchors = (
{
name = bottom;
pos = (405,0);
},
{
name = top;
pos = (413,691);
}
);
background = {
shapes = (
{
closed = 1;
nodes = (
(188,685,l),
(138,685,o),
(81,686,o),
(39,688,c),
(36,659,l),
(96,647,o),
(115,641,o),
(118,616,c),
(118,616,o),
(126,557,o),
(126,342,cs),
(126,127,o),
(118,69,o),
(118,69,c),
(115,44,o),
(81,37,o),
(21,26,c),
(24,-3,l),
(66,-1,o),
(96,0,o),
(146,0,cs),
(196,0,o),
(246,-1,o),
(288,-3,c),
(291,26,l),
(231,38,o),
(200,44,o),
(197,69,c),
(197,69,o),
(186,127,o),
(186,342,cs),
(186,427,o),
(188,493,o),
(190,537,c),
(195,537,l),
(601,-9,l,{
name = hr01;
}),
(681,0,l,{
name = hr02;
}),
(681,0,o),
(670,127,o),
(670,342,cs),
(670,557,o),
(680,616,o),
(680,616,c),
(683,641,o),
(702,647,o),
(762,659,c),
(759,688,l),
(717,686,o),
(702,685,o),
(652,685,cs),
(602,685,o),
(552,686,o),
(510,688,c),
(507,659,l),
(567,647,o),
(598,641,o),
(601,616,c),
(601,616,o),
(610,557,o),
(610,342,cs),
(610,262,o),
(610,188,o),
(608,132,c),
(603,132,l)
);
}
);
};
layerId = master01;
shapes = (
{
closed = 1;
nodes = (
(188,685,l),
(138,685,o),
(81,686,o),
(39,688,c),
(36,659,l),
(96,647,o),
(115,641,o),
(118,616,c),
(118,616,o),
(126,557,o),
(126,342,cs),
(126,127,o),
(118,69,o),
(118,69,c),
(115,44,o),
(81,37,o),
(21,26,c),
(24,-3,l),
(66,-1,o),
(96,0,o),
(146,0,cs),
(196,0,o),
(246,-1,o),
(288,-3,c),
(291,26,l),
(231,38,o),
(200,44,o),
(197,69,c),
(197,69,o),
(186,127,o),
(186,342,cs),
(186,427,o),
(188,493,o),
(190,537,c),
(195,537,l),
(601,-9,l,{
name = hr01;
}),
(681,0,l,{
name = hr02;
}),
(681,0,o),
(670,127,o),
(670,342,cs),
(670,557,o),
(680,616,o),
(680,616,c),
(683,641,o),
(702,647,o),
(762,659,c),
(759,688,l),
(717,686,o),
(702,685,o),
(652,685,cs),
(602,685,o),
(552,686,o),
(510,688,c),
(507,659,l),
(567,647,o),
(598,641,o),
(601,616,c),
(601,616,o),
(610,557,o),
(610,342,cs),
(610,262,o),
(610,188,o),
(608,132,c),
(603,132,l)
);
}
);
width = 785;
}
);
unicode = 78;
},
{
glyphname = Nacute;
lastChange = "2022-08-04 15:59:56 +0000";
layers = (
{
background = {
anchors = (
{
name = bottom;
pos = (393,0);
},
{
name = top;
pos = (455,954);
}
);
shapes = (
{
closed = 1;
nodes = (
(188,685,l),
(138,685,o),
(81,686,o),
(39,688,c),
(36,659,l),
(96,647,o),
(115,641,o),
(118,616,c),
(118,616,o),
(126,557,o),
(126,342,cs),
(126,127,o),
(118,69,o),
(118,69,c),
(115,44,o),
(81,37,o),
(21,26,c),
(24,-3,l),
(66,-1,o),
(96,0,o),
(146,0,cs),
(196,0,o),
(246,-1,o),
(288,-3,c),
(291,26,l),
(231,38,o),
(200,44,o),
(197,69,c),
(197,69,o),
(186,127,o),
(186,342,cs),
(186,427,o),
(188,493,o),
(190,537,c),
(195,537,l),
(601,-9,l,{
name = hr01;
}),
(681,0,l,{
name = hr02;
}),
(681,0,o),
(670,127,o),
(670,342,cs),
(670,557,o),
(680,616,o),
(680,616,c),
(683,641,o),
(702,647,o),
(762,659,c),
(759,688,l),
(717,686,o),
(702,685,o),
(652,685,cs),
(602,685,o),
(552,686,o),
(510,688,c),
(507,659,l),
(567,647,o),
(598,641,o),
(601,616,c),
(601,616,o),
(610,557,o),
(610,342,cs),
(610,262,o),
(610,188,o),
(608,132,c),
(603,132,l)
);
},
{
closed = 1;
nodes = (
(553,935,o),
(520,954,o),
(487,954,c),
(353,755,l),
(383,750,l),
(556,912,l,{
name = hr00;
})
);
}
);
};
layerId = master01;
shapes = (
{
ref = N;
},
{
pos = (413,0);
ref = acutecomb.case;
}
);
width = 785;
}
);
unicode = 323;
},
{
glyphname = Ncaron;
lastChange = "2022-08-04 15:59:54 +0000";
layers = (
{
background = {
anchors = (
{
name = bottom;
pos = (393,0);
},
{
name = top;
pos = (413,954);
}
);
shapes = (
{
closed = 1;
nodes = (
(188,685,l),
(138,685,o),
(81,686,o),
(39,688,c),
(36,659,l),
(96,647,o),
(115,641,o),
(118,616,c),
(118,616,o),
(126,557,o),
(126,342,cs),
(126,127,o),
(118,69,o),
(118,69,c),
(115,44,o),
(81,37,o),
(21,26,c),
(24,-3,l),
(66,-1,o),
(96,0,o),
(146,0,cs),
(196,0,o),
(246,-1,o),
(288,-3,c),
(291,26,l),
(231,38,o),
(200,44,o),
(197,69,c),
(197,69,o),
(186,127,o),
(186,342,cs),
(186,427,o),
(188,493,o),
(190,537,c),
(195,537,l),
(601,-9,l,{
name = hr01;
}),
(681,0,l,{
name = hr02;
}),
(681,0,o),
(670,127,o),
(670,342,cs),
(670,557,o),
(680,616,o),
(680,616,c),
(683,641,o),
(702,647,o),
(762,659,c),
(759,688,l),
(717,686,o),
(702,685,o),
(652,685,cs),
(602,685,o),
(552,686,o),
(510,688,c),
(507,659,l),
(567,647,o),
(598,641,o),
(601,616,c),
(601,616,o),
(610,557,o),
(610,342,cs),
(610,262,o),
(610,188,o),
(608,132,c),
(603,132,l)
);
},
{
closed = 1;
nodes = (
(535,949,l),
(505,954,l),
(412,840,l),
(320,954,l),
(290,949,l),
(394,754,l),
(431,754,l,{
name = hr00;
})
);
}
);
};
layerId = master01;
shapes = (
{
ref = N;
},
{
pos = (413,0);
ref = caroncomb.case;
}
);
width = 785;
}
);
unicode = 327;
},
{
glyphname = Ncommaaccent;
lastChange = "2022-08-04 16:02:52 +0000";
layers = (
{
background = {
anchors = (
{
name = bottom;
pos = (408,-265);
},
{
name = top;
pos = (393,691);
}
);
shapes = (
{
closed = 1;
nodes = (
(188,685,l),
(138,685,o),
(81,686,o),
(39,688,c),
(36,659,l),
(96,647,o),
(115,641,o),
(118,616,c),
(118,616,o),
(126,557,o),
(126,342,cs),
(126,127,o),
(118,69,o),
(118,69,c),
(115,44,o),
(81,37,o),
(21,26,c),
(24,-3,l),
(66,-1,o),
(96,0,o),
(146,0,cs),
(196,0,o),
(246,-1,o),
(288,-3,c),
(291,26,l),
(231,38,o),
(200,44,o),
(197,69,c),
(197,69,o),
(186,127,o),
(186,342,cs),
(186,427,o),
(188,493,o),
(190,537,c),
(195,537,l),
(601,-9,l,{
name = hr01;
}),
(681,0,l,{
name = hr02;
}),
(681,0,o),
(670,127,o),
(670,342,cs),
(670,557,o),
(680,616,o),
(680,616,c),
(683,641,o),
(702,647,o),
(762,659,c),
(759,688,l),
(717,686,o),
(702,685,o),
(652,685,cs),
(602,685,o),
(552,686,o),
(510,688,c),
(507,659,l),
(567,647,o),
(598,641,o),
(601,616,c),
(601,616,o),
(610,557,o),
(610,342,cs),
(610,262,o),
(610,188,o),
(608,132,c),
(603,132,l)
);
},
{
closed = 1;
nodes = (
(344,-114,o),
(360,-135,o),
(387,-135,cs),
(399,-135,o),
(414,-129,o),
(420,-119,c),
(422,-126,o),
(422,-132,o),
(422,-139,cs),
(422,-176,o),
(397,-215,o),
(363,-244,c),
(378,-265,l),
(436,-233,o),
(472,-183,o),
(472,-131,cs),
(472,-71,o),
(433,-45,o),
(398,-45,cs),
(369,-45,o),
(344,-62,o),
(344,-92,cs,{
name = hr00;
})
);
}
);
};
layerId = master01;
shapes = (
{
ref = N;
},
{
pos = (279,0);
ref = commaaccentcomb;
}
);
width = 785;
}
);
unicode = 325;
},
{
glyphname = Ntilde;
lastChange = "2022-08-04 15:59:57 +0000";
layers = (
{
background = {
anchors = (
{
name = bottom;
pos = (393,0);
},
{
name = top;
pos = (392,894);
}
);
shapes = (
{
closed = 1;
nodes = (
(188,685,l),
(138,685,o),
(81,686,o),
(39,688,c),
(36,659,l),
(96,647,o),
(115,641,o),
(118,616,c),
(118,616,o),
(126,557,o),
(126,342,cs),
(126,127,o),
(118,69,o),
(118,69,c),
(115,44,o),
(81,37,o),
(21,26,c),
(24,-3,l),
(66,-1,o),
(96,0,o),
(146,0,cs),
(196,0,o),
(246,-1,o),
(288,-3,c),
(291,26,l),
(231,38,o),
(200,44,o),
(197,69,c),
(197,69,o),
(186,127,o),
(186,342,cs),
(186,427,o),
(188,493,o),
(190,537,c),
(195,537,l),
(601,-9,l,{
name = hr01;
}),
(681,0,l,{
name = hr02;
}),
(681,0,o),
(670,127,o),
(670,342,cs),
(670,557,o),
(680,616,o),
(680,616,c),
(683,641,o),
(702,647,o),
(762,659,c),
(759,688,l),
(717,686,o),
(702,685,o),
(652,685,cs),
(602,685,o),
(552,686,o),
(510,688,c),
(507,659,l),
(567,647,o),
(598,641,o),
(601,616,c),
(601,616,o),
(610,557,o),
(610,342,cs),
(610,262,o),
(610,188,o),
(608,132,c),
(603,132,l)
);
},
{
closed = 1;
nodes = (
(437,764,o),
(298,1026,o),
(228,793,c),
(254,785,l),
(347,914,o),
(486,652,o),
(556,885,c),
(530,893,l)
);
}
);
};
layerId = master01;
shapes = (
{
ref = N;
},
{
pos = (413,0);
ref = tildecomb.case;
}
);
width = 785;
}
);
unicode = 209;
},
{
glyphname = Eng;
lastChange = "2022-08-04 15:46:42 +0000";
layers = (
{
anchors = (
{
name = bottom;
pos = (393,0);
},
{
name = top;
pos = (393,691);
}
);
background = {
shapes = (
{
closed = 1;
nodes = (
(608,-16,o),
(615,-45,o),
(615,-72,cs),
(615,-134,o),
(580,-193,o),
(541,-193,cs),
(517,-193,o),
(494,-182,o),
(481,-174,c),
(466,-193,l),
(475,-226,o),
(507,-263,o),
(517,-263,cs),
(536,-263,o),
(670,-262,o),
(670,0,cs),
(670,0,o),
(670,127,o),
(670,342,cs),
(670,557,o),
(680,616,o),
(680,616,c),
(683,641,o),
(702,647,o),
(762,659,c),
(759,688,l),
(717,686,o),
(702,685,o),
(652,685,cs),
(602,685,o),
(552,686,o),
(510,688,c),
(507,659,l),
(567,647,o),
(598,641,o),
(601,616,c),
(601,616,o),
(610,557,o),
(610,342,cs),
(610,262,o),
(610,188,o),
(608,132,c),
(603,132,l),
(188,685,l),
(138,685,o),
(81,686,o),
(39,688,c),
(36,659,l),
(96,647,o),
(115,641,o),
(118,616,c),
(118,616,o),
(126,557,o),
(126,342,cs),
(126,127,o),
(118,69,o),
(118,69,c),
(115,44,o),
(81,37,o),
(21,26,c),
(24,-3,l),
(66,-1,o),
(96,0,o),
(146,0,cs),
(196,0,o),
(246,-1,o),
(288,-3,c),
(291,26,l),
(231,38,o),
(200,44,o),
(197,69,c),
(197,69,o),
(186,127,o),
(186,342,cs),
(186,427,o),
(188,493,o),
(190,537,c),
(195,537,l),
(591,7,ls,{
name = hr00;
})
);
}
);
};
layerId = master01;
shapes = (
{
closed = 1;
nodes = (
(608,-16,o),
(615,-45,o),
(615,-72,cs),
(615,-134,o),
(580,-193,o),
(541,-193,cs),
(517,-193,o),
(494,-182,o),
(481,-174,c),
(466,-193,l),
(475,-226,o),
(507,-263,o),
(517,-263,cs),
(536,-263,o),
(670,-262,o),
(670,0,cs),
(670,342,ls),
(670,557,o),
(680,616,o),
(680,616,c),
(683,641,o),
(702,647,o),
(762,659,c),
(759,688,l),
(717,686,o),
(702,685,o),
(652,685,cs),
(602,685,o),
(552,686,o),
(510,688,c),
(507,659,l),
(567,647,o),
(598,641,o),
(601,616,c),
(601,616,o),
(610,557,o),
(610,342,cs),
(610,262,o),
(610,188,o),
(608,132,c),
(603,132,l),
(188,685,l),
(138,685,o),
(81,686,o),
(39,688,c),
(36,659,l),
(96,647,o),
(115,641,o),
(118,616,c),
(118,616,o),
(126,557,o),
(126,342,cs),
(126,127,o),
(118,69,o),
(118,69,c),
(115,44,o),
(81,37,o),
(21,26,c),
(24,-3,l),
(66,-1,o),
(96,0,o),
(146,0,cs),
(196,0,o),
(246,-1,o),
(288,-3,c),
(291,26,l),
(231,38,o),
(200,44,o),
(197,69,c),
(197,69,o),
(186,127,o),
(186,342,cs),
(186,427,o),
(188,493,o),
(190,537,c),
(195,537,l),
(591,7,ls,{
name = hr00;
})
);
}
);
width = 785;
}
);
unicode = 330;
},
{
glyphname = O;
lastChange = "2022-08-04 15:46:42 +0000";
layers = (
{
anchors = (
{
name = bottom;
pos = (393,0);
},
{
name = center;
pos = (393,346);
},
{
name = ogonek;
pos = (707,10);
},
{
name = top;
pos = (393,691);
},
{
name = topleft;
pos = (20,691);
},
{
name = topright;
pos = (766,691);
}
);
background = {
shapes = (
{
closed = 1;
nodes = (
(632,216,o),
(573,32,o),
(388,32,cs),
(210,32,o),
(154,185,o),
(154,350,cs),
(154,437,o),
(195,650,o),
(398,650,cs),
(589,650,o),
(632,484,o),
(632,312,cs,{
name = hr00;
})
);
},
{
closed = 1;
nodes = (
(737,564,o),
(641,698,o),
(414,698,cs),
(152,698,o),
(49,507,o),
(49,314,cs),
(49,119,o),
(145,-16,o),
(372,-16,cs),
(634,-16,o),
(737,176,o),
(737,369,cs)
);
}
);
};
layerId = master01;
shapes = (
{
closed = 1;
nodes = (
(632,216,o),
(573,32,o),
(388,32,cs),
(210,32,o),
(154,185,o),
(154,350,cs),
(154,437,o),
(195,650,o),
(398,650,cs),
(589,650,o),
(632,484,o),
(632,312,cs,{
name = hr00;
})
);
},
{
closed = 1;
nodes = (
(737,564,o),
(641,698,o),
(414,698,cs),
(152,698,o),
(49,507,o),
(49,314,cs),
(49,119,o),
(145,-16,o),
(372,-16,cs),
(634,-16,o),
(737,176,o),
(737,369,cs)
);
}
);
width = 786;
}
);
unicode = 79;
},
{
glyphname = Oacute;
lastChange = "2022-08-04 15:51:48 +0000";
layers = (
{
background = {
anchors = (
{
name = bottom;
pos = (393,0);
},
{
name = center;
pos = (393,346);
},
{
name = ogonek;
pos = (707,10);
},
{
name = top;
pos = (442,951);
},
{
name = topleft;
pos = (20,691);
},
{
name = topright;
pos = (766,691);
}
);
shapes = (
{
closed = 1;
nodes = (
(632,216,o),
(573,32,o),
(388,32,cs),
(210,32,o),
(154,185,o),
(154,350,cs),
(154,437,o),
(195,650,o),
(398,650,cs),
(589,650,o),
(632,484,o),
(632,312,cs,{
name = hr00;
})
);
},
{
closed = 1;
nodes = (
(737,564,o),
(641,698,o),
(414,698,cs),
(152,698,o),
(49,507,o),
(49,314,cs),
(49,119,o),
(145,-16,o),
(372,-16,cs),
(634,-16,o),
(737,176,o),
(737,369,cs)
);
},
{
closed = 1;
nodes = (
(540,932,o),
(507,951,o),
(474,951,c),
(340,752,l),
(370,747,l),
(543,909,l,{
name = hr00;
})
);
}
);
};
layerId = master01;
shapes = (
{
ref = O;
},
{
pos = (393,0);
ref = acutecomb.case;
}
);
width = 786;
}
);
unicode = 211;
},
{
glyphname = Obreve;
lastChange = "2022-08-04 15:51:48 +0000";
layers = (
{
background = {
anchors = (
{
name = bottom;
pos = (393,0);
},
{
name = center;
pos = (393,346);
},
{
name = ogonek;
pos = (707,10);
},
{
name = top;
pos = (393,896);
},
{
name = topleft;
pos = (20,691);
},
{
name = topright;
pos = (766,691);
}
);
shapes = (
{
closed = 1;
nodes = (
(632,216,o),
(573,32,o),
(388,32,cs),
(210,32,o),
(154,185,o),
(154,350,cs),
(154,437,o),
(195,650,o),
(398,650,cs),
(589,650,o),
(632,484,o),
(632,312,cs,{
name = hr00;
})
);
},
{
closed = 1;
nodes = (
(737,564,o),
(641,698,o),
(414,698,cs),
(152,698,o),
(49,507,o),
(49,314,cs),
(49,119,o),
(145,-16,o),
(372,-16,cs),
(634,-16,o),
(737,176,o),
(737,369,cs)
);
},
{
closed = 1;
nodes = (
(273,819,o),
(333,783,o),
(392,783,cs),
(452,783,o),
(512,819,o),
(522,891,c),
(485,896,l),
(478,860,o),
(435,843,o),
(392,843,cs),
(350,843,o),
(307,860,o),
(300,896,c),
(263,891,l,{
name = hr00;
})
);
}
);
};
layerId = master01;
shapes = (
{
ref = O;
},
{
pos = (393,0);
ref = brevecomb.case;
}
);
width = 786;
}
);
unicode = 334;
},
{
glyphname = Ocircumflex;
lastChange = "2022-08-04 15:51:48 +0000";
layers = (
{
background = {
anchors = (
{
name = bottom;
pos = (393,0);
},
{
name = center;
pos = (393,346);
},
{
name = ogonek;
pos = (707,10);
},
{
name = top;
pos = (393,946);
},
{
name = topleft;
pos = (20,691);
},
{
name = topright;
pos = (766,691);
}
);
shapes = (
{
closed = 1;
nodes = (
(632,216,o),
(573,32,o),
(388,32,cs),
(210,32,o),
(154,185,o),
(154,350,cs),
(154,437,o),
(195,650,o),
(398,650,cs),
(589,650,o),
(632,484,o),
(632,312,cs,{
name = hr00;
})
);
},
{
closed = 1;
nodes = (
(737,564,o),
(641,698,o),
(414,698,cs),
(152,698,o),
(49,507,o),
(49,314,cs),
(49,119,o),
(145,-16,o),
(372,-16,cs),
(634,-16,o),
(737,176,o),
(737,369,cs)
);
},
{
closed = 1;
nodes = (
(280,752,l),
(310,747,l),
(392,851,l),
(475,747,l),
(505,752,l),
(411,946,l),
(374,946,l,{
name = hr00;
})
);
}
);
};
layerId = master01;
shapes = (
{
ref = O;
},
{
pos = (393,0);
ref = circumflexcomb.case;
}
);
width = 786;
}
);
unicode = 212;
},
{
glyphname = Odieresis;
lastChange = "2022-08-04 15:51:48 +0000";
layers = (
{
background = {
anchors = (
{
name = bottom;
pos = (393,0);
},
{
name = center;
pos = (393,346);
},
{
name = ogonek;
pos = (707,10);
},
{
name = top;
pos = (393,898);
},
{
name = topleft;
pos = (20,691);
},
{
name = topright;
pos = (766,691);
}
);
shapes = (
{
closed = 1;
nodes = (
(632,216,o),
(573,32,o),
(388,32,cs),
(210,32,o),
(154,185,o),
(154,350,cs),
(154,437,o),
(195,650,o),
(398,650,cs),
(589,650,o),
(632,484,o),
(632,312,cs,{
name = hr00;
})
);
},
{
closed = 1;
nodes = (
(737,564,o),
(641,698,o),
(414,698,cs),
(152,698,o),
(49,507,o),
(49,314,cs),
(49,119,o),
(145,-16,o),
(372,-16,cs),
(634,-16,o),
(737,176,o),
(737,369,cs)
);
},
{
closed = 1;
nodes = (
(512,792,o),
(535,815,o),
(535,846,cs),
(535,875,o),
(512,898,o),
(483,898,cs),
(454,898,o),
(431,875,o),
(431,846,cs),
(431,815,o),
(454,792,o),
(483,792,cs,{
name = hr00;
})
);
},
{
closed = 1;
nodes = (
(332,792,o),
(355,815,o),
(355,846,cs),
(355,875,o),
(332,898,o),
(303,898,cs),
(274,898,o),
(251,875,o),
(251,846,cs),
(251,815,o),
(274,792,o),
(303,792,cs)
);
}
);
};
layerId = master01;
shapes = (
{
ref = O;
},
{
pos = (393,0);
ref = dieresiscomb.case;
}
);
width = 786;
}
);
unicode = 214;
},
{
glyphname = Ograve;
lastChange = "2022-08-04 15:51:48 +0000";
layers = (
{
background = {
anchors = (
{
name = bottom;
pos = (393,0);
},
{
name = center;
pos = (393,346);
},
{
name = ogonek;
pos = (707,10);
},
{
name = top;
pos = (352,951);
},
{
name = topleft;
pos = (20,691);
},
{
name = topright;
pos = (766,691);
}
);
shapes = (
{
closed = 1;
nodes = (
(632,216,o),
(573,32,o),
(388,32,cs),
(210,32,o),
(154,185,o),
(154,350,cs),
(154,437,o),
(195,650,o),
(398,650,cs),
(589,650,o),
(632,484,o),
(632,312,cs,{
name = hr00;
})
);
},
{
closed = 1;
nodes = (
(737,564,o),
(641,698,o),
(414,698,cs),
(152,698,o),
(49,507,o),
(49,314,cs),
(49,119,o),
(145,-16,o),
(372,-16,cs),
(634,-16,o),
(737,176,o),
(737,369,cs)
);
},
{
closed = 1;
nodes = (
(453,752,l),
(319,951,l),
(286,951,o),
(253,932,o),
(250,909,c),
(423,747,l,{
name = hr00;
})
);
}
);
};
layerId = master01;
shapes = (
{
ref = O;
},
{
pos = (393,0);
ref = gravecomb.case;
}
);
width = 786;
}
);
unicode = 210;
},
{
glyphname = Ohungarumlaut;
lastChange = "2022-08-04 16:00:20 +0000";
layers = (
{
background = {
anchors = (
{
name = bottom;
pos = (393,0);
},
{
name = center;
pos = (393,346);
},
{
name = ogonek;
pos = (707,10);
},
{
name = top;
pos = (453,954);
},
{
name = topleft;
pos = (20,691);
},
{
name = topright;
pos = (766,691);
}
);
shapes = (
{
closed = 1;
nodes = (
(632,216,o),
(573,32,o),
(388,32,cs),
(210,32,o),
(154,185,o),
(154,350,cs),
(154,437,o),
(195,650,o),
(398,650,cs),
(589,650,o),
(632,484,o),
(632,312,cs,{
name = hr00;
})
);
},
{
closed = 1;
nodes = (
(737,564,o),
(641,698,o),
(414,698,cs),
(152,698,o),
(49,507,o),
(49,314,cs),
(49,119,o),
(145,-16,o),
(372,-16,cs),
(634,-16,o),
(737,176,o),
(737,369,cs)
);
},
{
closed = 1;
nodes = (
(637,935,o),
(604,954,o),
(571,954,c),
(437,755,l),
(467,750,l),
(640,912,l,{
name = hr00;
})
);
},
{
closed = 1;
nodes = (
(466,935,o),
(433,954,o),
(400,954,c),
(266,755,l),
(296,750,l),
(469,912,l)
);
}
);
};
layerId = master01;
shapes = (
{
ref = O;
},
{
pos = (393,0);
ref = hungarumlautcomb.case;
}
);
width = 786;
}
);
unicode = 336;
},
{
glyphname = Omacron;
lastChange = "2022-08-04 15:51:48 +0000";
layers = (
{
background = {
anchors = (
{
name = bottom;
pos = (393,0);
},
{
name = center;
pos = (393,346);
},
{
name = ogonek;
pos = (707,10);
},
{
name = top;
pos = (421,866);
},
{
name = topleft;
pos = (20,691);
},
{
name = topright;
pos = (766,691);
}
);
shapes = (
{
closed = 1;
nodes = (
(632,216,o),
(573,32,o),
(388,32,cs),
(210,32,o),
(154,185,o),
(154,350,cs),
(154,437,o),
(195,650,o),
(398,650,cs),
(589,650,o),
(632,484,o),
(632,312,cs,{
name = hr00;
})
);
},
{
closed = 1;
nodes = (
(737,564,o),
(641,698,o),
(414,698,cs),
(152,698,o),
(49,507,o),
(49,314,cs),
(49,119,o),
(145,-16,o),
(372,-16,cs),
(634,-16,o),
(737,176,o),
(737,369,cs)
);
},
{
closed = 1;
nodes = (
(574,865,l),
(532,862,o),
(490,861,o),
(448,861,cs),
(398,861,o),
(349,863,o),
(299,866,c,{
name = hr01;
}),
(260,820,l),
(268,804,l),
(314,807,o),
(360,808,o),
(405,808,cs,{
name = hr02;
}),
(451,808,o),
(497,807,o),
(543,804,c,{
name = hr03;
}),
(582,850,l)
);
}
);
};
layerId = master01;
shapes = (
{
ref = O;
},
{
pos = (393,0);
ref = macroncomb.case;
}
);
width = 786;
}
);
unicode = 332;
},
{
glyphname = Oslash;
lastChange = "2022-08-04 15:51:48 +0000";
layers = (
{
background = {
anchors = (
{
name = bottom;
pos = (393,0);
},
{
name = center;
pos = (393,346);
},
{
name = ogonek;
pos = (707,10);
},
{
name = top;
pos = (393,691);
},
{
name = topleft;
pos = (20,691);
},
{
name = topright;
pos = (766,691);
}
);
shapes = (
{
closed = 1;
nodes = (
(632,216,o),
(573,32,o),
(388,32,cs),
(210,32,o),
(154,185,o),
(154,350,cs),
(154,437,o),
(195,650,o),
(398,650,cs),
(589,650,o),
(632,484,o),
(632,312,cs,{
name = hr00;
})
);
},
{
closed = 1;
nodes = (
(737,564,o),
(641,698,o),
(414,698,cs),
(152,698,o),
(49,507,o),
(49,314,cs),
(49,119,o),
(145,-16,o),
(372,-16,cs),
(634,-16,o),
(737,176,o),
(737,369,cs)
);
},
{
closed = 1;
nodes = (
(333,-80,l),
(518,761,l),
(453,761,l),
(268,-80,l,{
name = hr00;
})
);
}
);
};
layerId = master01;
shapes = (
{
ref = O;
},
{
pos = (248,60);
ref = slash;
}
);
width = 786;
}
);
unicode = 216;
},
{
glyphname = Oslashacute;
lastChange = "2022-08-04 15:51:48 +0000";
layers = (
{
background = {
anchors = (
{
name = _top;
pos = (423,685);
},
{
name = bottom;
pos = (393,0);
},
{
name = center;
pos = (393,346);
},
{
name = ogonek;
pos = (707,10);
},
{
name = top;
pos = (393,691);
},
{
name = topleft;
pos = (20,691);
},
{
name = topright;
pos = (766,691);
}
);
shapes = (
{
closed = 1;
nodes = (
(521,932,o),
(488,951,o),
(455,951,c),
(321,752,l),
(351,747,l),
(524,909,l,{
name = hr00;
})
);
},
{
closed = 1;
nodes = (
(632,216,o),
(573,32,o),
(388,32,cs),
(210,32,o),
(154,185,o),
(154,350,cs),
(154,437,o),
(195,650,o),
(398,650,cs),
(589,650,o),
(632,484,o),
(632,312,cs,{
name = hr00;
})
);
},
{
closed = 1;
nodes = (
(737,564,o),
(641,698,o),
(414,698,cs),
(152,698,o),
(49,507,o),
(49,314,cs),
(49,119,o),
(145,-16,o),
(372,-16,cs),
(634,-16,o),
(737,176,o),
(737,369,cs)
);
},
{
closed = 1;
nodes = (
(333,-80,l),
(518,761,l),
(453,761,l),
(268,-80,l,{
name = hr00;
})
);
}
);
};
layerId = master01;
shapes = (
{
ref = Oslash;
},
{
pos = (393,0);
ref = acutecomb.case;
}
);
width = 786;
}
);
unicode = 510;
},
{
glyphname = Otilde;
lastChange = "2022-08-04 15:52:11 +0000";
layers = (
{
background = {
anchors = (
{
name = bottom;
pos = (393,0);
},
{
name = center;
pos = (393,346);
},
{
name = ogonek;
pos = (707,10);
},
{
name = top;
pos = (393,894);
},
{
name = topleft;
pos = (20,691);
},
{
name = topright;
pos = (766,691);
}
);
shapes = (
{
closed = 1;
nodes = (
(632,216,o),
(573,32,o),
(388,32,cs),
(210,32,o),
(154,185,o),
(154,350,cs),
(154,437,o),
(195,650,o),
(398,650,cs),
(589,650,o),
(632,484,o),
(632,312,cs,{
name = hr00;
})
);
},
{
closed = 1;
nodes = (
(737,564,o),
(641,698,o),
(414,698,cs),
(152,698,o),
(49,507,o),
(49,314,cs),
(49,119,o),
(145,-16,o),
(372,-16,cs),
(634,-16,o),
(737,176,o),
(737,369,cs)
);
},
{
closed = 1;
nodes = (
(438,764,o),
(299,1026,o),
(229,793,c),
(255,785,l),
(348,914,o),
(487,652,o),
(557,885,c),
(531,893,l)
);
}
);
};
layerId = master01;
shapes = (
{
ref = O;
},
{
pos = (393,0);
ref = tildecomb.case;
}
);
width = 786;
}
);
unicode = 213;
},
{
glyphname = OE;
lastChange = "2022-08-04 15:46:42 +0000";
layers = (
{
anchors = (
{
name = bottom;
pos = (492,0);
},
{
name = top;
pos = (492,691);
}
);
background = {
shapes = (
{
closed = 1;
nodes = (
(509,-12,o),
(557,0,o),
(925,0,c,{
name = hr01;
}),
(927,36,o),
(937,123,o),
(949,159,c),
(922,171,l),
(881,43,o),
(805,36,o),
(702,36,cs),
(659,36,o),
(608,44,o),
(601,68,c),
(601,68,o),
(590,121,o),
(590,327,c),
(653,327,o),
(725,325,o),
(750,319,cs),
(775,313,o),
(780,298,o),
(793,231,c),
(828,236,l),
(822,272,o),
(820,310,o),
(820,347,cs),
(820,385,o),
(822,422,o),
(828,459,c),
(793,463,l),
(780,396,o),
(775,381,o),
(750,375,cs),
(725,369,o),
(653,367,o),
(590,367,c),
(591,556,o),
(601,621,o),
(601,621,c),
(604,640,o),
(624,643,o),
(653,643,cs),
(815,643,o),
(852,641,o),
(891,517,c),
(918,529,l),
(912,562,o),
(906,633,o),
(906,676,cs),
(906,681,o),
(906,686,o),
(906,691,c),
(849,685,o),
(759,682,o),
(665,682,cs,{
name = hr02;
}),
(576,682,o),
(483,684,o),
(414,688,c),
(152,688,o),
(49,505,o),
(49,314,cs),
(49,121,o),
(145,-12,o),
(372,-12,cs)
);
},
{
closed = 1;
nodes = (
(219,32,o),
(154,195,o),
(154,350,cs),
(154,455,o),
(209,646,o),
(410,646,cs),
(458,646,o),
(489,640,o),
(492,616,c),
(492,616,o),
(500,557,o),
(500,342,cs),
(500,127,o),
(491,69,o),
(491,69,c),
(488,44,o),
(445,32,o),
(395,32,cs)
);
}
);
};
layerId = master01;
shapes = (
{
closed = 1;
nodes = (
(509,-12,o),
(557,0,o),
(925,0,c,{
name = hr01;
}),
(927,36,o),
(937,123,o),
(949,159,c),
(922,171,l),
(881,43,o),
(805,36,o),
(702,36,cs),
(659,36,o),
(608,44,o),
(601,68,c),
(601,68,o),
(590,121,o),
(590,327,c),
(653,327,o),
(725,325,o),
(750,319,cs),
(775,313,o),
(780,298,o),
(793,231,c),
(828,236,l),
(822,272,o),
(820,310,o),
(820,347,cs),
(820,385,o),
(822,422,o),
(828,459,c),
(793,463,l),
(780,396,o),
(775,381,o),
(750,375,cs),
(725,369,o),
(653,367,o),
(590,367,c),
(591,556,o),
(601,621,o),
(601,621,c),
(604,640,o),
(624,643,o),
(653,643,cs),
(815,643,o),
(852,641,o),
(891,517,c),
(918,529,l),
(912,562,o),
(906,633,o),
(906,676,cs),
(906,691,l),
(849,685,o),
(759,682,o),
(665,682,cs,{
name = hr02;
}),
(576,682,o),
(483,684,o),
(414,688,c),
(152,688,o),
(49,505,o),
(49,314,cs),
(49,121,o),
(145,-12,o),
(372,-12,cs)
);
},
{
closed = 1;
nodes = (
(219,32,o),
(154,195,o),
(154,350,cs),
(154,455,o),
(209,646,o),
(410,646,cs),
(458,646,o),
(489,640,o),
(492,616,c),
(492,616,o),
(500,557,o),
(500,342,cs),
(500,127,o),
(491,69,o),
(491,69,c),
(488,44,o),
(445,32,o),
(395,32,cs)
);
}
);
width = 983;
}
);
unicode = 338;
},
{
glyphname = P;
lastChange = "2022-08-04 15:46:42 +0000";
layers = (
{
anchors = (
{
name = bottom;
pos = (288,0);
},
{
name = top;
pos = (288,691);
}
);
background = {
shapes = (
{
closed = 1;
nodes = (
(123,685,o),
(81,686,o),
(39,688,c,{
name = hr01;
}),
(36,659,l),
(96,647,o),
(115,641,o),
(118,616,c),
(118,616,o),
(126,557,o),
(126,342,cs),
(126,128,o),
(118,69,o),
(118,69,c),
(115,44,o),
(89,38,o),
(29,26,c),
(32,-3,l),
(74,-1,o),
(123,0,o),
(173,0,cs,{
name = hr02;
}),
(223,0,o),
(264,-1,o),
(306,-3,c,{
name = hr03;
}),
(309,26,l),
(249,38,o),
(227,44,o),
(224,69,c),
(224,69,o),
(216,71,o),
(216,286,c),
(241,282,o),
(265,280,o),
(287,280,cs),
(456,280,o),
(551,396,o),
(551,502,cs),
(551,597,o),
(480,685,o),
(325,685,cs),
(173,685,l)
);
},
{
closed = 1;
nodes = (
(216,557,o),
(226,609,o),
(226,609,c),
(231,642,o),
(240,643,o),
(287,643,cs),
(395,643,o),
(455,602,o),
(455,489,cs),
(455,371,o),
(381,322,o),
(271,322,cs),
(254,322,o),
(235,323,o),
(216,325,c)
);
}
);
};
layerId = master01;
shapes = (
{
closed = 1;
nodes = (
(123,685,o),
(81,686,o),
(39,688,c,{
name = hr01;
}),
(36,659,l),
(96,647,o),
(115,641,o),
(118,616,c),
(118,616,o),
(126,557,o),
(126,342,cs),
(126,128,o),
(118,69,o),
(118,69,c),
(115,44,o),
(89,38,o),
(29,26,c),
(32,-3,l),
(74,-1,o),
(123,0,o),
(173,0,cs,{
name = hr02;
}),
(223,0,o),
(264,-1,o),
(306,-3,c,{
name = hr03;
}),
(309,26,l),
(249,38,o),
(227,44,o),
(224,69,c),
(224,69,o),
(216,71,o),
(216,286,c),
(241,282,o),
(265,280,o),
(287,280,cs),
(456,280,o),
(551,396,o),
(551,502,cs),
(551,597,o),
(480,685,o),
(325,685,cs),
(173,685,ls)
);
},
{
closed = 1;
nodes = (
(216,557,o),
(226,609,o),
(226,609,c),
(231,642,o),
(240,643,o),
(287,643,cs),
(395,643,o),
(455,602,o),
(455,489,cs),
(455,371,o),
(381,322,o),
(271,322,cs),
(254,322,o),
(235,323,o),
(216,325,c)
);
}
);
width = 576;
}
);
unicode = 80;
},
{
glyphname = Thorn;
lastChange = "2022-08-04 15:46:42 +0000";
layers = (
{
anchors = (
{
name = bottom;
pos = (288,0);
},
{
name = top;
pos = (288,691);
}
);
background = {
shapes = (
{
closed = 1;
nodes = (
(224,69,o),
(220,98,o),
(218,180,c),
(242,176,o),
(265,175,o),
(287,175,cs),
(456,175,o),
(551,291,o),
(551,397,cs),
(551,492,o),
(480,580,o),
(325,580,cs),
(221,580,l),
(222,606,o),
(224,616,o),
(224,616,c),
(227,641,o),
(246,647,o),
(306,659,c),
(303,688,l),
(261,686,o),
(223,685,o),
(173,685,cs),
(123,685,o),
(81,686,o),
(39,688,c),
(36,659,l),
(96,647,o),
(115,641,o),
(118,616,c),
(118,616,o),
(126,557,o),
(126,342,cs),
(126,128,o),
(118,69,o),
(118,69,c),
(115,44,o),
(89,38,o),
(29,26,c),
(32,-3,l),
(74,-1,o),
(123,0,o),
(173,0,cs,{
name = hr01;
}),
(223,0,o),
(264,-1,o),
(306,-3,c,{
name = hr02;
}),
(309,26,l),
(249,38,o),
(227,44,o),
(224,69,c)
);
},
{
closed = 1;
nodes = (
(216,452,o),
(226,504,o),
(226,504,c),
(231,537,o),
(240,538,o),
(287,538,cs),
(395,538,o),
(455,497,o),
(455,384,cs),
(455,266,o),
(381,217,o),
(271,217,cs),
(254,217,o),
(235,218,o),
(216,220,c)
);
}
);
};
layerId = master01;
shapes = (
{
closed = 1;
nodes = (
(224,69,o),
(220,98,o),
(218,180,c),
(242,176,o),
(265,175,o),
(287,175,cs),
(456,175,o),
(551,291,o),
(551,397,cs),
(551,492,o),
(480,580,o),
(325,580,cs),
(221,580,l),
(222,606,o),
(224,616,o),
(224,616,c),
(227,641,o),
(246,647,o),
(306,659,c),
(303,688,l),
(261,686,o),
(223,685,o),
(173,685,cs),
(123,685,o),
(81,686,o),
(39,688,c),
(36,659,l),
(96,647,o),
(115,641,o),
(118,616,c),
(118,616,o),
(126,557,o),
(126,342,cs),
(126,128,o),
(118,69,o),
(118,69,c),
(115,44,o),
(89,38,o),
(29,26,c),
(32,-3,l),
(74,-1,o),
(123,0,o),
(173,0,cs,{
name = hr01;
}),
(223,0,o),
(264,-1,o),
(306,-3,c,{
name = hr02;
}),
(309,26,l),
(249,38,o),
(227,44,o),
(224,69,c)
);
},
{
closed = 1;
nodes = (
(216,452,o),
(226,504,o),
(226,504,c),
(231,537,o),
(240,538,o),
(287,538,cs),
(395,538,o),
(455,497,o),
(455,384,cs),
(455,266,o),
(381,217,o),
(271,217,cs),
(254,217,o),
(235,218,o),
(216,220,c)
);
}
);
width = 576;
}
);
unicode = 222;
},
{
glyphname = Q;
lastChange = "2022-08-04 15:51:48 +0000";
layers = (
{
background = {
anchors = (
{
name = bottom;
pos = (393,0);
},
{
name = center;
pos = (393,346);
},
{
name = ogonek;
pos = (707,10);
},
{
name = top;
pos = (393,691);
},
{
name = topleft;
pos = (20,691);
},
{
name = topright;
pos = (766,691);
}
);
shapes = (
{
closed = 1;
nodes = (
(381,-16,l),
(512,-77,o),
(717,-217,o),
(717,-217,c),
(800,-178,l),
(800,-156,l),
(488,-1,l,{
name = hr00;
})
);
},
{
closed = 1;
nodes = (
(632,216,o),
(573,32,o),
(388,32,cs),
(210,32,o),
(154,185,o),
(154,350,cs),
(154,437,o),
(195,650,o),
(398,650,cs),
(589,650,o),
(632,484,o),
(632,312,cs,{
name = hr00;
})
);
},
{
closed = 1;
nodes = (
(737,564,o),
(641,698,o),
(414,698,cs),
(152,698,o),
(49,507,o),
(49,314,cs),
(49,119,o),
(145,-16,o),
(372,-16,cs),
(634,-16,o),
(737,176,o),
(737,369,cs)
);
}
);
};
layerId = master01;
shapes = (
{
closed = 1;
nodes = (
(381,-16,l),
(512,-77,o),
(717,-217,o),
(717,-217,c),
(800,-178,l),
(800,-156,l),
(488,-1,l,{
name = hr00;
})
);
},
{
ref = O;
}
);
width = 792;
}
);
unicode = 81;
},
{
glyphname = R;
lastChange = "2022-08-04 15:46:42 +0000";
layers = (
{
anchors = (
{
name = bottom;
pos = (334,0);
},
{
name = top;
pos = (334,691);
}
);
background = {
shapes = (
{
closed = 1;
nodes = (
(227,69,o),
(216,105,o),
(216,320,c),
(283,320,o),
(302,321,o),
(319,322,c),
(496,-9,l),
(496,-9,o),
(601,-3,o),
(665,-3,c,{
name = hr01;
}),
(668,26,l),
(608,31,o),
(585,43,o),
(585,43,c),
(409,336,l),
(512,387,o),
(544,457,o),
(544,525,cs),
(544,609,o),
(482,685,o),
(346,685,cs),
(173,685,ls),
(123,685,o),
(81,686,o),
(39,688,c,{
name = hr02;
}),
(36,659,l),
(96,647,o),
(115,641,o),
(118,616,c),
(118,616,o),
(126,557,o),
(126,342,cs),
(126,128,o),
(118,69,o),
(118,69,c),
(115,44,o),
(89,38,o),
(29,26,c),
(32,-3,l),
(74,-1,o),
(123,0,o),
(174,0,cs,{
name = hr03;
}),
(226,0,o),
(268,-1,o),
(311,-3,c,{
name = hr04;
}),
(314,26,l),
(252,38,o),
(230,44,o),
(227,69,c)
);
},
{
closed = 1;
nodes = (
(340,362,o),
(289,359,o),
(216,359,c),
(216,561,o),
(226,621,o),
(226,621,c),
(231,640,o),
(239,643,o),
(287,643,cs),
(397,643,o),
(453,601,o),
(453,525,cs),
(453,455,o),
(422,399,o),
(373,369,c)
);
}
);
};
layerId = master01;
shapes = (
{
closed = 1;
nodes = (
(227,69,o),
(216,105,o),
(216,320,c),
(283,320,o),
(302,321,o),
(319,322,c),
(496,-9,l),
(496,-9,o),
(601,-3,o),
(665,-3,c,{
name = hr01;
}),
(668,26,l),
(608,31,o),
(585,43,o),
(585,43,c),
(409,336,l),
(512,387,o),
(544,457,o),
(544,525,cs),
(544,609,o),
(482,685,o),
(346,685,cs),
(173,685,ls),
(123,685,o),
(81,686,o),
(39,688,c,{
name = hr02;
}),
(36,659,l),
(96,647,o),
(115,641,o),
(118,616,c),
(118,616,o),
(126,557,o),
(126,342,cs),
(126,128,o),
(118,69,o),
(118,69,c),
(115,44,o),
(89,38,o),
(29,26,c),
(32,-3,l),
(74,-1,o),
(123,0,o),
(174,0,cs,{
name = hr03;
}),
(226,0,o),
(268,-1,o),
(311,-3,c,{
name = hr04;
}),
(314,26,l),
(252,38,o),
(230,44,o),
(227,69,c)
);
},
{
closed = 1;
nodes = (
(340,362,o),
(289,359,o),
(216,359,c),
(216,561,o),
(226,621,o),
(226,621,c),
(231,640,o),
(239,643,o),
(287,643,cs),
(397,643,o),
(453,601,o),
(453,525,cs),
(453,455,o),
(422,399,o),
(373,369,c)
);
}
);
width = 668;
}
);
unicode = 82;
},
{
glyphname = Racute;
lastChange = "2022-08-04 15:51:48 +0000";
layers = (
{
background = {
anchors = (
{
name = bottom;
pos = (334,0);
},
{
name = top;
pos = (357,954);
}
);
shapes = (
{
closed = 1;
nodes = (
(227,69,o),
(216,105,o),
(216,320,c),
(283,320,o),
(302,321,o),
(319,322,c),
(496,-9,l),
(496,-9,o),
(601,-3,o),
(665,-3,c,{
name = hr01;
}),
(668,26,l),
(608,31,o),
(585,43,o),
(585,43,c),
(409,336,l),
(512,387,o),
(544,457,o),
(544,525,cs),
(544,609,o),
(482,685,o),
(346,685,cs),
(173,685,ls),
(123,685,o),
(81,686,o),
(39,688,c,{
name = hr02;
}),
(36,659,l),
(96,647,o),
(115,641,o),
(118,616,c),
(118,616,o),
(126,557,o),
(126,342,cs),
(126,128,o),
(118,69,o),
(118,69,c),
(115,44,o),
(89,38,o),
(29,26,c),
(32,-3,l),
(74,-1,o),
(123,0,o),
(174,0,cs,{
name = hr03;
}),
(226,0,o),
(268,-1,o),
(311,-3,c,{
name = hr04;
}),
(314,26,l),
(252,38,o),
(230,44,o),
(227,69,c)
);
},
{
closed = 1;
nodes = (
(340,362,o),
(289,359,o),
(216,359,c),
(216,561,o),
(226,621,o),
(226,621,c),
(231,640,o),
(239,643,o),
(287,643,cs),
(397,643,o),
(453,601,o),
(453,525,cs),
(453,455,o),
(422,399,o),
(373,369,c)
);
},
{
closed = 1;
nodes = (
(455,935,o),
(422,954,o),
(389,954,c),
(255,755,l),
(285,750,l),
(458,912,l,{
name = hr00;
})
);
}
);
};
layerId = master01;
shapes = (
{
ref = R;
},
{
pos = (334,0);
ref = acutecomb.case;
}
);
width = 668;
}
);
unicode = 340;
},
{
glyphname = Rcaron;
lastChange = "2022-08-04 15:53:44 +0000";
layers = (
{
background = {
anchors = (
{
name = bottom;
pos = (334,0);
},
{
name = top;
pos = (334,954);
}
);
shapes = (
{
closed = 1;
nodes = (
(227,69,o),
(216,105,o),
(216,320,c),
(283,320,o),
(302,321,o),
(319,322,c),
(496,-9,l),
(496,-9,o),
(601,-3,o),
(665,-3,c,{
name = hr01;
}),
(668,26,l),
(608,31,o),
(585,43,o),
(585,43,c),
(409,336,l),
(512,387,o),
(544,457,o),
(544,525,cs),
(544,609,o),
(482,685,o),
(346,685,cs),
(173,685,ls),
(123,685,o),
(81,686,o),
(39,688,c,{
name = hr02;
}),
(36,659,l),
(96,647,o),
(115,641,o),
(118,616,c),
(118,616,o),
(126,557,o),
(126,342,cs),
(126,128,o),
(118,69,o),
(118,69,c),
(115,44,o),
(89,38,o),
(29,26,c),
(32,-3,l),
(74,-1,o),
(123,0,o),
(174,0,cs,{
name = hr03;
}),
(226,0,o),
(268,-1,o),
(311,-3,c,{
name = hr04;
}),
(314,26,l),
(252,38,o),
(230,44,o),
(227,69,c)
);
},
{
closed = 1;
nodes = (
(340,362,o),
(289,359,o),
(216,359,c),
(216,561,o),
(226,621,o),
(226,621,c),
(231,640,o),
(239,643,o),
(287,643,cs),
(397,643,o),
(453,601,o),
(453,525,cs),
(453,455,o),
(422,399,o),
(373,369,c)
);
},
{
closed = 1;
nodes = (
(456,949,l),
(426,954,l),
(333,840,l),
(241,954,l),
(211,949,l),
(315,754,l),
(352,754,l,{
name = hr00;
})
);
}
);
};
layerId = master01;
shapes = (
{
ref = R;
},
{
pos = (334,0);
ref = caroncomb.case;
}
);
width = 668;
}
);
unicode = 344;
},
{
glyphname = Rcommaaccent;
lastChange = "2022-08-04 16:02:52 +0000";
layers = (
{
background = {
anchors = (
{
name = bottom;
pos = (335,-265);
},
{
name = top;
pos = (334,691);
}
);
shapes = (
{
closed = 1;
nodes = (
(227,69,o),
(216,105,o),
(216,320,c),
(283,320,o),
(302,321,o),
(319,322,c),
(496,-9,l),
(496,-9,o),
(601,-3,o),
(665,-3,c,{
name = hr01;
}),
(668,26,l),
(608,31,o),
(585,43,o),
(585,43,c),
(409,336,l),
(512,387,o),
(544,457,o),
(544,525,cs),
(544,609,o),
(482,685,o),
(346,685,cs),
(173,685,ls),
(123,685,o),
(81,686,o),
(39,688,c,{
name = hr02;
}),
(36,659,l),
(96,647,o),
(115,641,o),
(118,616,c),
(118,616,o),
(126,557,o),
(126,342,cs),
(126,128,o),
(118,69,o),
(118,69,c),
(115,44,o),
(89,38,o),
(29,26,c),
(32,-3,l),
(74,-1,o),
(123,0,o),
(174,0,cs,{
name = hr03;
}),
(226,0,o),
(268,-1,o),
(311,-3,c,{
name = hr04;
}),
(314,26,l),
(252,38,o),
(230,44,o),
(227,69,c)
);
},
{
closed = 1;
nodes = (
(340,362,o),
(289,359,o),
(216,359,c),
(216,561,o),
(226,621,o),
(226,621,c),
(231,640,o),
(239,643,o),
(287,643,cs),
(397,643,o),
(453,601,o),
(453,525,cs),
(453,455,o),
(422,399,o),
(373,369,c)
);
},
{
closed = 1;
nodes = (
(271,-114,o),
(287,-135,o),
(314,-135,cs),
(326,-135,o),
(341,-129,o),
(347,-119,c),
(349,-126,o),
(349,-132,o),
(349,-139,cs),
(349,-176,o),
(324,-215,o),
(290,-244,c),
(305,-265,l),
(363,-233,o),
(399,-183,o),
(399,-131,cs),
(399,-71,o),
(360,-45,o),
(325,-45,cs),
(296,-45,o),
(271,-62,o),
(271,-92,cs,{
name = hr00;
})
);
}
);
};
layerId = master01;
shapes = (
{
ref = R;
},
{
pos = (208,0);
ref = commaaccentcomb;
}
);
width = 668;
}
);
unicode = 342;
},
{
glyphname = S;
lastChange = "2022-08-04 16:02:24 +0000";
layers = (
{
anchors = (
{
name = bottom;
pos = (264,0);
},
{
name = top;
pos = (264,691);
}
);
background = {
shapes = (
{
closed = 1;
nodes = (
(437,563,o),
(431,629,o),
(431,670,cs),
(431,685,l),
(414,681,o),
(399,679,o),
(386,679,cs),
(346,679,o),
(321,694,o),
(265,694,cs,{
name = hr01;
}),
(137,694,o),
(59,606,o),
(59,514,cs),
(59,458,o),
(88,401,o),
(151,360,cs),
(311,255,ls),
(354,227,o),
(376,192,o),
(376,152,cs),
(376,97,o),
(332,41,o),
(241,41,cs),
(146,41,o),
(111,77,o),
(91,185,c),
(64,173,l),
(64,110,o),
(55,62,o),
(48,26,c),
(100,4,o),
(184,-10,o),
(254,-10,cs),
(406,-10,o),
(480,85,o),
(480,176,cs),
(480,238,o),
(445,292,o),
(376,337,cs),
(218,440,ls),
(174,469,o),
(151,510,o),
(151,549,cs),
(151,599,o),
(189,644,o),
(266,644,cs),
(340,644,o),
(388,619,o),
(416,517,c),
(443,529,l)
);
}
);
};
layerId = master01;
shapes = (
{
closed = 1;
nodes = (
(437,563,o),
(431,629,o),
(431,670,cs),
(431,685,l),
(414,681,o),
(399,679,o),
(386,679,cs),
(346,679,o),
(321,694,o),
(265,694,cs,{
name = hr01;
}),
(137,694,o),
(59,606,o),
(59,514,cs),
(59,458,o),
(88,401,o),
(151,360,cs),
(311,255,ls),
(354,227,o),
(376,192,o),
(376,152,cs),
(376,97,o),
(332,41,o),
(241,41,cs),
(146,41,o),
(111,77,o),
(91,185,c),
(64,173,l),
(64,110,o),
(55,62,o),
(48,26,c),
(100,4,o),
(184,-10,o),
(254,-10,cs),
(406,-10,o),
(480,85,o),
(480,176,cs),
(480,238,o),
(445,292,o),
(376,337,cs),
(218,440,ls),
(174,469,o),
(151,510,o),
(151,549,cs),
(151,599,o),
(189,644,o),
(266,644,cs),
(340,644,o),
(388,619,o),
(416,517,c),
(443,529,l)
);
}
);
width = 528;
}
);
unicode = 83;
},
{
glyphname = Sacute;
lastChange = "2022-08-04 15:51:48 +0000";
layers = (
{
background = {
anchors = (
{
name = bottom;
pos = (264,0);
},
{
name = top;
pos = (306,954);
}
);
shapes = (
{
closed = 1;
nodes = (
(437,563,o),
(431,629,o),
(431,670,cs),
(431,685,l),
(414,681,o),
(399,679,o),
(386,679,cs),
(346,679,o),
(321,694,o),
(265,694,cs,{
name = hr01;
}),
(137,694,o),
(59,606,o),
(59,514,cs),
(59,458,o),
(88,401,o),
(151,360,cs),
(311,255,ls),
(354,227,o),
(376,192,o),
(376,152,cs),
(376,97,o),
(332,41,o),
(241,41,cs),
(146,41,o),
(111,77,o),
(91,185,c),
(64,173,l),
(64,110,o),
(55,62,o),
(48,26,c),
(100,4,o),
(184,-10,o),
(254,-10,cs),
(406,-10,o),
(480,85,o),
(480,176,cs),
(480,238,o),
(445,292,o),
(376,337,cs),
(218,440,ls),
(174,469,o),
(151,510,o),
(151,549,cs),
(151,599,o),
(189,644,o),
(266,644,cs),
(340,644,o),
(388,619,o),
(416,517,c),
(443,529,l)
);
},
{
closed = 1;
nodes = (
(404,935,o),
(371,954,o),
(338,954,c),
(204,755,l),
(234,750,l),
(407,912,l,{
name = hr00;
})
);
}
);
};
layerId = master01;
shapes = (
{
ref = S;
},
{
pos = (264,0);
ref = acutecomb.case;
}
);
width = 528;
}
);
unicode = 346;
},
{
glyphname = Scaron;
lastChange = "2022-08-04 15:53:44 +0000";
layers = (
{
background = {
anchors = (
{
name = bottom;
pos = (264,0);
},
{
name = top;
pos = (264,951);
}
);
shapes = (
{
closed = 1;
nodes = (
(437,563,o),
(431,629,o),
(431,670,cs),
(431,685,l),
(414,681,o),
(399,679,o),
(386,679,cs),
(346,679,o),
(321,694,o),
(265,694,cs,{
name = hr01;
}),
(137,694,o),
(59,606,o),
(59,514,cs),
(59,458,o),
(88,401,o),
(151,360,cs),
(311,255,ls),
(354,227,o),
(376,192,o),
(376,152,cs),
(376,97,o),
(332,41,o),
(241,41,cs),
(146,41,o),
(111,77,o),
(91,185,c),
(64,173,l),
(64,110,o),
(55,62,o),
(48,26,c),
(100,4,o),
(184,-10,o),
(254,-10,cs),
(406,-10,o),
(480,85,o),
(480,176,cs),
(480,238,o),
(445,292,o),
(376,337,cs),
(218,440,ls),
(174,469,o),
(151,510,o),
(151,549,cs),
(151,599,o),
(189,644,o),
(266,644,cs),
(340,644,o),
(388,619,o),
(416,517,c),
(443,529,l)
);
},
{
closed = 1;
nodes = (
(386,946,l),
(356,951,l),
(263,837,l),
(171,951,l),
(141,946,l),
(245,751,l),
(282,751,l,{
name = hr00;
})
);
}
);
};
layerId = master01;
shapes = (
{
ref = S;
},
{
pos = (264,0);
ref = caroncomb.case;
}
);
width = 528;
}
);
unicode = 352;
},
{
glyphname = Scedilla;
lastChange = "2022-08-04 16:02:53 +0000";
layers = (
{
background = {
anchors = (
{
name = bottom;
pos = (239,-259);
},
{
name = top;
pos = (264,691);
}
);
shapes = (
{
closed = 1;
nodes = (
(437,563,o),
(431,629,o),
(431,670,cs),
(431,685,l),
(414,681,o),
(399,679,o),
(386,679,cs),
(346,679,o),
(321,694,o),
(265,694,cs,{
name = hr01;
}),
(137,694,o),
(59,606,o),
(59,514,cs),
(59,458,o),
(88,401,o),
(151,360,cs),
(311,255,ls),
(354,227,o),
(376,192,o),
(376,152,cs),
(376,97,o),
(332,41,o),
(241,41,cs),
(146,41,o),
(111,77,o),
(91,185,c),
(64,173,l),
(64,110,o),
(55,62,o),
(48,26,c),
(100,4,o),
(184,-10,o),
(254,-10,cs),
(406,-10,o),
(480,85,o),
(480,176,cs),
(480,238,o),
(445,292,o),
(376,337,cs),
(218,440,ls),
(174,469,o),
(151,510,o),
(151,549,cs),
(151,599,o),
(189,644,o),
(266,644,cs),
(340,644,o),
(388,619,o),
(416,517,c),
(443,529,l)
);
},
{
closed = 1;
nodes = (
(213,-16,o),
(205,-37,o),
(205,-53,cs),
(205,-100,o),
(272,-112,o),
(272,-145,cs),
(272,-164,o),
(236,-177,o),
(175,-180,c),
(162,-191,o),
(152,-209,o),
(152,-226,cs),
(152,-238,o),
(157,-250,o),
(168,-259,c),
(275,-219,o),
(326,-170,o),
(326,-125,cs),
(326,-78,o),
(248,-57,o),
(248,-24,cs),
(248,-16,o),
(249,-8,o),
(261,11,c),
(235,11,l,{
name = hr00;
})
);
}
);
};
layerId = master01;
shapes = (
{
ref = S;
},
{
pos = (39,0);
ref = cedillacomb;
}
);
width = 528;
}
);
unicode = 350;
},
{
glyphname = Scircumflex;
lastChange = "2022-08-04 15:51:48 +0000";
layers = (
{
background = {
anchors = (
{
name = bottom;
pos = (264,0);
},
{
name = top;
pos = (264,949);
}
);
shapes = (
{
closed = 1;
nodes = (
(437,563,o),
(431,629,o),
(431,670,cs),
(431,685,l),
(414,681,o),
(399,679,o),
(386,679,cs),
(346,679,o),
(321,694,o),
(265,694,cs,{
name = hr01;
}),
(137,694,o),
(59,606,o),
(59,514,cs),
(59,458,o),
(88,401,o),
(151,360,cs),
(311,255,ls),
(354,227,o),
(376,192,o),
(376,152,cs),
(376,97,o),
(332,41,o),
(241,41,cs),
(146,41,o),
(111,77,o),
(91,185,c),
(64,173,l),
(64,110,o),
(55,62,o),
(48,26,c),
(100,4,o),
(184,-10,o),
(254,-10,cs),
(406,-10,o),
(480,85,o),
(480,176,cs),
(480,238,o),
(445,292,o),
(376,337,cs),
(218,440,ls),
(174,469,o),
(151,510,o),
(151,549,cs),
(151,599,o),
(189,644,o),
(266,644,cs),
(340,644,o),
(388,619,o),
(416,517,c),
(443,529,l)
);
},
{
closed = 1;
nodes = (
(151,755,l),
(181,750,l),
(263,854,l),
(346,750,l),
(376,755,l),
(282,949,l),
(245,949,l,{
name = hr00;
})
);
}
);
};
layerId = master01;
shapes = (
{
ref = S;
},
{
pos = (264,0);
ref = circumflexcomb.case;
}
);
width = 528;
}
);
unicode = 348;
},
{
glyphname = Scommaaccent;
lastChange = "2022-08-04 16:02:52 +0000";
layers = (
{
background = {
anchors = (
{
name = bottom;
pos = (264,-265);
},
{
name = top;
pos = (264,691);
}
);
shapes = (
{
closed = 1;
nodes = (
(437,563,o),
(431,629,o),
(431,670,cs),
(431,685,l),
(414,681,o),
(399,679,o),
(386,679,cs),
(346,679,o),
(321,694,o),
(265,694,cs,{
name = hr01;
}),
(137,694,o),
(59,606,o),
(59,514,cs),
(59,458,o),
(88,401,o),
(151,360,cs),
(311,255,ls),
(354,227,o),
(376,192,o),
(376,152,cs),
(376,97,o),
(332,41,o),
(241,41,cs),
(146,41,o),
(111,77,o),
(91,185,c),
(64,173,l),
(64,110,o),
(55,62,o),
(48,26,c),
(100,4,o),
(184,-10,o),
(254,-10,cs),
(406,-10,o),
(480,85,o),
(480,176,cs),
(480,238,o),
(445,292,o),
(376,337,cs),
(218,440,ls),
(174,469,o),
(151,510,o),
(151,549,cs),
(151,599,o),
(189,644,o),
(266,644,cs),
(340,644,o),
(388,619,o),
(416,517,c),
(443,529,l)
);
},
{
closed = 1;
nodes = (
(200,-114,o),
(216,-135,o),
(243,-135,cs),
(255,-135,o),
(270,-129,o),
(276,-119,c),
(278,-126,o),
(278,-132,o),
(278,-139,cs),
(278,-176,o),
(253,-215,o),
(219,-244,c),
(234,-265,l),
(292,-233,o),
(328,-183,o),
(328,-131,cs),
(328,-71,o),
(289,-45,o),
(254,-45,cs),
(225,-45,o),
(200,-62,o),
(200,-92,cs,{
name = hr00;
})
);
}
);
};
layerId = master01;
shapes = (
{
ref = S;
},
{
pos = (138,0);
ref = commaaccentcomb;
}
);
width = 528;
}
);
unicode = 536;
},
{
glyphname = T;
lastChange = "2022-08-04 16:02:30 +0000";
layers = (
{
anchors = (
{
name = bottom;
pos = (319,0);
},
{
name = center;
pos = (321,346);
},
{
name = top;
pos = (321,691);
}
);
background = {
shapes = (
{
closed = 1;
nodes = (
(193,685,o),
(105,685,o),
(23,691,c,{
name = hr01;
}),
(23,676,l),
(23,634,o),
(17,563,o),
(11,529,c),
(38,517,l),
(73,630,o),
(107,643,o),
(236,643,cs,{
name = hr02;
}),
(250,643,o),
(264,641,o),
(267,616,c),
(267,616,o),
(275,557,o),
(275,342,cs),
(275,128,o),
(267,69,o),
(267,69,c),
(264,44,o),
(238,38,o),
(178,26,c),
(181,-3,l),
(223,-1,o),
(272,0,o),
(322,0,cs,{
name = hr03;
}),
(372,0,o),
(413,-1,o),
(455,-3,c,{
name = hr04;
}),
(458,26,l),
(398,38,o),
(376,44,o),
(373,69,c),
(373,69,o),
(365,127,o),
(365,342,cs),
(365,557,o),
(373,616,o),
(373,616,c),
(376,641,o),
(390,643,o),
(406,643,cs),
(535,643,o),
(569,630,o),
(604,517,c),
(631,529,l),
(625,563,o),
(619,634,o),
(619,676,c),
(619,691,l,{
name = hr05;
}),
(537,685,o),
(451,685,o),
(322,685,cs)
);
}
);
};
layerId = master01;
shapes = (
{
closed = 1;
nodes = (
(193,685,o),
(105,685,o),
(23,691,c,{
name = hr01;
}),
(23,676,ls),
(23,634,o),
(17,563,o),
(11,529,c),
(38,517,l),
(73,630,o),
(107,643,o),
(236,643,cs,{
name = hr02;
}),
(250,643,o),
(264,641,o),
(267,616,c),
(267,616,o),
(275,557,o),
(275,342,cs),
(275,128,o),
(267,69,o),
(267,69,c),
(264,44,o),
(238,38,o),
(178,26,c),
(181,-3,l),
(223,-1,o),
(272,0,o),
(322,0,cs,{
name = hr03;
}),
(372,0,o),
(413,-1,o),
(455,-3,c,{
name = hr04;
}),
(458,26,l),
(398,38,o),
(376,44,o),
(373,69,c),
(373,69,o),
(365,127,o),
(365,342,cs),
(365,557,o),
(373,616,o),
(373,616,c),
(376,641,o),
(390,643,o),
(406,643,cs),
(535,643,o),
(569,630,o),
(604,517,c),
(631,529,l),
(625,563,o),
(619,634,o),
(619,676,cs),
(619,691,l,{
name = hr05;
}),
(537,685,o),
(451,685,o),
(322,685,cs)
);
}
);
width = 642;
}
);
unicode = 84;
},
{
glyphname = Tbar;
lastChange = "2022-08-04 15:51:48 +0000";
layers = (
{
background = {
anchors = (
{
name = bottom;
pos = (321,0);
},
{
name = center;
pos = (321,346);
},
{
name = top;
pos = (321,691);
}
);
shapes = (
{
closed = 1;
nodes = (
(111,335,l),
(98,293,l),
(530,293,l),
(543,335,l,{
name = hr00;
})
);
},
{
closed = 1;
nodes = (
(193,685,o),
(105,685,o),
(23,691,c,{
name = hr01;
}),
(23,676,ls),
(23,634,o),
(17,563,o),
(11,529,c),
(38,517,l),
(73,630,o),
(107,643,o),
(236,643,cs,{
name = hr02;
}),
(250,643,o),
(264,641,o),
(267,616,c),
(267,616,o),
(275,557,o),
(275,342,cs),
(275,128,o),
(267,69,o),
(267,69,c),
(264,44,o),
(238,38,o),
(178,26,c),
(181,-3,l),
(223,-1,o),
(272,0,o),
(322,0,cs,{
name = hr03;
}),
(372,0,o),
(413,-1,o),
(455,-3,c,{
name = hr04;
}),
(458,26,l),
(398,38,o),
(376,44,o),
(373,69,c),
(373,69,o),
(365,127,o),
(365,342,cs),
(365,557,o),
(373,616,o),
(373,616,c),
(376,641,o),
(390,643,o),
(406,643,cs),
(535,643,o),
(569,630,o),
(604,517,c),
(631,529,l),
(625,563,o),
(619,634,o),
(619,676,cs),
(619,691,l,{
name = hr05;
}),
(537,685,o),
(451,685,o),
(322,685,cs)
);
}
);
};
layerId = master01;
shapes = (
{
closed = 1;
nodes = (
(111,335,l),
(98,293,l),
(530,293,l),
(543,335,l,{
name = hr00;
})
);
},
{
ref = T;
}
);
width = 642;
}
);
unicode = 358;
},
{
glyphname = Tcaron;
lastChange = "2022-08-04 15:53:44 +0000";
layers = (
{
background = {
anchors = (
{
name = bottom;
pos = (321,0);
},
{
name = center;
pos = (321,346);
},
{
name = top;
pos = (321,954);
}
);
shapes = (
{
closed = 1;
nodes = (
(193,685,o),
(105,685,o),
(23,691,c,{
name = hr01;
}),
(23,676,ls),
(23,634,o),
(17,563,o),
(11,529,c),
(38,517,l),
(73,630,o),
(107,643,o),
(236,643,cs,{
name = hr02;
}),
(250,643,o),
(264,641,o),
(267,616,c),
(267,616,o),
(275,557,o),
(275,342,cs),
(275,128,o),
(267,69,o),
(267,69,c),
(264,44,o),
(238,38,o),
(178,26,c),
(181,-3,l),
(223,-1,o),
(272,0,o),
(322,0,cs,{
name = hr03;
}),
(372,0,o),
(413,-1,o),
(455,-3,c,{
name = hr04;
}),
(458,26,l),
(398,38,o),
(376,44,o),
(373,69,c),
(373,69,o),
(365,127,o),
(365,342,cs),
(365,557,o),
(373,616,o),
(373,616,c),
(376,641,o),
(390,643,o),
(406,643,cs),
(535,643,o),
(569,630,o),
(604,517,c),
(631,529,l),
(625,563,o),
(619,634,o),
(619,676,cs),
(619,691,l,{
name = hr05;
}),
(537,685,o),
(451,685,o),
(322,685,cs)
);
},
{
closed = 1;
nodes = (
(443,949,l),
(413,954,l),
(320,840,l),
(228,954,l),
(198,949,l),
(302,754,l),
(339,754,l,{
name = hr00;
})
);
}
);
};
layerId = master01;
shapes = (
{
ref = T;
},
{
pos = (321,0);
ref = caroncomb.case;
}
);
width = 642;
}
);
unicode = 356;
},
{
glyphname = Tcedilla;
lastChange = "2022-08-04 16:03:03 +0000";
layers = (
{
background = {
anchors = (
{
name = bottom;
pos = (316,-259);
},
{
name = center;
pos = (321,346);
},
{
name = top;
pos = (321,691);
}
);
shapes = (
{
closed = 1;
nodes = (
(193,685,o),
(105,685,o),
(23,691,c,{
name = hr01;
}),
(23,676,ls),
(23,634,o),
(17,563,o),
(11,529,c),
(38,517,l),
(73,630,o),
(107,643,o),
(236,643,cs,{
name = hr02;
}),
(250,643,o),
(264,641,o),
(267,616,c),
(267,616,o),
(275,557,o),
(275,342,cs),
(275,128,o),
(267,69,o),
(267,69,c),
(264,44,o),
(238,38,o),
(178,26,c),
(181,-3,l),
(223,-1,o),
(272,0,o),
(322,0,cs,{
name = hr03;
}),
(372,0,o),
(413,-1,o),
(455,-3,c,{
name = hr04;
}),
(458,26,l),
(398,38,o),
(376,44,o),
(373,69,c),
(373,69,o),
(365,127,o),
(365,342,cs),
(365,557,o),
(373,616,o),
(373,616,c),
(376,641,o),
(390,643,o),
(406,643,cs),
(535,643,o),
(569,630,o),
(604,517,c),
(631,529,l),
(625,563,o),
(619,634,o),
(619,676,cs),
(619,691,l,{
name = hr05;
}),
(537,685,o),
(451,685,o),
(322,685,cs)
);
},
{
closed = 1;
nodes = (
(290,-16,o),
(282,-37,o),
(282,-53,cs),
(282,-100,o),
(349,-112,o),
(349,-145,cs),
(349,-164,o),
(313,-177,o),
(252,-180,c),
(239,-191,o),
(229,-209,o),
(229,-226,cs),
(229,-238,o),
(234,-250,o),
(245,-259,c),
(352,-219,o),
(403,-170,o),
(403,-125,cs),
(403,-78,o),
(325,-57,o),
(325,-24,cs),
(325,-16,o),
(326,-8,o),
(338,11,c),
(312,11,l,{
name = hr00;
})
);
}
);
};
layerId = master01;
shapes = (
{
ref = T;
},
{
pos = (94,0);
ref = cedillacomb;
}
);
width = 642;
}
);
unicode = 354;
},
{
glyphname = Tcommaaccent;
lastChange = "2022-08-04 16:02:52 +0000";
layers = (
{
background = {
anchors = (
{
name = bottom;
pos = (322,-265);
},
{
name = center;
pos = (321,346);
},
{
name = top;
pos = (321,691);
}
);
shapes = (
{
closed = 1;
nodes = (
(193,685,o),
(105,685,o),
(23,691,c,{
name = hr01;
}),
(23,676,ls),
(23,634,o),
(17,563,o),
(11,529,c),
(38,517,l),
(73,630,o),
(107,643,o),
(236,643,cs,{
name = hr02;
}),
(250,643,o),
(264,641,o),
(267,616,c),
(267,616,o),
(275,557,o),
(275,342,cs),
(275,128,o),
(267,69,o),
(267,69,c),
(264,44,o),
(238,38,o),
(178,26,c),
(181,-3,l),
(223,-1,o),
(272,0,o),
(322,0,cs,{
name = hr03;
}),
(372,0,o),
(413,-1,o),
(455,-3,c,{
name = hr04;
}),
(458,26,l),
(398,38,o),
(376,44,o),
(373,69,c),
(373,69,o),
(365,127,o),
(365,342,cs),
(365,557,o),
(373,616,o),
(373,616,c),
(376,641,o),
(390,643,o),
(406,643,cs),
(535,643,o),
(569,630,o),
(604,517,c),
(631,529,l),
(625,563,o),
(619,634,o),
(619,676,cs),
(619,691,l,{
name = hr05;
}),
(537,685,o),
(451,685,o),
(322,685,cs)
);
},
{
closed = 1;
nodes = (
(258,-114,o),
(274,-135,o),
(301,-135,cs),
(313,-135,o),
(328,-129,o),
(334,-119,c),
(336,-126,o),
(336,-132,o),
(336,-139,cs),
(336,-176,o),
(311,-215,o),
(277,-244,c),
(292,-265,l),
(350,-233,o),
(386,-183,o),
(386,-131,cs),
(386,-71,o),
(347,-45,o),
(312,-45,cs),
(283,-45,o),
(258,-62,o),
(258,-92,cs,{
name = hr00;
})
);
}
);
};
layerId = master01;
shapes = (
{
ref = T;
},
{
pos = (193,0);
ref = commaaccentcomb;
}
);
width = 642;
}
);
unicode = 538;
},
{
glyphname = U;
lastChange = "2022-08-04 16:01:22 +0000";
layers = (
{
anchors = (
{
name = bottom;
pos = (380,0);
},
{
name = ogonek;
pos = (373,0);
},
{
name = top;
pos = (402,691);
},
{
name = topright;
pos = (740,691);
}
);
background = {
shapes = (
{
closed = 1;
nodes = (
(584,616,o),
(592,554,o),
(592,339,cs),
(592,164,o),
(560,45,o),
(380,45,cs),
(204,45,o),
(201,150,o),
(201,322,cs),
(201,551,o),
(210,616,o),
(210,616,c),
(213,641,o),
(232,647,o),
(292,659,c),
(289,688,l),
(247,686,o),
(209,685,o),
(159,685,cs),
(109,685,o),
(67,686,o),
(25,688,c),
(22,659,l),
(82,647,o),
(104,641,o),
(104,616,c),
(107,489,o),
(109,363,o),
(111,236,cs),
(115,34,o),
(211,-12,o),
(380,-12,cs),
(578,-12,o),
(648,105,o),
(652,247,cs),
(656,370,o),
(658,493,o),
(663,616,cs),
(664,641,o),
(685,647,o),
(745,659,c),
(742,688,l),
(700,686,o),
(685,685,o),
(635,685,cs),
(585,685,o),
(535,686,o),
(493,688,c),
(490,659,l),
(550,647,o),
(581,641,o),
(584,616,c,{
name = hr00;
})
);
}
);
};
layerId = master01;
shapes = (
{
closed = 1;
nodes = (
(584,616,o),
(592,554,o),
(592,339,cs),
(592,164,o),
(560,45,o),
(380,45,cs),
(204,45,o),
(201,150,o),
(201,322,cs),
(201,551,o),
(210,616,o),
(210,616,c),
(213,641,o),
(232,647,o),
(292,659,c),
(289,688,l),
(247,686,o),
(209,685,o),
(159,685,cs),
(109,685,o),
(67,686,o),
(25,688,c),
(22,659,l),
(82,647,o),
(104,641,o),
(104,616,cs),
(107,489,o),
(109,363,o),
(111,236,cs),
(115,34,o),
(211,-12,o),
(380,-12,cs),
(578,-12,o),
(648,105,o),
(652,247,cs),
(656,370,o),
(658,493,o),
(663,616,cs),
(664,641,o),
(685,647,o),
(745,659,c),
(742,688,l),
(700,686,o),
(685,685,o),
(635,685,cs),
(585,685,o),
(535,686,o),
(493,688,c),
(490,659,l),
(550,647,o),
(581,641,o),
(584,616,c,{
name = hr00;
})
);
}
);
width = 760;
}
);
unicode = 85;
},
{
glyphname = Uacute;
lastChange = "2022-08-04 16:01:08 +0000";
layers = (
{
background = {
anchors = (
{
name = bottom;
pos = (380,0);
},
{
name = ogonek;
pos = (684,10);
},
{
name = top;
pos = (465,951);
},
{
name = topright;
pos = (740,691);
}
);
shapes = (
{
closed = 1;
nodes = (
(584,616,o),
(592,554,o),
(592,339,cs),
(592,164,o),
(560,45,o),
(380,45,cs),
(204,45,o),
(201,150,o),
(201,322,cs),
(201,551,o),
(210,616,o),
(210,616,c),
(213,641,o),
(232,647,o),
(292,659,c),
(289,688,l),
(247,686,o),
(209,685,o),
(159,685,cs),
(109,685,o),
(67,686,o),
(25,688,c),
(22,659,l),
(82,647,o),
(104,641,o),
(104,616,cs),
(107,489,o),
(109,363,o),
(111,236,cs),
(115,34,o),
(211,-12,o),
(380,-12,cs),
(578,-12,o),
(648,105,o),
(652,247,cs),
(656,370,o),
(658,493,o),
(663,616,cs),
(664,641,o),
(685,647,o),
(745,659,c),
(742,688,l),
(700,686,o),
(685,685,o),
(635,685,cs),
(585,685,o),
(535,686,o),
(493,688,c),
(490,659,l),
(550,647,o),
(581,641,o),
(584,616,c,{
name = hr00;
})
);
},
{
closed = 1;
nodes = (
(563,932,o),
(530,951,o),
(497,951,c),
(363,752,l),
(393,747,l),
(566,909,l,{
name = hr00;
})
);
}
);
};
layerId = master01;
shapes = (
{
ref = U;
},
{
pos = (402,0);
ref = acutecomb.case;
}
);
width = 760;
}
);
unicode = 218;
},
{
glyphname = Ubreve;
lastChange = "2022-08-04 16:01:08 +0000";
layers = (
{
background = {
anchors = (
{
name = bottom;
pos = (380,0);
},
{
name = ogonek;
pos = (684,10);
},
{
name = top;
pos = (397,896);
},
{
name = topright;
pos = (740,691);
}
);
shapes = (
{
closed = 1;
nodes = (
(584,616,o),
(592,554,o),
(592,339,cs),
(592,164,o),
(560,45,o),
(380,45,cs),
(204,45,o),
(201,150,o),
(201,322,cs),
(201,551,o),
(210,616,o),
(210,616,c),
(213,641,o),
(232,647,o),
(292,659,c),
(289,688,l),
(247,686,o),
(209,685,o),
(159,685,cs),
(109,685,o),
(67,686,o),
(25,688,c),
(22,659,l),
(82,647,o),
(104,641,o),
(104,616,cs),
(107,489,o),
(109,363,o),
(111,236,cs),
(115,34,o),
(211,-12,o),
(380,-12,cs),
(578,-12,o),
(648,105,o),
(652,247,cs),
(656,370,o),
(658,493,o),
(663,616,cs),
(664,641,o),
(685,647,o),
(745,659,c),
(742,688,l),
(700,686,o),
(685,685,o),
(635,685,cs),
(585,685,o),
(535,686,o),
(493,688,c),
(490,659,l),
(550,647,o),
(581,641,o),
(584,616,c,{
name = hr00;
})
);
},
{
closed = 1;
nodes = (
(277,819,o),
(337,783,o),
(396,783,cs),
(456,783,o),
(516,819,o),
(526,891,c),
(489,896,l),
(482,860,o),
(439,843,o),
(396,843,cs),
(354,843,o),
(311,860,o),
(304,896,c),
(267,891,l,{
name = hr00;
})
);
}
);
};
layerId = master01;
shapes = (
{
ref = U;
},
{
pos = (402,0);
ref = brevecomb.case;
}
);
width = 760;
}
);
unicode = 364;
},
{
glyphname = Ucircumflex;
lastChange = "2022-08-04 16:01:07 +0000";
layers = (
{
background = {
anchors = (
{
name = bottom;
pos = (380,0);
},
{
name = ogonek;
pos = (684,10);
},
{
name = top;
pos = (404,946);
},
{
name = topright;
pos = (740,691);
}
);
shapes = (
{
closed = 1;
nodes = (
(584,616,o),
(592,554,o),
(592,339,cs),
(592,164,o),
(560,45,o),
(380,45,cs),
(204,45,o),
(201,150,o),
(201,322,cs),
(201,551,o),
(210,616,o),
(210,616,c),
(213,641,o),
(232,647,o),
(292,659,c),
(289,688,l),
(247,686,o),
(209,685,o),
(159,685,cs),
(109,685,o),
(67,686,o),
(25,688,c),
(22,659,l),
(82,647,o),
(104,641,o),
(104,616,cs),
(107,489,o),
(109,363,o),
(111,236,cs),
(115,34,o),
(211,-12,o),
(380,-12,cs),
(578,-12,o),
(648,105,o),
(652,247,cs),
(656,370,o),
(658,493,o),
(663,616,cs),
(664,641,o),
(685,647,o),
(745,659,c),
(742,688,l),
(700,686,o),
(685,685,o),
(635,685,cs),
(585,685,o),
(535,686,o),
(493,688,c),
(490,659,l),
(550,647,o),
(581,641,o),
(584,616,c,{
name = hr00;
})
);
},
{
closed = 1;
nodes = (
(291,752,l),
(321,747,l),
(403,851,l),
(486,747,l),
(516,752,l),
(422,946,l),
(385,946,l,{
name = hr00;
})
);
}
);
};
layerId = master01;
shapes = (
{
ref = U;
},
{
pos = (402,0);
ref = circumflexcomb.case;
}
);
width = 760;
}
);
unicode = 219;
},
{
glyphname = Udieresis;
lastChange = "2022-08-04 16:01:09 +0000";
layers = (
{
background = {
anchors = (
{
name = bottom;
pos = (380,0);
},
{
name = ogonek;
pos = (684,10);
},
{
name = top;
pos = (409,898);
},
{
name = topright;
pos = (740,691);
}
);
shapes = (
{
closed = 1;
nodes = (
(584,616,o),
(592,554,o),
(592,339,cs),
(592,164,o),
(560,45,o),
(380,45,cs),
(204,45,o),
(201,150,o),
(201,322,cs),
(201,551,o),
(210,616,o),
(210,616,c),
(213,641,o),
(232,647,o),
(292,659,c),
(289,688,l),
(247,686,o),
(209,685,o),
(159,685,cs),
(109,685,o),
(67,686,o),
(25,688,c),
(22,659,l),
(82,647,o),
(104,641,o),
(104,616,cs),
(107,489,o),
(109,363,o),
(111,236,cs),
(115,34,o),
(211,-12,o),
(380,-12,cs),
(578,-12,o),
(648,105,o),
(652,247,cs),
(656,370,o),
(658,493,o),
(663,616,cs),
(664,641,o),
(685,647,o),
(745,659,c),
(742,688,l),
(700,686,o),
(685,685,o),
(635,685,cs),
(585,685,o),
(535,686,o),
(493,688,c),
(490,659,l),
(550,647,o),
(581,641,o),
(584,616,c,{
name = hr00;
})
);
},
{
closed = 1;
nodes = (
(528,792,o),
(551,815,o),
(551,846,cs),
(551,875,o),
(528,898,o),
(499,898,cs),
(470,898,o),
(447,875,o),
(447,846,cs),
(447,815,o),
(470,792,o),
(499,792,cs,{
name = hr00;
})
);
},
{
closed = 1;
nodes = (
(348,792,o),
(371,815,o),
(371,846,cs),
(371,875,o),
(348,898,o),
(319,898,cs),
(290,898,o),
(267,875,o),
(267,846,cs),
(267,815,o),
(290,792,o),
(319,792,cs)
);
}
);
};
layerId = master01;
shapes = (
{
ref = U;
},
{
pos = (402,0);
ref = dieresiscomb.case;
}
);
width = 760;
}
);
unicode = 220;
},
{
glyphname = Ugrave;
lastChange = "2022-08-04 16:01:09 +0000";
layers = (
{
background = {
anchors = (
{
name = bottom;
pos = (380,0);
},
{
name = ogonek;
pos = (684,10);
},
{
name = top;
pos = (344,951);
},
{
name = topright;
pos = (740,691);
}
);
shapes = (
{
closed = 1;
nodes = (
(584,616,o),
(592,554,o),
(592,339,cs),
(592,164,o),
(560,45,o),
(380,45,cs),
(204,45,o),
(201,150,o),
(201,322,cs),
(201,551,o),
(210,616,o),
(210,616,c),
(213,641,o),
(232,647,o),
(292,659,c),
(289,688,l),
(247,686,o),
(209,685,o),
(159,685,cs),
(109,685,o),
(67,686,o),
(25,688,c),
(22,659,l),
(82,647,o),
(104,641,o),
(104,616,cs),
(107,489,o),
(109,363,o),
(111,236,cs),
(115,34,o),
(211,-12,o),
(380,-12,cs),
(578,-12,o),
(648,105,o),
(652,247,cs),
(656,370,o),
(658,493,o),
(663,616,cs),
(664,641,o),
(685,647,o),
(745,659,c),
(742,688,l),
(700,686,o),
(685,685,o),
(635,685,cs),
(585,685,o),
(535,686,o),
(493,688,c),
(490,659,l),
(550,647,o),
(581,641,o),
(584,616,c,{
name = hr00;
})
);
},
{
closed = 1;
nodes = (
(445,752,l),
(311,951,l),
(278,951,o),
(245,932,o),
(242,909,c),
(415,747,l,{
name = hr00;
})
);
}
);
};
layerId = master01;
shapes = (
{
ref = U;
},
{
pos = (402,0);
ref = gravecomb.case;
}
);
width = 760;
}
);
unicode = 217;
},
{
glyphname = Uhungarumlaut;
lastChange = "2022-08-04 16:01:10 +0000";
layers = (
{
background = {
anchors = (
{
name = bottom;
pos = (380,0);
},
{
name = ogonek;
pos = (684,10);
},
{
name = top;
pos = (459,954);
},
{
name = topright;
pos = (740,691);
}
);
shapes = (
{
closed = 1;
nodes = (
(584,616,o),
(592,554,o),
(592,339,cs),
(592,164,o),
(560,45,o),
(380,45,cs),
(204,45,o),
(201,150,o),
(201,322,cs),
(201,551,o),
(210,616,o),
(210,616,c),
(213,641,o),
(232,647,o),
(292,659,c),
(289,688,l),
(247,686,o),
(209,685,o),
(159,685,cs),
(109,685,o),
(67,686,o),
(25,688,c),
(22,659,l),
(82,647,o),
(104,641,o),
(104,616,cs),
(107,489,o),
(109,363,o),
(111,236,cs),
(115,34,o),
(211,-12,o),
(380,-12,cs),
(578,-12,o),
(648,105,o),
(652,247,cs),
(656,370,o),
(658,493,o),
(663,616,cs),
(664,641,o),
(685,647,o),
(745,659,c),
(742,688,l),
(700,686,o),
(685,685,o),
(635,685,cs),
(585,685,o),
(535,686,o),
(493,688,c),
(490,659,l),
(550,647,o),
(581,641,o),
(584,616,c,{
name = hr00;
})
);
},
{
closed = 1;
nodes = (
(643,935,o),
(610,954,o),
(577,954,c),
(443,755,l),
(473,750,l),
(646,912,l,{
name = hr00;
})
);
},
{
closed = 1;
nodes = (
(472,935,o),
(439,954,o),
(406,954,c),
(272,755,l),
(302,750,l),
(475,912,l)
);
}
);
};
layerId = master01;
shapes = (
{
ref = U;
},
{
pos = (402,0);
ref = hungarumlautcomb.case;
}
);
width = 760;
}
);
unicode = 368;
},
{
glyphname = Umacron;
lastChange = "2022-08-04 16:01:11 +0000";
layers = (
{
background = {
anchors = (
{
name = bottom;
pos = (380,0);
},
{
name = ogonek;
pos = (684,10);
},
{
name = top;
pos = (400,866);
},
{
name = topright;
pos = (740,691);
}
);
shapes = (
{
closed = 1;
nodes = (
(584,616,o),
(592,554,o),
(592,339,cs),
(592,164,o),
(560,45,o),
(380,45,cs),
(204,45,o),
(201,150,o),
(201,322,cs),
(201,551,o),
(210,616,o),
(210,616,c),
(213,641,o),
(232,647,o),
(292,659,c),
(289,688,l),
(247,686,o),
(209,685,o),
(159,685,cs),
(109,685,o),
(67,686,o),
(25,688,c),
(22,659,l),
(82,647,o),
(104,641,o),
(104,616,cs),
(107,489,o),
(109,363,o),
(111,236,cs),
(115,34,o),
(211,-12,o),
(380,-12,cs),
(578,-12,o),
(648,105,o),
(652,247,cs),
(656,370,o),
(658,493,o),
(663,616,cs),
(664,641,o),
(685,647,o),
(745,659,c),
(742,688,l),
(700,686,o),
(685,685,o),
(635,685,cs),
(585,685,o),
(535,686,o),
(493,688,c),
(490,659,l),
(550,647,o),
(581,641,o),
(584,616,c,{
name = hr00;
})
);
},
{
closed = 1;
nodes = (
(553,865,l),
(511,862,o),
(469,861,o),
(427,861,cs),
(377,861,o),
(328,863,o),
(278,866,c,{
name = hr01;
}),
(239,820,l),
(247,804,l),
(293,807,o),
(339,808,o),
(384,808,cs,{
name = hr02;
}),
(430,808,o),
(476,807,o),
(522,804,c,{
name = hr03;
}),
(561,850,l)
);
}
);
};
layerId = master01;
shapes = (
{
ref = U;
},
{
pos = (402,0);
ref = macroncomb.case;
}
);
width = 760;
}
);
unicode = 362;
},
{
glyphname = Uogonek;
lastChange = "2022-08-04 16:01:22 +0000";
layers = (
{
background = {
anchors = (
{
name = bottom;
pos = (380,0);
},
{
name = ogonek;
pos = (684,10);
},
{
name = top;
pos = (380,691);
},
{
name = topright;
pos = (740,691);
}
);
shapes = (
{
closed = 1;
nodes = (
(584,616,o),
(592,554,o),
(592,339,cs),
(592,164,o),
(560,45,o),
(380,45,cs),
(204,45,o),
(201,150,o),
(201,322,cs),
(201,551,o),
(210,616,o),
(210,616,c),
(213,641,o),
(232,647,o),
(292,659,c),
(289,688,l),
(247,686,o),
(209,685,o),
(159,685,cs),
(109,685,o),
(67,686,o),
(25,688,c),
(22,659,l),
(82,647,o),
(104,641,o),
(104,616,cs),
(107,489,o),
(109,363,o),
(111,236,cs),
(115,34,o),
(211,-12,o),
(380,-12,cs),
(578,-12,o),
(648,105,o),
(652,247,cs),
(656,370,o),
(658,493,o),
(663,616,cs),
(664,641,o),
(685,647,o),
(745,659,c),
(742,688,l),
(700,686,o),
(685,685,o),
(635,685,cs),
(585,685,o),
(535,686,o),
(493,688,c),
(490,659,l),
(550,647,o),
(581,641,o),
(584,616,c,{
name = hr00;
})
);
},
{
closed = 1;
nodes = (
(380,-150,o),
(365,-153,o),
(352,-153,cs),
(320,-153,o),
(296,-136,o),
(296,-97,cs),
(296,-66,o),
(312,-21,o),
(373,0,c),
(373,26,l),
(277,2,o),
(231,-69,o),
(231,-126,cs),
(231,-169,o),
(258,-203,o),
(314,-203,cs),
(343,-203,o),
(375,-193,o),
(401,-176,c),
(395,-144,l,{
name = hr00;
})
);
}
);
};
layerId = master01;
shapes = (
{
ref = U;
},
{
pos = (181,0);
ref = ogonekcomb;
}
);
width = 760;
}
);
unicode = 370;
},
{
glyphname = Uring;
lastChange = "2022-08-04 16:01:12 +0000";
layers = (
{
background = {
anchors = (
{
name = bottom;
pos = (380,0);
},
{
name = ogonek;
pos = (684,10);
},
{
name = top;
pos = (402,956);
},
{
name = topright;
pos = (740,691);
}
);
shapes = (
{
closed = 1;
nodes = (
(584,616,o),
(592,554,o),
(592,339,cs),
(592,164,o),
(560,45,o),
(380,45,cs),
(204,45,o),
(201,150,o),
(201,322,cs),
(201,551,o),
(210,616,o),
(210,616,c),
(213,641,o),
(232,647,o),
(292,659,c),
(289,688,l),
(247,686,o),
(209,685,o),
(159,685,cs),
(109,685,o),
(67,686,o),
(25,688,c),
(22,659,l),
(82,647,o),
(104,641,o),
(104,616,cs),
(107,489,o),
(109,363,o),
(111,236,cs),
(115,34,o),
(211,-12,o),
(380,-12,cs),
(578,-12,o),
(648,105,o),
(652,247,cs),
(656,370,o),
(658,493,o),
(663,616,cs),
(664,641,o),
(685,647,o),
(745,659,c),
(742,688,l),
(700,686,o),
(685,685,o),
(635,685,cs),
(585,685,o),
(535,686,o),
(493,688,c),
(490,659,l),
(550,647,o),
(581,641,o),
(584,616,c,{
name = hr00;
})
);
},
{
closed = 1;
nodes = (
(437,926,o),
(450,888,o),
(450,847,cs),
(450,793,o),
(428,777,o),
(401,777,cs),
(364,777,o),
(349,816,o),
(349,856,cs),
(349,910,o),
(372,926,o),
(399,926,cs,{
name = hr00;
})
);
},
{
closed = 1;
nodes = (
(297,793,o),
(344,747,o),
(402,747,cs),
(460,747,o),
(506,793,o),
(506,851,cs),
(506,909,o),
(460,956,o),
(402,956,cs),
(344,956,o),
(297,909,o),
(297,851,cs)
);
}
);
};
layerId = master01;
shapes = (
{
ref = U;
},
{
pos = (402,0);
ref = ringcomb.case;
}
);
width = 760;
}
);
unicode = 366;
},
{
glyphname = Utilde;
lastChange = "2022-08-04 16:01:24 +0000";
layers = (
{
background = {
anchors = (
{
name = bottom;
pos = (380,0);
},
{
name = ogonek;
pos = (684,10);
},
{
name = top;
pos = (396,897);
},
{
name = topright;
pos = (740,691);
}
);
shapes = (
{
closed = 1;
nodes = (
(584,616,o),
(592,554,o),
(592,339,cs),
(592,164,o),
(560,45,o),
(380,45,cs),
(204,45,o),
(201,150,o),
(201,322,cs),
(201,551,o),
(210,616,o),
(210,616,c),
(213,641,o),
(232,647,o),
(292,659,c),
(289,688,l),
(247,686,o),
(209,685,o),
(159,685,cs),
(109,685,o),
(67,686,o),
(25,688,c),
(22,659,l),
(82,647,o),
(104,641,o),
(104,616,cs),
(107,489,o),
(109,363,o),
(111,236,cs),
(115,34,o),
(211,-12,o),
(380,-12,cs),
(578,-12,o),
(648,105,o),
(652,247,cs),
(656,370,o),
(658,493,o),
(663,616,cs),
(664,641,o),
(685,647,o),
(745,659,c),
(742,688,l),
(700,686,o),
(685,685,o),
(635,685,cs),
(585,685,o),
(535,686,o),
(493,688,c),
(490,659,l),
(550,647,o),
(581,641,o),
(584,616,c,{
name = hr00;
})
);
},
{
closed = 1;
nodes = (
(441,767,o),
(302,1029,o),
(232,796,c),
(258,788,l),
(351,917,o),
(490,655,o),
(560,888,c),
(534,896,l)
);
}
);
};
layerId = master01;
shapes = (
{
ref = U;
},
{
pos = (402,0);
ref = tildecomb.case;
}
);
width = 760;
}
);
unicode = 360;
},
{
glyphname = V;
lastChange = "2022-08-04 15:46:42 +0000";
layers = (
{
anchors = (
{
name = bottom;
pos = (345,0);
},
{
name = top;
pos = (345,691);
}
);
background = {
shapes = (
{
closed = 1;
nodes = (
(291,287,o),
(181,609,o),
(181,622,cs),
(181,641,o),
(215,648,o),
(269,659,c),
(266,688,l),
(224,686,o),
(184,685,o),
(134,685,cs),
(84,685,o),
(43,686,o),
(1,688,c),
(-2,659,l),
(58,647,o),
(73,639,o),
(83,616,c),
(297,-9,l),
(395,0,l),
(455,190,o),
(604,610,o),
(604,610,c),
(614,635,o),
(634,647,o),
(694,659,c),
(691,688,l),
(649,686,o),
(627,685,o),
(577,685,cs),
(527,685,o),
(486,686,o),
(444,688,c),
(441,659,l),
(496,648,o),
(527,640,o),
(527,621,c),
(529,607,o),
(428,301,o),
(361,87,c),
(356,87,l,{
name = hr00;
})
);
}
);
};
layerId = master01;
shapes = (
{
closed = 1;
nodes = (
(291,287,o),
(181,609,o),
(181,622,cs),
(181,641,o),
(215,648,o),
(269,659,c),
(266,688,l),
(224,686,o),
(184,685,o),
(134,685,cs),
(84,685,o),
(43,686,o),
(1,688,c),
(-2,659,l),
(58,647,o),
(73,639,o),
(83,616,c),
(297,-9,l),
(395,0,l),
(455,190,o),
(604,610,o),
(604,610,c),
(614,635,o),
(634,647,o),
(694,659,c),
(691,688,l),
(649,686,o),
(627,685,o),
(577,685,cs),
(527,685,o),
(486,686,o),
(444,688,c),
(441,659,l),
(496,648,o),
(527,640,o),
(527,621,c),
(529,607,o),
(428,301,o),
(361,87,c),
(356,87,l,{
name = hr00;
})
);
}
);
width = 689;
}
);
unicode = 86;
},
{
glyphname = W;
lastChange = "2022-08-04 16:01:45 +0000";
layers = (
{
anchors = (
{
name = bottom;
pos = (495,0);
},
{
name = top;
pos = (505,691);
}
);
background = {
shapes = (
{
closed = 1;
nodes = (
(657,-9,l),
(749,0,l),
(806,203,o),
(907,610,o),
(907,610,c),
(913,635,o),
(937,647,o),
(997,659,c),
(994,688,l),
(952,686,o),
(930,685,o),
(880,685,cs),
(830,685,o),
(789,686,o),
(747,688,c),
(744,659,l),
(799,648,o),
(830,640,o),
(830,621,cs),
(830,589,o),
(761,295,o),
(716,109,c),
(711,109,l),
(535,685,l),
(470,685,l),
(470,685,o),
(394,382,o),
(311,109,c),
(306,109,l),
(244,371,o),
(184,613,o),
(184,622,cs),
(184,641,o),
(218,648,o),
(272,659,c),
(269,688,l),
(227,686,o),
(184,685,o),
(134,685,cs),
(84,685,o),
(43,686,o),
(1,688,c),
(-2,659,l),
(58,647,o),
(74,639,o),
(83,616,c),
(246,-9,l),
(338,0,l),
(487,531,l),
(491,531,l,{
name = hr00;
})
);
}
);
};
layerId = master01;
shapes = (
{
closed = 1;
nodes = (
(657,-9,l),
(749,0,l),
(806,203,o),
(907,610,o),
(907,610,c),
(913,635,o),
(937,647,o),
(997,659,c),
(994,688,l),
(952,686,o),
(930,685,o),
(880,685,cs),
(830,685,o),
(789,686,o),
(747,688,c),
(744,659,l),
(799,648,o),
(830,640,o),
(830,621,cs),
(830,589,o),
(761,295,o),
(716,109,c),
(711,109,l),
(535,685,l),
(470,685,l),
(470,685,o),
(394,382,o),
(311,109,c),
(306,109,l),
(244,371,o),
(184,613,o),
(184,622,cs),
(184,641,o),
(218,648,o),
(272,659,c),
(269,688,l),
(227,686,o),
(184,685,o),
(134,685,cs),
(84,685,o),
(43,686,o),
(1,688,c),
(-2,659,l),
(58,647,o),
(74,639,o),
(83,616,c),
(246,-9,l),
(338,0,l),
(487,531,l),
(491,531,l,{
name = hr00;
})
);
}
);
width = 990;
}
);
unicode = 87;
},
{
glyphname = Wacute;
lastChange = "2022-08-04 16:02:53 +0000";
layers = (
{
background = {
anchors = (
{
name = bottom;
pos = (495,0);
},
{
name = top;
pos = (538,954);
}
);
shapes = (
{
closed = 1;
nodes = (
(657,-9,l),
(749,0,l),
(806,203,o),
(907,610,o),
(907,610,c),
(913,635,o),
(937,647,o),
(997,659,c),
(994,688,l),
(952,686,o),
(930,685,o),
(880,685,cs),
(830,685,o),
(789,686,o),
(747,688,c),
(744,659,l),
(799,648,o),
(830,640,o),
(830,621,cs),
(830,589,o),
(761,295,o),
(716,109,c),
(711,109,l),
(535,685,l),
(470,685,l),
(470,685,o),
(394,382,o),
(311,109,c),
(306,109,l),
(244,371,o),
(184,613,o),
(184,622,cs),
(184,641,o),
(218,648,o),
(272,659,c),
(269,688,l),
(227,686,o),
(184,685,o),
(134,685,cs),
(84,685,o),
(43,686,o),
(1,688,c),
(-2,659,l),
(58,647,o),
(74,639,o),
(83,616,c),
(246,-9,l),
(338,0,l),
(487,531,l),
(491,531,l,{
name = hr00;
})
);
},
{
closed = 1;
nodes = (
(636,935,o),
(603,954,o),
(570,954,c),
(436,755,l),
(466,750,l),
(639,912,l,{
name = hr00;
})
);
}
);
};
layerId = master01;
shapes = (
{
ref = W;
},
{
pos = (505,0);
ref = acutecomb.case;
}
);
width = 990;
}
);
unicode = 7810;
},
{
glyphname = Wcircumflex;
lastChange = "2022-08-04 16:01:45 +0000";
layers = (
{
background = {
anchors = (
{
name = bottom;
pos = (495,0);
},
{
name = top;
pos = (506,949);
}
);
shapes = (
{
closed = 1;
nodes = (
(657,-9,l),
(749,0,l),
(806,203,o),
(907,610,o),
(907,610,c),
(913,635,o),
(937,647,o),
(997,659,c),
(994,688,l),
(952,686,o),
(930,685,o),
(880,685,cs),
(830,685,o),
(789,686,o),
(747,688,c),
(744,659,l),
(799,648,o),
(830,640,o),
(830,621,cs),
(830,589,o),
(761,295,o),
(716,109,c),
(711,109,l),
(535,685,l),
(470,685,l),
(470,685,o),
(394,382,o),
(311,109,c),
(306,109,l),
(244,371,o),
(184,613,o),
(184,622,cs),
(184,641,o),
(218,648,o),
(272,659,c),
(269,688,l),
(227,686,o),
(184,685,o),
(134,685,cs),
(84,685,o),
(43,686,o),
(1,688,c),
(-2,659,l),
(58,647,o),
(74,639,o),
(83,616,c),
(246,-9,l),
(338,0,l),
(487,531,l),
(491,531,l,{
name = hr00;
})
);
},
{
closed = 1;
nodes = (
(393,755,l),
(423,750,l),
(505,854,l),
(588,750,l),
(618,755,l),
(524,949,l),
(487,949,l,{
name = hr00;
})
);
}
);
};
layerId = master01;
shapes = (
{
ref = W;
},
{
pos = (505,0);
ref = circumflexcomb.case;
}
);
width = 990;
}
);
unicode = 372;
},
{
glyphname = Wdieresis;
lastChange = "2022-08-04 16:01:47 +0000";
layers = (
{
background = {
anchors = (
{
name = bottom;
pos = (495,0);
},
{
name = top;
pos = (504,901);
}
);
shapes = (
{
closed = 1;
nodes = (
(657,-9,l),
(749,0,l),
(806,203,o),
(907,610,o),
(907,610,c),
(913,635,o),
(937,647,o),
(997,659,c),
(994,688,l),
(952,686,o),
(930,685,o),
(880,685,cs),
(830,685,o),
(789,686,o),
(747,688,c),
(744,659,l),
(799,648,o),
(830,640,o),
(830,621,cs),
(830,589,o),
(761,295,o),
(716,109,c),
(711,109,l),
(535,685,l),
(470,685,l),
(470,685,o),
(394,382,o),
(311,109,c),
(306,109,l),
(244,371,o),
(184,613,o),
(184,622,cs),
(184,641,o),
(218,648,o),
(272,659,c),
(269,688,l),
(227,686,o),
(184,685,o),
(134,685,cs),
(84,685,o),
(43,686,o),
(1,688,c),
(-2,659,l),
(58,647,o),
(74,639,o),
(83,616,c),
(246,-9,l),
(338,0,l),
(487,531,l),
(491,531,l,{
name = hr00;
})
);
},
{
closed = 1;
nodes = (
(623,795,o),
(646,818,o),
(646,849,cs),
(646,878,o),
(623,901,o),
(594,901,cs),
(565,901,o),
(542,878,o),
(542,849,cs),
(542,818,o),
(565,795,o),
(594,795,cs,{
name = hr00;
})
);
},
{
closed = 1;
nodes = (
(443,795,o),
(466,818,o),
(466,849,cs),
(466,878,o),
(443,901,o),
(414,901,cs),
(385,901,o),
(362,878,o),
(362,849,cs),
(362,818,o),
(385,795,o),
(414,795,cs)
);
}
);
};
layerId = master01;
shapes = (
{
ref = W;
},
{
pos = (505,0);
ref = dieresiscomb.case;
}
);
width = 990;
}
);
unicode = 7812;
},
{
glyphname = Wgrave;
lastChange = "2022-08-04 16:01:47 +0000";
layers = (
{
background = {
anchors = (
{
name = bottom;
pos = (495,0);
},
{
name = top;
pos = (470,954);
}
);
shapes = (
{
closed = 1;
nodes = (
(657,-9,l),
(749,0,l),
(806,203,o),
(907,610,o),
(907,610,c),
(913,635,o),
(937,647,o),
(997,659,c),
(994,688,l),
(952,686,o),
(930,685,o),
(880,685,cs),
(830,685,o),
(789,686,o),
(747,688,c),
(744,659,l),
(799,648,o),
(830,640,o),
(830,621,cs),
(830,589,o),
(761,295,o),
(716,109,c),
(711,109,l),
(535,685,l),
(470,685,l),
(470,685,o),
(394,382,o),
(311,109,c),
(306,109,l),
(244,371,o),
(184,613,o),
(184,622,cs),
(184,641,o),
(218,648,o),
(272,659,c),
(269,688,l),
(227,686,o),
(184,685,o),
(134,685,cs),
(84,685,o),
(43,686,o),
(1,688,c),
(-2,659,l),
(58,647,o),
(74,639,o),
(83,616,c),
(246,-9,l),
(338,0,l),
(487,531,l),
(491,531,l,{
name = hr00;
})
);
},
{
closed = 1;
nodes = (
(571,755,l),
(437,954,l),
(404,954,o),
(371,935,o),
(368,912,c),
(541,750,l,{
name = hr00;
})
);
}
);
};
layerId = master01;
shapes = (
{
ref = W;
},
{
pos = (505,0);
ref = gravecomb.case;
}
);
width = 990;
}
);
unicode = 7808;
},
{
glyphname = X;
lastChange = "2022-08-04 15:46:42 +0000";
layers = (
{
anchors = (
{
name = bottom;
pos = (350,0);
},
{
name = top;
pos = (350,691);
}
);
background = {
shapes = (
{
closed = 1;
nodes = (
(285,520,o),
(217,617,o),
(217,623,cs),
(217,640,o),
(253,649,o),
(306,659,c),
(303,688,l),
(261,686,o),
(212,685,o),
(162,685,cs),
(112,685,o),
(71,686,o),
(29,688,c),
(26,659,l),
(86,647,o),
(96,637,o),
(111,616,cs),
(305,344,l),
(97,75,ls),
(80,53,o),
(67,38,o),
(7,26,c),
(10,-3,l),
(52,-1,o),
(74,0,o),
(124,0,cs,{
name = hr01;
}),
(174,0,o),
(215,-1,o),
(257,-3,c,{
name = hr02;
}),
(260,26,l),
(208,37,o),
(173,48,o),
(173,62,cs),
(173,71,o),
(254,175,o),
(343,293,c),
(432,167,o),
(505,72,o),
(505,63,cs),
(505,45,o),
(469,37,o),
(416,26,c),
(419,-3,l),
(461,-1,o),
(510,0,o),
(560,0,cs,{
name = hr03;
}),
(610,0,o),
(651,-1,o),
(693,-3,c,{
name = hr04;
}),
(696,26,l),
(636,38,o),
(626,49,o),
(611,69,cs),
(403,358,l),
(598,610,ls),
(615,632,o),
(628,647,o),
(688,659,c),
(685,688,l),
(643,686,o),
(621,685,o),
(571,685,cs),
(521,685,o),
(480,686,o),
(438,688,c),
(435,659,l),
(487,648,o),
(522,637,o),
(522,623,cs),
(522,614,o),
(455,527,o),
(366,409,c)
);
}
);
};
layerId = master01;
shapes = (
{
closed = 1;
nodes = (
(285,520,o),
(217,617,o),
(217,623,cs),
(217,640,o),
(253,649,o),
(306,659,c),
(303,688,l),
(261,686,o),
(212,685,o),
(162,685,cs),
(112,685,o),
(71,686,o),
(29,688,c),
(26,659,l),
(86,647,o),
(96,637,o),
(111,616,cs),
(305,344,l),
(97,75,ls),
(80,53,o),
(67,38,o),
(7,26,c),
(10,-3,l),
(52,-1,o),
(74,0,o),
(124,0,cs,{
name = hr01;
}),
(174,0,o),
(215,-1,o),
(257,-3,c,{
name = hr02;
}),
(260,26,l),
(208,37,o),
(173,48,o),
(173,62,cs),
(173,71,o),
(254,175,o),
(343,293,c),
(432,167,o),
(505,72,o),
(505,63,cs),
(505,45,o),
(469,37,o),
(416,26,c),
(419,-3,l),
(461,-1,o),
(510,0,o),
(560,0,cs,{
name = hr03;
}),
(610,0,o),
(651,-1,o),
(693,-3,c,{
name = hr04;
}),
(696,26,l),
(636,38,o),
(626,49,o),
(611,69,cs),
(403,358,l),
(598,610,ls),
(615,632,o),
(628,647,o),
(688,659,c),
(685,688,l),
(643,686,o),
(621,685,o),
(571,685,cs),
(521,685,o),
(480,686,o),
(438,688,c),
(435,659,l),
(487,648,o),
(522,637,o),
(522,623,cs),
(522,614,o),
(455,527,o),
(366,409,c)
);
}
);
width = 700;
}
);
unicode = 88;
},
{
glyphname = Y;
lastChange = "2022-08-04 16:01:54 +0000";
layers = (
{
anchors = (
{
name = bottom;
pos = (321,0);
},
{
name = top;
pos = (337,691);
},
{
name = topleft;
pos = (20,691);
}
);
background = {
shapes = (
{
closed = 1;
nodes = (
(189,615,ls),
(188,618,o),
(187,620,o),
(187,623,cs),
(187,640,o),
(223,649,o),
(276,659,c),
(273,688,l),
(231,686,o),
(182,685,o),
(132,685,cs),
(82,685,o),
(41,686,o),
(-1,688,c),
(-4,659,l),
(56,647,o),
(69,638,o),
(81,616,cs),
(274,262,l),
(273,113,o),
(267,69,o),
(267,69,c),
(264,44,o),
(238,38,o),
(178,26,c),
(181,-3,l),
(223,-1,o),
(272,0,o),
(322,0,cs,{
name = hr01;
}),
(372,0,o),
(413,-1,o),
(455,-3,c,{
name = hr02;
}),
(458,26,l),
(398,38,o),
(376,44,o),
(373,69,c),
(373,69,o),
(366,109,o),
(365,263,c),
(558,610,ls),
(571,634,o),
(588,647,o),
(648,659,c),
(645,688,l),
(603,686,o),
(581,685,o),
(531,685,cs),
(481,685,o),
(440,686,o),
(398,688,c),
(395,659,l),
(448,648,o),
(487,639,o),
(487,623,cs),
(487,616,o),
(485,609,o),
(336,331,c)
);
}
);
};
layerId = master01;
shapes = (
{
closed = 1;
nodes = (
(189,615,l),
(188,618,o),
(187,620,o),
(187,623,cs),
(187,640,o),
(223,649,o),
(276,659,c),
(273,688,l),
(231,686,o),
(182,685,o),
(132,685,cs),
(82,685,o),
(41,686,o),
(-1,688,c),
(-4,659,l),
(56,647,o),
(69,638,o),
(81,616,cs),
(274,262,l),
(273,113,o),
(267,69,o),
(267,69,c),
(264,44,o),
(238,38,o),
(178,26,c),
(181,-3,l),
(223,-1,o),
(272,0,o),
(322,0,cs,{
name = hr01;
}),
(372,0,o),
(413,-1,o),
(455,-3,c,{
name = hr02;
}),
(458,26,l),
(398,38,o),
(376,44,o),
(373,69,c),
(373,69,o),
(366,109,o),
(365,263,c),
(558,610,ls),
(571,634,o),
(588,647,o),
(648,659,c),
(645,688,l),
(603,686,o),
(581,685,o),
(531,685,cs),
(481,685,o),
(440,686,o),
(398,688,c),
(395,659,l),
(448,648,o),
(487,639,o),
(487,623,cs),
(487,616,o),
(485,609,o),
(336,331,c)
);
}
);
width = 641;
}
);
unicode = 89;
},
{
glyphname = Yacute;
lastChange = "2022-08-04 16:02:53 +0000";
layers = (
{
background = {
anchors = (
{
name = bottom;
pos = (321,0);
},
{
name = top;
pos = (410,951);
},
{
name = topleft;
pos = (20,691);
}
);
shapes = (
{
closed = 1;
nodes = (
(189,615,l),
(188,618,o),
(187,620,o),
(187,623,cs),
(187,640,o),
(223,649,o),
(276,659,c),
(273,688,l),
(231,686,o),
(182,685,o),
(132,685,cs),
(82,685,o),
(41,686,o),
(-1,688,c),
(-4,659,l),
(56,647,o),
(69,638,o),
(81,616,cs),
(274,262,l),
(273,113,o),
(267,69,o),
(267,69,c),
(264,44,o),
(238,38,o),
(178,26,c),
(181,-3,l),
(223,-1,o),
(272,0,o),
(322,0,cs,{
name = hr01;
}),
(372,0,o),
(413,-1,o),
(455,-3,c,{
name = hr02;
}),
(458,26,l),
(398,38,o),
(376,44,o),
(373,69,c),
(373,69,o),
(366,109,o),
(365,263,c),
(558,610,ls),
(571,634,o),
(588,647,o),
(648,659,c),
(645,688,l),
(603,686,o),
(581,685,o),
(531,685,cs),
(481,685,o),
(440,686,o),
(398,688,c),
(395,659,l),
(448,648,o),
(487,639,o),
(487,623,cs),
(487,616,o),
(485,609,o),
(336,331,c)
);
},
{
closed = 1;
nodes = (
(508,932,o),
(475,951,o),
(442,951,c),
(308,752,l),
(338,747,l),
(511,909,l,{
name = hr00;
})
);
}
);
};
layerId = master01;
shapes = (
{
ref = Y;
},
{
pos = (337,0);
ref = acutecomb.case;
}
);
width = 641;
}
);
unicode = 221;
},
{
glyphname = Ycircumflex;
lastChange = "2022-08-04 16:01:54 +0000";
layers = (
{
background = {
anchors = (
{
name = bottom;
pos = (321,0);
},
{
name = top;
pos = (337,949);
},
{
name = topleft;
pos = (20,691);
}
);
shapes = (
{
closed = 1;
nodes = (
(189,615,l),
(188,618,o),
(187,620,o),
(187,623,cs),
(187,640,o),
(223,649,o),
(276,659,c),
(273,688,l),
(231,686,o),
(182,685,o),
(132,685,cs),
(82,685,o),
(41,686,o),
(-1,688,c),
(-4,659,l),
(56,647,o),
(69,638,o),
(81,616,cs),
(274,262,l),
(273,113,o),
(267,69,o),
(267,69,c),
(264,44,o),
(238,38,o),
(178,26,c),
(181,-3,l),
(223,-1,o),
(272,0,o),
(322,0,cs,{
name = hr01;
}),
(372,0,o),
(413,-1,o),
(455,-3,c,{
name = hr02;
}),
(458,26,l),
(398,38,o),
(376,44,o),
(373,69,c),
(373,69,o),
(366,109,o),
(365,263,c),
(558,610,ls),
(571,634,o),
(588,647,o),
(648,659,c),
(645,688,l),
(603,686,o),
(581,685,o),
(531,685,cs),
(481,685,o),
(440,686,o),
(398,688,c),
(395,659,l),
(448,648,o),
(487,639,o),
(487,623,cs),
(487,616,o),
(485,609,o),
(336,331,c)
);
},
{
closed = 1;
nodes = (
(224,755,l),
(254,750,l),
(336,854,l),
(419,750,l),
(449,755,l),
(355,949,l),
(318,949,l,{
name = hr00;
})
);
}
);
};
layerId = master01;
shapes = (
{
ref = Y;
},
{
pos = (337,0);
ref = circumflexcomb.case;
}
);
width = 641;
}
);
unicode = 374;
},
{
glyphname = Ydieresis;
lastChange = "2022-08-04 16:01:55 +0000";
layers = (
{
background = {
anchors = (
{
name = bottom;
pos = (321,0);
},
{
name = top;
pos = (336,898);
},
{
name = topleft;
pos = (20,691);
}
);
shapes = (
{
closed = 1;
nodes = (
(189,615,l),
(188,618,o),
(187,620,o),
(187,623,cs),
(187,640,o),
(223,649,o),
(276,659,c),
(273,688,l),
(231,686,o),
(182,685,o),
(132,685,cs),
(82,685,o),
(41,686,o),
(-1,688,c),
(-4,659,l),
(56,647,o),
(69,638,o),
(81,616,cs),
(274,262,l),
(273,113,o),
(267,69,o),
(267,69,c),
(264,44,o),
(238,38,o),
(178,26,c),
(181,-3,l),
(223,-1,o),
(272,0,o),
(322,0,cs,{
name = hr01;
}),
(372,0,o),
(413,-1,o),
(455,-3,c,{
name = hr02;
}),
(458,26,l),
(398,38,o),
(376,44,o),
(373,69,c),
(373,69,o),
(366,109,o),
(365,263,c),
(558,610,ls),
(571,634,o),
(588,647,o),
(648,659,c),
(645,688,l),
(603,686,o),
(581,685,o),
(531,685,cs),
(481,685,o),
(440,686,o),
(398,688,c),
(395,659,l),
(448,648,o),
(487,639,o),
(487,623,cs),
(487,616,o),
(485,609,o),
(336,331,c)
);
},
{
closed = 1;
nodes = (
(455,792,o),
(478,815,o),
(478,846,cs),
(478,875,o),
(455,898,o),
(426,898,cs),
(397,898,o),
(374,875,o),
(374,846,cs),
(374,815,o),
(397,792,o),
(426,792,cs,{
name = hr00;
})
);
},
{
closed = 1;
nodes = (
(275,792,o),
(298,815,o),
(298,846,cs),
(298,875,o),
(275,898,o),
(246,898,cs),
(217,898,o),
(194,875,o),
(194,846,cs),
(194,815,o),
(217,792,o),
(246,792,cs)
);
}
);
};
layerId = master01;
shapes = (
{
ref = Y;
},
{
pos = (337,0);
ref = dieresiscomb.case;
}
);
width = 641;
}
);
unicode = 376;
},
{
glyphname = Ygrave;
lastChange = "2022-08-04 16:01:56 +0000";
layers = (
{
background = {
anchors = (
{
name = bottom;
pos = (321,0);
},
{
name = top;
pos = (305,954);
},
{
name = topleft;
pos = (20,691);
}
);
shapes = (
{
closed = 1;
nodes = (
(189,615,l),
(188,618,o),
(187,620,o),
(187,623,cs),
(187,640,o),
(223,649,o),
(276,659,c),
(273,688,l),
(231,686,o),
(182,685,o),
(132,685,cs),
(82,685,o),
(41,686,o),
(-1,688,c),
(-4,659,l),
(56,647,o),
(69,638,o),
(81,616,cs),
(274,262,l),
(273,113,o),
(267,69,o),
(267,69,c),
(264,44,o),
(238,38,o),
(178,26,c),
(181,-3,l),
(223,-1,o),
(272,0,o),
(322,0,cs,{
name = hr01;
}),
(372,0,o),
(413,-1,o),
(455,-3,c,{
name = hr02;
}),
(458,26,l),
(398,38,o),
(376,44,o),
(373,69,c),
(373,69,o),
(366,109,o),
(365,263,c),
(558,610,ls),
(571,634,o),
(588,647,o),
(648,659,c),
(645,688,l),
(603,686,o),
(581,685,o),
(531,685,cs),
(481,685,o),
(440,686,o),
(398,688,c),
(395,659,l),
(448,648,o),
(487,639,o),
(487,623,cs),
(487,616,o),
(485,609,o),
(336,331,c)
);
},
{
closed = 1;
nodes = (
(406,755,l),
(272,954,l),
(239,954,o),
(206,935,o),
(203,912,c),
(376,750,l,{
name = hr00;
})
);
}
);
};
layerId = master01;
shapes = (
{
ref = Y;
},
{
pos = (337,0);
ref = gravecomb.case;
}
);
width = 641;
}
);
unicode = 7922;
},
{
glyphname = Z;
lastChange = "2022-08-04 15:46:42 +0000";
layers = (
{
anchors = (
{
name = bottom;
pos = (320,0);
},
{
name = center;
pos = (320,346);
},
{
name = top;
pos = (320,691);
}
);
background = {
shapes = (
{
closed = 1;
nodes = (
(580,685,l),
(448,685,ls),
(319,685,o),
(150,685,o),
(68,691,c,{
name = hr01;
}),
(68,676,l),
(68,634,o),
(62,563,o),
(56,529,c),
(83,517,l),
(118,630,o),
(129,631,o),
(478,631,c,{
name = hr02;
}),
(30,35,l),
(54,0,l),
(590,0,l),
(592,36,o),
(602,123,o),
(614,159,c),
(587,171,l),
(552,60,o),
(489,53,o),
(267,53,c),
(151,53,l),
(598,652,l)
);
}
);
};
layerId = master01;
shapes = (
{
closed = 1;
nodes = (
(580,685,l),
(448,685,ls),
(319,685,o),
(150,685,o),
(68,691,c,{
name = hr01;
}),
(68,676,ls),
(68,634,o),
(62,563,o),
(56,529,c),
(83,517,l),
(118,630,o),
(129,631,o),
(478,631,c,{
name = hr02;
}),
(30,35,l),
(54,0,l),
(590,0,l),
(592,36,o),
(602,123,o),
(614,159,c),
(587,171,l),
(552,60,o),
(489,53,o),
(267,53,cs),
(151,53,l),
(598,652,l)
);
}
);
width = 640;
}
);
unicode = 90;
},
{
glyphname = Zacute;
lastChange = "2022-08-04 15:51:48 +0000";
layers = (
{
background = {
anchors = (
{
name = bottom;
pos = (320,0);
},
{
name = center;
pos = (320,346);
},
{
name = top;
pos = (368,954);
}
);
shapes = (
{
closed = 1;
nodes = (
(580,685,l),
(448,685,ls),
(319,685,o),
(150,685,o),
(68,691,c,{
name = hr01;
}),
(68,676,ls),
(68,634,o),
(62,563,o),
(56,529,c),
(83,517,l),
(118,630,o),
(129,631,o),
(478,631,c,{
name = hr02;
}),
(30,35,l),
(54,0,l),
(590,0,l),
(592,36,o),
(602,123,o),
(614,159,c),
(587,171,l),
(552,60,o),
(489,53,o),
(267,53,cs),
(151,53,l),
(598,652,l)
);
},
{
closed = 1;
nodes = (
(466,935,o),
(433,954,o),
(400,954,c),
(266,755,l),
(296,750,l),
(469,912,l,{
name = hr00;
})
);
}
);
};
layerId = master01;
shapes = (
{
ref = Z;
},
{
pos = (320,0);
ref = acutecomb.case;
}
);
width = 640;
}
);
unicode = 377;
},
{
glyphname = Zcaron;
lastChange = "2022-08-04 15:53:44 +0000";
layers = (
{
background = {
anchors = (
{
name = bottom;
pos = (320,0);
},
{
name = center;
pos = (320,346);
},
{
name = top;
pos = (320,951);
}
);
shapes = (
{
closed = 1;
nodes = (
(580,685,l),
(448,685,ls),
(319,685,o),
(150,685,o),
(68,691,c,{
name = hr01;
}),
(68,676,ls),
(68,634,o),
(62,563,o),
(56,529,c),
(83,517,l),
(118,630,o),
(129,631,o),
(478,631,c,{
name = hr02;
}),
(30,35,l),
(54,0,l),
(590,0,l),
(592,36,o),
(602,123,o),
(614,159,c),
(587,171,l),
(552,60,o),
(489,53,o),
(267,53,cs),
(151,53,l),
(598,652,l)
);
},
{
closed = 1;
nodes = (
(442,946,l),
(412,951,l),
(319,837,l),
(227,951,l),
(197,946,l),
(301,751,l),
(338,751,l,{
name = hr00;
})
);
}
);
};
layerId = master01;
shapes = (
{
ref = Z;
},
{
pos = (320,0);
ref = caroncomb.case;
}
);
width = 640;
}
);
unicode = 381;
},
{
glyphname = Zdotaccent;
lastChange = "2022-08-04 15:51:48 +0000";
layers = (
{
background = {
anchors = (
{
name = bottom;
pos = (320,0);
},
{
name = center;
pos = (320,346);
},
{
name = top;
pos = (335,901);
}
);
shapes = (
{
closed = 1;
nodes = (
(580,685,l),
(448,685,ls),
(319,685,o),
(150,685,o),
(68,691,c,{
name = hr01;
}),
(68,676,ls),
(68,634,o),
(62,563,o),
(56,529,c),
(83,517,l),
(118,630,o),
(129,631,o),
(478,631,c,{
name = hr02;
}),
(30,35,l),
(54,0,l),
(590,0,l),
(592,36,o),
(602,123,o),
(614,159,c),
(587,171,l),
(552,60,o),
(489,53,o),
(267,53,cs),
(151,53,l),
(598,652,l)
);
},
{
closed = 1;
nodes = (
(364,795,o),
(387,818,o),
(387,849,cs),
(387,878,o),
(364,901,o),
(335,901,cs),
(306,901,o),
(283,878,o),
(283,849,cs),
(283,818,o),
(306,795,o),
(335,795,cs,{
name = hr00;
})
);
}
);
};
layerId = master01;
shapes = (
{
ref = Z;
},
{
pos = (185,0);
ref = dotaccentcomb.case;
}
);
width = 640;
}
);
unicode = 379;
},
{
glyphname = a;
lastChange = "2022-08-04 15:46:42 +0000";
layers = (
{
anchors = (
{
name = bottom;
pos = (229,0);
},
{
name = ogonek;
pos = (411,10);
},
{
name = top;
pos = (229,456);
}
);
background = {
shapes = (
{
closed = 1;
nodes = (
(254,65,o),
(217,51,o),
(188,51,cs),
(149,51,o),
(123,71,o),
(123,111,cs),
(123,158,o),
(174,207,o),
(291,210,c),
(291,94,l,{
name = hr00;
})
);
},
{
closed = 1;
nodes = (
(425,46,o),
(414,44,o),
(406,44,cs),
(387,44,o),
(371,56,o),
(370,92,cs),
(369,125,o),
(364,320,o),
(364,353,cs),
(364,439,o),
(314,460,o),
(252,460,cs),
(127,460,o),
(58,373,o),
(58,354,cs),
(58,343,o),
(85,311,o),
(113,296,c),
(135,306,l),
(133,316,o),
(132,324,o),
(132,333,cs),
(132,374,o),
(159,406,o),
(218,406,cs),
(258,406,o),
(291,387,o),
(291,348,cs),
(291,255,l),
(100,242,o),
(39,167,o),
(39,95,cs),
(39,23,o),
(89,-9,o),
(142,-9,cs),
(198,-9,o),
(244,19,o),
(294,56,c),
(301,10,o),
(330,-9,o),
(364,-9,cs),
(392,-9,o),
(423,4,o),
(447,26,c),
(437,52,l)
);
}
);
};
layerId = master01;
shapes = (
{
closed = 1;
nodes = (
(254,65,o),
(217,51,o),
(188,51,cs),
(149,51,o),
(123,71,o),
(123,111,cs),
(123,158,o),
(174,207,o),
(291,210,c),
(291,94,l,{
name = hr00;
})
);
},
{
closed = 1;
nodes = (
(425,46,o),
(414,44,o),
(406,44,cs),
(387,44,o),
(371,56,o),
(370,92,cs),
(369,125,o),
(364,320,o),
(364,353,cs),
(364,439,o),
(314,460,o),
(252,460,cs),
(127,460,o),
(58,373,o),
(58,354,cs),
(58,343,o),
(85,311,o),
(113,296,c),
(135,306,l),
(133,316,o),
(132,324,o),
(132,333,cs),
(132,374,o),
(159,406,o),
(218,406,cs),
(258,406,o),
(291,387,o),
(291,348,cs),
(291,255,l),
(100,242,o),
(39,167,o),
(39,95,cs),
(39,23,o),
(89,-9,o),
(142,-9,cs),
(198,-9,o),
(244,19,o),
(294,56,c),
(301,10,o),
(330,-9,o),
(364,-9,cs),
(392,-9,o),
(423,4,o),
(447,26,c),
(437,52,l)
);
}
);
width = 457;
}
);
unicode = 97;
},
{
glyphname = aacute;
lastChange = "2022-08-04 15:51:48 +0000";
layers = (
{
background = {
anchors = (
{
name = bottom;
pos = (229,0);
},
{
name = ogonek;
pos = (411,10);
},
{
name = top;
pos = (274,722);
}
);
shapes = (
{
closed = 1;
nodes = (
(254,65,o),
(217,51,o),
(188,51,cs),
(149,51,o),
(123,71,o),
(123,111,cs),
(123,158,o),
(174,207,o),
(291,210,c),
(291,94,l,{
name = hr00;
})
);
},
{
closed = 1;
nodes = (
(425,46,o),
(414,44,o),
(406,44,cs),
(387,44,o),
(371,56,o),
(370,92,cs),
(369,125,o),
(364,320,o),
(364,353,cs),
(364,439,o),
(314,460,o),
(252,460,cs),
(127,460,o),
(58,373,o),
(58,354,cs),
(58,343,o),
(85,311,o),
(113,296,c),
(135,306,l),
(133,316,o),
(132,324,o),
(132,333,cs),
(132,374,o),
(159,406,o),
(218,406,cs),
(258,406,o),
(291,387,o),
(291,348,cs),
(291,255,l),
(100,242,o),
(39,167,o),
(39,95,cs),
(39,23,o),
(89,-9,o),
(142,-9,cs),
(198,-9,o),
(244,19,o),
(294,56,c),
(301,10,o),
(330,-9,o),
(364,-9,cs),
(392,-9,o),
(423,4,o),
(447,26,c),
(437,52,l)
);
},
{
closed = 1;
nodes = (
(372,703,o),
(339,722,o),
(306,722,c),
(172,523,l),
(202,518,l),
(375,680,l,{
name = hr00;
})
);
}
);
};
layerId = master01;
shapes = (
{
ref = a;
},
{
pos = (57,0);
ref = acutecomb;
}
);
width = 457;
}
);
unicode = 225;
},
{
glyphname = abreve;
lastChange = "2022-08-04 15:51:48 +0000";
layers = (
{
background = {
anchors = (
{
name = bottom;
pos = (229,0);
},
{
name = ogonek;
pos = (411,10);
},
{
name = top;
pos = (229,664);
}
);
shapes = (
{
closed = 1;
nodes = (
(254,65,o),
(217,51,o),
(188,51,cs),
(149,51,o),
(123,71,o),
(123,111,cs),
(123,158,o),
(174,207,o),
(291,210,c),
(291,94,l,{
name = hr00;
})
);
},
{
closed = 1;
nodes = (
(425,46,o),
(414,44,o),
(406,44,cs),
(387,44,o),
(371,56,o),
(370,92,cs),
(369,125,o),
(364,320,o),
(364,353,cs),
(364,439,o),
(314,460,o),
(252,460,cs),
(127,460,o),
(58,373,o),
(58,354,cs),
(58,343,o),
(85,311,o),
(113,296,c),
(135,306,l),
(133,316,o),
(132,324,o),
(132,333,cs),
(132,374,o),
(159,406,o),
(218,406,cs),
(258,406,o),
(291,387,o),
(291,348,cs),
(291,255,l),
(100,242,o),
(39,167,o),
(39,95,cs),
(39,23,o),
(89,-9,o),
(142,-9,cs),
(198,-9,o),
(244,19,o),
(294,56,c),
(301,10,o),
(330,-9,o),
(364,-9,cs),
(392,-9,o),
(423,4,o),
(447,26,c),
(437,52,l)
);
},
{
closed = 1;
nodes = (
(109,587,o),
(169,551,o),
(228,551,cs),
(288,551,o),
(348,587,o),
(358,659,c),
(321,664,l),
(314,628,o),
(271,611,o),
(228,611,cs),
(186,611,o),
(143,628,o),
(136,664,c),
(99,659,l,{
name = hr00;
})
);
}
);
};
layerId = master01;
shapes = (
{
ref = a;
},
{
pos = (66,0);
ref = brevecomb;
}
);
width = 457;
}
);
unicode = 259;
},
{
color = 9;
glyphname = acaron;
lastChange = "2022-08-04 15:51:48 +0000";
layers = (
{
background = {
anchors = (
{
name = bottom;
pos = (229,0);
},
{
name = ogonek;
pos = (411,10);
},
{
name = top;
pos = (620,722);
}
);
shapes = (
{
closed = 1;
nodes = (
(254,65,o),
(217,51,o),
(188,51,cs),
(149,51,o),
(123,71,o),
(123,111,cs),
(123,158,o),
(174,207,o),
(291,210,c),
(291,94,l,{
name = hr00;
})
);
},
{
closed = 1;
nodes = (
(425,46,o),
(414,44,o),
(406,44,cs),
(387,44,o),
(371,56,o),
(370,92,cs),
(369,125,o),
(364,320,o),
(364,353,cs),
(364,439,o),
(314,460,o),
(252,460,cs),
(127,460,o),
(58,373,o),
(58,354,cs),
(58,343,o),
(85,311,o),
(113,296,c),
(135,306,l),
(133,316,o),
(132,324,o),
(132,333,cs),
(132,374,o),
(159,406,o),
(218,406,cs),
(258,406,o),
(291,387,o),
(291,348,cs),
(291,255,l),
(100,242,o),
(39,167,o),
(39,95,cs),
(39,23,o),
(89,-9,o),
(142,-9,cs),
(198,-9,o),
(244,19,o),
(294,56,c),
(301,10,o),
(330,-9,o),
(364,-9,cs),
(392,-9,o),
(423,4,o),
(447,26,c),
(437,52,l)
);
},
{
closed = 1;
nodes = (
(742,717,l),
(712,722,l),
(619,608,l),
(527,722,l),
(497,717,l),
(601,522,l),
(638,522,l,{
name = hr00;
})
);
}
);
};
layerId = master01;
shapes = (
{
ref = a;
},
{
pos = (66,0);
ref = caroncomb;
}
);
width = 457;
}
);
unicode = 462;
},
{
glyphname = acircumflex;
lastChange = "2022-08-04 15:51:48 +0000";
layers = (
{
background = {
anchors = (
{
name = bottom;
pos = (229,0);
},
{
name = ogonek;
pos = (411,10);
},
{
name = top;
pos = (228,717);
}
);
shapes = (
{
closed = 1;
nodes = (
(254,65,o),
(217,51,o),
(188,51,cs),
(149,51,o),
(123,71,o),
(123,111,cs),
(123,158,o),
(174,207,o),
(291,210,c),
(291,94,l,{
name = hr00;
})
);
},
{
closed = 1;
nodes = (
(425,46,o),
(414,44,o),
(406,44,cs),
(387,44,o),
(371,56,o),
(370,92,cs),
(369,125,o),
(364,320,o),
(364,353,cs),
(364,439,o),
(314,460,o),
(252,460,cs),
(127,460,o),
(58,373,o),
(58,354,cs),
(58,343,o),
(85,311,o),
(113,296,c),
(135,306,l),
(133,316,o),
(132,324,o),
(132,333,cs),
(132,374,o),
(159,406,o),
(218,406,cs),
(258,406,o),
(291,387,o),
(291,348,cs),
(291,255,l),
(100,242,o),
(39,167,o),
(39,95,cs),
(39,23,o),
(89,-9,o),
(142,-9,cs),
(198,-9,o),
(244,19,o),
(294,56,c),
(301,10,o),
(330,-9,o),
(364,-9,cs),
(392,-9,o),
(423,4,o),
(447,26,c),
(437,52,l)
);
},
{
closed = 1;
nodes = (
(115,523,l),
(145,518,l),
(227,622,l),
(310,518,l),
(340,523,l),
(246,717,l),
(209,717,l,{
name = hr00;
})
);
}
);
};
layerId = master01;
shapes = (
{
ref = a;
},
{
pos = (66,0);
ref = circumflexcomb;
}
);
width = 457;
}
);
unicode = 226;
},
{
glyphname = adieresis;
lastChange = "2022-08-04 15:51:48 +0000";
layers = (
{
background = {
anchors = (
{
name = bottom;
pos = (229,0);
},
{
name = ogonek;
pos = (411,10);
},
{
name = top;
pos = (227,669);
}
);
shapes = (
{
closed = 1;
nodes = (
(254,65,o),
(217,51,o),
(188,51,cs),
(149,51,o),
(123,71,o),
(123,111,cs),
(123,158,o),
(174,207,o),
(291,210,c),
(291,94,l,{
name = hr00;
})
);
},
{
closed = 1;
nodes = (
(425,46,o),
(414,44,o),
(406,44,cs),
(387,44,o),
(371,56,o),
(370,92,cs),
(369,125,o),
(364,320,o),
(364,353,cs),
(364,439,o),
(314,460,o),
(252,460,cs),
(127,460,o),
(58,373,o),
(58,354,cs),
(58,343,o),
(85,311,o),
(113,296,c),
(135,306,l),
(133,316,o),
(132,324,o),
(132,333,cs),
(132,374,o),
(159,406,o),
(218,406,cs),
(258,406,o),
(291,387,o),
(291,348,cs),
(291,255,l),
(100,242,o),
(39,167,o),
(39,95,cs),
(39,23,o),
(89,-9,o),
(142,-9,cs),
(198,-9,o),
(244,19,o),
(294,56,c),
(301,10,o),
(330,-9,o),
(364,-9,cs),
(392,-9,o),
(423,4,o),
(447,26,c),
(437,52,l)
);
},
{
closed = 1;
nodes = (
(346,563,o),
(369,586,o),
(369,617,cs),
(369,646,o),
(346,669,o),
(317,669,cs),
(288,669,o),
(265,646,o),
(265,617,cs),
(265,586,o),
(288,563,o),
(317,563,cs,{
name = hr00;
})
);
},
{
closed = 1;
nodes = (
(166,563,o),
(189,586,o),
(189,617,cs),
(189,646,o),
(166,669,o),
(137,669,cs),
(108,669,o),
(85,646,o),
(85,617,cs),
(85,586,o),
(108,563,o),
(137,563,cs)
);
}
);
};
layerId = master01;
shapes = (
{
ref = a;
},
{
pos = (-1,0);
ref = dieresiscomb;
}
);
width = 457;
}
);
unicode = 228;
},
{
glyphname = agrave;
lastChange = "2022-08-04 15:51:48 +0000";
layers = (
{
background = {
anchors = (
{
name = bottom;
pos = (229,0);
},
{
name = ogonek;
pos = (411,10);
},
{
name = top;
pos = (190,722);
}
);
shapes = (
{
closed = 1;
nodes = (
(254,65,o),
(217,51,o),
(188,51,cs),
(149,51,o),
(123,71,o),
(123,111,cs),
(123,158,o),
(174,207,o),
(291,210,c),
(291,94,l,{
name = hr00;
})
);
},
{
closed = 1;
nodes = (
(425,46,o),
(414,44,o),
(406,44,cs),
(387,44,o),
(371,56,o),
(370,92,cs),
(369,125,o),
(364,320,o),
(364,353,cs),
(364,439,o),
(314,460,o),
(252,460,cs),
(127,460,o),
(58,373,o),
(58,354,cs),
(58,343,o),
(85,311,o),
(113,296,c),
(135,306,l),
(133,316,o),
(132,324,o),
(132,333,cs),
(132,374,o),
(159,406,o),
(218,406,cs),
(258,406,o),
(291,387,o),
(291,348,cs),
(291,255,l),
(100,242,o),
(39,167,o),
(39,95,cs),
(39,23,o),
(89,-9,o),
(142,-9,cs),
(198,-9,o),
(244,19,o),
(294,56,c),
(301,10,o),
(330,-9,o),
(364,-9,cs),
(392,-9,o),
(423,4,o),
(447,26,c),
(437,52,l)
);
},
{
closed = 1;
nodes = (
(291,523,l),
(157,722,l),
(124,722,o),
(91,703,o),
(88,680,c),
(261,518,l,{
name = hr00;
})
);
}
);
};
layerId = master01;
shapes = (
{
ref = a;
},
{
pos = (148,0);
ref = gravecomb;
}
);
width = 457;
}
);
unicode = 224;
},
{
glyphname = amacron;
lastChange = "2022-08-04 15:51:48 +0000";
layers = (
{
background = {
anchors = (
{
name = bottom;
pos = (229,0);
},
{
name = ogonek;
pos = (411,10);
},
{
name = top;
pos = (228,634);
}
);
shapes = (
{
closed = 1;
nodes = (
(254,65,o),
(217,51,o),
(188,51,cs),
(149,51,o),
(123,71,o),
(123,111,cs),
(123,158,o),
(174,207,o),
(291,210,c),
(291,94,l,{
name = hr00;
})
);
},
{
closed = 1;
nodes = (
(425,46,o),
(414,44,o),
(406,44,cs),
(387,44,o),
(371,56,o),
(370,92,cs),
(369,125,o),
(364,320,o),
(364,353,cs),
(364,439,o),
(314,460,o),
(252,460,cs),
(127,460,o),
(58,373,o),
(58,354,cs),
(58,343,o),
(85,311,o),
(113,296,c),
(135,306,l),
(133,316,o),
(132,324,o),
(132,333,cs),
(132,374,o),
(159,406,o),
(218,406,cs),
(258,406,o),
(291,387,o),
(291,348,cs),
(291,255,l),
(100,242,o),
(39,167,o),
(39,95,cs),
(39,23,o),
(89,-9,o),
(142,-9,cs),
(198,-9,o),
(244,19,o),
(294,56,c),
(301,10,o),
(330,-9,o),
(364,-9,cs),
(392,-9,o),
(423,4,o),
(447,26,c),
(437,52,l)
);
},
{
closed = 1;
nodes = (
(381,633,l),
(339,630,o),
(297,629,o),
(255,629,cs),
(205,629,o),
(156,631,o),
(106,634,c,{
name = hr01;
}),
(67,588,l),
(75,572,l),
(121,575,o),
(167,576,o),
(212,576,cs,{
name = hr02;
}),
(258,576,o),
(304,575,o),
(350,572,c,{
name = hr03;
}),
(389,618,l)
);
}
);
};
layerId = master01;
shapes = (
{
ref = a;
},
{
pos = (50,0);
ref = macroncomb;
}
);
width = 457;
}
);
unicode = 257;
},
{
glyphname = aogonek;
lastChange = "2022-08-04 15:51:48 +0000";
layers = (
{
background = {
anchors = (
{
name = bottom;
pos = (229,0);
},
{
name = ogonek;
pos = (411,10);
},
{
name = top;
pos = (229,456);
}
);
shapes = (
{
closed = 1;
nodes = (
(254,65,o),
(217,51,o),
(188,51,cs),
(149,51,o),
(123,71,o),
(123,111,cs),
(123,158,o),
(174,207,o),
(291,210,c),
(291,94,l,{
name = hr00;
})
);
},
{
closed = 1;
nodes = (
(425,46,o),
(414,44,o),
(406,44,cs),
(387,44,o),
(371,56,o),
(370,92,cs),
(369,125,o),
(364,320,o),
(364,353,cs),
(364,439,o),
(314,460,o),
(252,460,cs),
(127,460,o),
(58,373,o),
(58,354,cs),
(58,343,o),
(85,311,o),
(113,296,c),
(135,306,l),
(133,316,o),
(132,324,o),
(132,333,cs),
(132,374,o),
(159,406,o),
(218,406,cs),
(258,406,o),
(291,387,o),
(291,348,cs),
(291,255,l),
(100,242,o),
(39,167,o),
(39,95,cs),
(39,23,o),
(89,-9,o),
(142,-9,cs),
(198,-9,o),
(244,19,o),
(294,56,c),
(301,10,o),
(330,-9,o),
(364,-9,cs),
(392,-9,o),
(423,4,o),
(447,26,c),
(437,52,l)
);
},
{
closed = 1;
nodes = (
(307,-150,o),
(292,-153,o),
(279,-153,cs),
(247,-153,o),
(223,-136,o),
(223,-97,cs),
(223,-66,o),
(239,-21,o),
(300,0,c),
(300,26,l),
(204,2,o),
(158,-69,o),
(158,-126,cs),
(158,-169,o),
(185,-203,o),
(241,-203,cs),
(270,-203,o),
(302,-193,o),
(328,-176,c),
(322,-144,l,{
name = hr00;
})
);
}
);
};
layerId = master01;
shapes = (
{
ref = a;
},
{
pos = (219,10);
ref = ogonekcomb;
}
);
width = 457;
}
);
unicode = 261;
},
{
glyphname = aring;
lastChange = "2022-08-04 15:51:48 +0000";
layers = (
{
background = {
anchors = (
{
name = bottom;
pos = (229,0);
},
{
name = ogonek;
pos = (411,10);
},
{
name = top;
pos = (228,724);
}
);
shapes = (
{
closed = 1;
nodes = (
(254,65,o),
(217,51,o),
(188,51,cs),
(149,51,o),
(123,71,o),
(123,111,cs),
(123,158,o),
(174,207,o),
(291,210,c),
(291,94,l,{
name = hr00;
})
);
},
{
closed = 1;
nodes = (
(425,46,o),
(414,44,o),
(406,44,cs),
(387,44,o),
(371,56,o),
(370,92,cs),
(369,125,o),
(364,320,o),
(364,353,cs),
(364,439,o),
(314,460,o),
(252,460,cs),
(127,460,o),
(58,373,o),
(58,354,cs),
(58,343,o),
(85,311,o),
(113,296,c),
(135,306,l),
(133,316,o),
(132,324,o),
(132,333,cs),
(132,374,o),
(159,406,o),
(218,406,cs),
(258,406,o),
(291,387,o),
(291,348,cs),
(291,255,l),
(100,242,o),
(39,167,o),
(39,95,cs),
(39,23,o),
(89,-9,o),
(142,-9,cs),
(198,-9,o),
(244,19,o),
(294,56,c),
(301,10,o),
(330,-9,o),
(364,-9,cs),
(392,-9,o),
(423,4,o),
(447,26,c),
(437,52,l)
);
},
{
closed = 1;
nodes = (
(263,694,o),
(276,656,o),
(276,615,cs),
(276,561,o),
(254,545,o),
(227,545,cs),
(190,545,o),
(175,584,o),
(175,624,cs),
(175,678,o),
(198,694,o),
(225,694,cs,{
name = hr00;
})
);
},
{
closed = 1;
nodes = (
(123,561,o),
(170,515,o),
(228,515,cs),
(286,515,o),
(332,561,o),
(332,619,cs),
(332,677,o),
(286,724,o),
(228,724,cs),
(170,724,o),
(123,677,o),
(123,619,cs)
);
}
);
};
layerId = master01;
shapes = (
{
ref = a;
},
{
pos = (67,0);
ref = ringcomb;
}
);
width = 457;
}
);
unicode = 229;
},
{
glyphname = aringacute;
lastChange = "2022-08-04 15:51:48 +0000";
layers = (
{
background = {
anchors = (
{
name = bottom;
pos = (229,0);
},
{
name = ogonek;
pos = (411,10);
},
{
name = top;
pos = (224,684);
}
);
shapes = (
{
closed = 1;
nodes = (
(342,864,o),
(309,883,o),
(276,883,c),
(155,703,l),
(185,698,l),
(345,841,l,{
name = hr00;
})
);
},
{
closed = 1;
nodes = (
(254,65,o),
(217,51,o),
(188,51,cs),
(149,51,o),
(123,71,o),
(123,111,cs),
(123,158,o),
(174,207,o),
(291,210,c),
(291,94,l,{
name = hr00;
})
);
},
{
closed = 1;
nodes = (
(425,46,o),
(414,44,o),
(406,44,cs),
(387,44,o),
(371,56,o),
(370,92,cs),
(369,125,o),
(364,320,o),
(364,353,cs),
(364,439,o),
(314,460,o),
(252,460,cs),
(127,460,o),
(58,373,o),
(58,354,cs),
(58,343,o),
(85,311,o),
(113,296,c),
(135,306,l),
(133,316,o),
(132,324,o),
(132,333,cs),
(132,374,o),
(159,406,o),
(218,406,cs),
(258,406,o),
(291,387,o),
(291,348,cs),
(291,255,l),
(100,242,o),
(39,167,o),
(39,95,cs),
(39,23,o),
(89,-9,o),
(142,-9,cs),
(198,-9,o),
(244,19,o),
(294,56,c),
(301,10,o),
(330,-9,o),
(364,-9,cs),
(392,-9,o),
(423,4,o),
(447,26,c),
(437,52,l)
);
},
{
closed = 1;
nodes = (
(259,654,o),
(272,616,o),
(272,575,cs),
(272,521,o),
(250,505,o),
(223,505,cs),
(186,505,o),
(171,544,o),
(171,584,cs),
(171,638,o),
(194,654,o),
(221,654,cs,{
name = hr00;
})
);
},
{
closed = 1;
nodes = (
(119,521,o),
(166,475,o),
(224,475,cs),
(282,475,o),
(328,521,o),
(328,579,cs),
(328,637,o),
(282,684,o),
(224,684,cs),
(166,684,o),
(119,637,o),
(119,579,cs)
);
}
);
};
layerId = master01;
shapes = (
{
ref = a;
},
{
pos = (67,0);
ref = ringcomb;
},
{
pos = (57,268);
ref = acutecomb;
}
);
width = 457;
}
);
unicode = 507;
},
